<svg xmlns="http://www.w3.org/2000/svg" viewBox="0 0 20.51 16.67"><defs><style>.cls-1{fill:#fff;}</style></defs><g id="Capa_2" data-name="Capa 2"><g id="Elementos_superiores" data-name="Elementos superiores"><path id="Twitter" class="cls-1" d="M20.51,2a8.6,8.6,0,0,1-2.42.67A4.17,4.17,0,0,0,19.94.31a8.22,8.22,0,0,1-2.67,1A4.2,4.2,0,0,0,10,4.21a4.34,4.34,0,0,0,.1,1A12,12,0,0,1,1.43.77,4.26,4.26,0,0,0,.85,2.89a4.22,4.22,0,0,0,1.87,3.5,4.21,4.21,0,0,1-1.9-.52v0a4.23,4.23,0,0,0,3.37,4.13,4.36,4.36,0,0,1-1.1.14,3.56,3.56,0,0,1-.8-.08A4.24,4.24,0,0,0,6.22,13,8.45,8.45,0,0,1,1,14.84a8.31,8.31,0,0,1-1-.06,11.84,11.84,0,0,0,6.45,1.89,11.89,11.89,0,0,0,12-12c0-.19,0-.37,0-.54A8.58,8.58,0,0,0,20.51,2Z"/></g></g></svg>