<svg xmlns="http://www.w3.org/2000/svg" viewBox="0 0 142.97 127.61"><defs><style>.cls-1{fill:#678d58;}</style></defs><g id="Capa_2" data-name="Capa 2"><g id="OBJECT"><path class="cls-1" d="M129.63,48.57V31.11c0-3.76-3-2.81-6.8-2.81h-.2c-3.75,0-6.8-.95-6.8,2.81v6.22L70,0,0,59a71.63,71.63,0,0,0,49.44,65.22V101.67a32.28,32.28,0,0,1-21.08-9.16c-7.15-7.14-10.08-17.17-9.06-27.66,10.48-1,20.5,1.91,27.66,9.06S57,91.08,56,101.57V126a71.54,71.54,0,0,0,12.19,1.57V80.93C62,74.62,58.34,66.66,58.34,58c0-10.11,5-19.27,13.15-26,8.13,6.69,13.15,15.85,13.15,26,0,8.66-3.69,16.62-9.86,22.94v46.67A71.93,71.93,0,0,0,87,126V101.57C86,91.08,88.88,81.06,96,73.91s17.17-10.07,27.65-9.06c1,10.49-1.9,20.52-9.06,27.66a32.24,32.24,0,0,1-21.08,9.16v22.58A71.64,71.64,0,0,0,143,59.42Zm-78,19.32a32.31,32.31,0,0,0-13.64-8,22.77,22.77,0,0,1,.22-15.54,22.75,22.75,0,0,1,14.11,7.36,31.63,31.63,0,0,0-.71,6.68,32,32,0,0,0,2.56,12.42A32.78,32.78,0,0,0,51.67,67.89Zm53.27-8a32.39,32.39,0,0,0-13.63,8,32.78,32.78,0,0,0-2.54,2.87,31.46,31.46,0,0,0,1.86-19.1,22.69,22.69,0,0,1,14.11-7.36A22.82,22.82,0,0,1,104.94,59.84Z"/></g></g></svg>