<svg xmlns="http://www.w3.org/2000/svg" viewBox="0 0 423.26 416.46"><defs><style>.cls-1{fill:#98c487;}.cls-2{fill:#2c2a24;}</style></defs><g id="Capa_2" data-name="Capa 2"><g id="mail-message"><path class="cls-1" d="M266.24,416.46a13.65,13.65,0,0,1-13.65-13.65V252.62H170.67V402.81a13.66,13.66,0,0,1-27.31,0V239A13.65,13.65,0,0,1,157,225.31H266.24A13.65,13.65,0,0,1,279.9,239V402.81A13.65,13.65,0,0,1,266.24,416.46Z"/><path class="cls-2" d="M411.16,158.29,233.67,8.1a34,34,0,0,0-44.08,0L12.1,158.29a34.14,34.14,0,0,0,19.25,60.09c1,.08,1.9.12,2.85.12.43,0,.84-.1,1.26-.11L47.82,403.71a13.66,13.66,0,0,0,13.62,12.75H361.82a13.66,13.66,0,0,0,13.62-12.75L387.83,218c10.22.3,20.6-3.57,27.34-11.55a34.13,34.13,0,0,0-4-48.11Zm-337,230.86L62,205.51,211.63,78.87,361.28,205.51,349,389.15Zm320.14-200.4c-2,2.42-5.27,4.54-9.64.82l-164.27-139a13.65,13.65,0,0,0-17.62,0l-164.3,139a6.66,6.66,0,0,1-4.93,1.58,6.9,6.9,0,0,1-4.68-2.42,6.81,6.81,0,0,1,.81-9.61L207.21,29A6.83,6.83,0,0,1,216,29L393.53,179.14a6.82,6.82,0,0,1,.82,9.61Z"/><path class="cls-1" d="M238.94,348.19a13.64,13.64,0,0,1-13.66-13.65V320.89a13.66,13.66,0,1,1,27.31,0v13.65A13.64,13.64,0,0,1,238.94,348.19Z"/><path class="cls-2" d="M402.78,416.46H320.86a13.66,13.66,0,1,1,0-27.31h81.92a13.66,13.66,0,0,1,0,27.31Z"/></g></g></svg>