<svg xmlns="http://www.w3.org/2000/svg" viewBox="0 0 436.91 436.91"><defs><style>.cls-1{fill:#2c2a24;}.cls-2{fill:#98c487;}</style></defs><g id="Capa_2" data-name="Capa 2"><g id="mail-message"><path class="cls-1" d="M400.44,0h-282A36.51,36.51,0,0,0,81.92,36.47V185.13a13.66,13.66,0,1,0,27.31,0V42.82l100.19,83.49,0,0-54.68,48.6a13.65,13.65,0,1,0,18.13,20.4l54.68-48.6a13,13,0,0,0,2.47-3.28l20.68,17.23a13.68,13.68,0,0,0,17.49,0L289,143.31l98.66,88.8H341.33a13.65,13.65,0,1,0,0,27.3h59.11A36.51,36.51,0,0,0,436.91,223V36.47A36.51,36.51,0,0,0,400.44,0Zm-141,132.41L133.29,27.31H385.54ZM409.6,42.82V215.11l-99.4-89.46Z"/><path class="cls-2" d="M318.52,177.49h-282A36.51,36.51,0,0,0,0,214V400.44a36.51,36.51,0,0,0,36.47,36.47h282A36.51,36.51,0,0,0,355,400.44V214A36.51,36.51,0,0,0,318.52,177.49Zm-141,132.42L51.38,204.8H303.6ZM27.31,220.3l100.2,83.5,0,0-100.16,89ZM145.6,324.23a13,13,0,0,0,2.47-3.29l20.67,17.23a13.69,13.69,0,0,0,17.5,0l20.84-17.37,98.67,88.8H49.56Zm82.68-21.09,99.4-82.84V392.61Z"/></g></g></svg>