<svg xmlns="http://www.w3.org/2000/svg" viewBox="0 0 15.64 11"><defs><style>.cls-1{fill:#fff;}</style></defs><g id="Capa_2" data-name="Capa 2"><g id="Capa_1-2" data-name="Capa 1"><g id="mail"><path class="cls-1" d="M15.51.79,10.76,5.5l4.75,4.71a1.42,1.42,0,0,0,.13-.59V1.38A1.42,1.42,0,0,0,15.51.79Z"/><path class="cls-1" d="M14.27,0H1.38A1.28,1.28,0,0,0,.79.14l6.06,6a1.36,1.36,0,0,0,1.94,0l6.07-6A1.31,1.31,0,0,0,14.27,0Z"/><path class="cls-1" d="M.14.79A1.28,1.28,0,0,0,0,1.38V9.62a1.28,1.28,0,0,0,.14.59L4.88,5.5Z"/><path class="cls-1" d="M10.11,6.15l-.67.67a2.3,2.3,0,0,1-3.24,0l-.67-.67L.79,10.86a1.28,1.28,0,0,0,.59.14H14.27a1.31,1.31,0,0,0,.59-.14Z"/></g></g></g></svg>