<svg xmlns="http://www.w3.org/2000/svg" viewBox="0 0 15.71 11"><defs><style>.cls-1{fill:#fff;}</style></defs><g id="Capa_2" data-name="Capa 2"><g id="Capa_1-2" data-name="Capa 1"><path id="Youtube" class="cls-1" d="M15.39,1.72A2,2,0,0,0,14,.34,45.41,45.41,0,0,0,7.86,0,48.36,48.36,0,0,0,1.71.32,2,2,0,0,0,.32,1.72,21,21,0,0,0,0,5.5,20.92,20.92,0,0,0,.32,9.28a2,2,0,0,0,1.39,1.38A45.62,45.62,0,0,0,7.86,11,48.22,48.22,0,0,0,14,10.68a2,2,0,0,0,1.39-1.39,21,21,0,0,0,.32-3.78A20.14,20.14,0,0,0,15.39,1.72ZM6.11,7.86V3.14L10.2,5.5Z"/></g></g></svg>