<svg xmlns="http://www.w3.org/2000/svg" viewBox="0 0 12 12"><defs><style>.cls-1{fill:#fff;}</style></defs><g id="Capa_2" data-name="Capa 2"><g id="Capa_1-2" data-name="Capa 1"><g id="Ig"><path class="cls-1" d="M12,3.53a4.39,4.39,0,0,0-.28-1.46A2.89,2.89,0,0,0,11,1,2.86,2.86,0,0,0,9.93.32,4.38,4.38,0,0,0,8.48,0C7.83,0,7.63,0,6,0S4.17,0,3.53,0A4.42,4.42,0,0,0,2.07.31,3,3,0,0,0,1,1,2.86,2.86,0,0,0,.32,2.07,4.39,4.39,0,0,0,0,3.53C0,4.17,0,4.37,0,6S0,7.83,0,8.47A4.42,4.42,0,0,0,.31,9.93,3,3,0,0,0,1,11a2.89,2.89,0,0,0,1.06.7A4.42,4.42,0,0,0,3.53,12c.64,0,.84,0,2.47,0s1.83,0,2.47,0a4.42,4.42,0,0,0,1.46-.27,3.09,3.09,0,0,0,1.75-1.76A4.39,4.39,0,0,0,12,8.47c0-.64,0-.84,0-2.47S12,4.17,12,3.53Zm-1.08,4.9a3.43,3.43,0,0,1-.21,1.11,2,2,0,0,1-1.14,1.14,3.43,3.43,0,0,1-1.11.21c-.64,0-.83,0-2.43,0s-1.79,0-2.42,0a3.37,3.37,0,0,1-1.11-.21,1.88,1.88,0,0,1-.69-.45,1.88,1.88,0,0,1-.45-.69,3.43,3.43,0,0,1-.21-1.11c0-.63,0-.82,0-2.42s0-1.8,0-2.43a3.43,3.43,0,0,1,.21-1.11,1.88,1.88,0,0,1,.45-.69,1.88,1.88,0,0,1,.69-.45,3.24,3.24,0,0,1,1.11-.2c.63,0,.82,0,2.43,0s1.79,0,2.42,0a3.18,3.18,0,0,1,1.11.2,1.88,1.88,0,0,1,.69.45,1.88,1.88,0,0,1,.45.69,3.43,3.43,0,0,1,.21,1.11c0,.63,0,.82,0,2.43S10.91,7.79,10.89,8.43Z"/><path class="cls-1" d="M6,2.92A3.08,3.08,0,1,0,9.08,6,3.08,3.08,0,0,0,6,2.92ZM6,8A2,2,0,1,1,8,6,2,2,0,0,1,6,8Z"/><path class="cls-1" d="M9.93,2.8a.72.72,0,1,1-1.44,0,.72.72,0,0,1,1.44,0Z"/></g></g></g></svg>