<svg xmlns="http://www.w3.org/2000/svg" viewBox="0 0 226.45 175.49"><defs><style>.cls-1{font-size:26px;fill:#232323;font-family:OpenSans-Semibold, Open Sans;font-weight:600;letter-spacing:0.08em;}.cls-2{fill:#678d58;}</style></defs><g id="Capa_2" data-name="Capa 2"><g id="OBJECT"><text class="cls-1" transform="translate(0 168.15)">GARDEN HOUSE</text><path class="cls-2" d="M171.44,48.57V31.11c0-3.76-3.05-2.81-6.81-2.81h-.2c-3.75,0-6.8-.95-6.8,2.81v6.22L111.76,0l-70,59a71.63,71.63,0,0,0,49.45,65.22V101.67a32.29,32.29,0,0,1-21.09-9.16C63,85.37,60.09,75.34,61.1,64.85c10.48-1,20.51,1.91,27.66,9.06s10.07,17.17,9.06,27.66V126A71.8,71.8,0,0,0,110,127.61V80.93c-6.17-6.31-9.86-14.27-9.86-22.93,0-10.11,5-19.27,13.14-26,8.13,6.69,13.16,15.85,13.16,26,0,8.66-3.7,16.62-9.87,22.94v46.67A71.8,71.8,0,0,0,128.77,126V101.57c-1-10.49,1.91-20.51,9.06-27.66S155,63.84,165.48,64.85c1,10.49-1.9,20.52-9.06,27.66a32.24,32.24,0,0,1-21.07,9.16v22.58a71.65,71.65,0,0,0,49.42-64.83Zm-78,19.32a32.33,32.33,0,0,0-13.63-8,22.71,22.71,0,0,1,.21-15.54,22.72,22.72,0,0,1,14.11,7.36,31.63,31.63,0,0,0-.71,6.68A32,32,0,0,0,96,70.76,32.78,32.78,0,0,0,93.47,67.89Zm53.28-8a32.37,32.37,0,0,0-13.64,8,32.78,32.78,0,0,0-2.54,2.87,31.46,31.46,0,0,0,1.86-19.1,22.75,22.75,0,0,1,14.11-7.36A22.82,22.82,0,0,1,146.75,59.84Z"/></g></g></svg>