<svg xmlns="http://www.w3.org/2000/svg" viewBox="0 0 347.84 199.49"><defs><style>.cls-1{font-size:44px;font-family:OpenSans-Semibold, Open Sans;font-weight:600;letter-spacing:0.01em;}.cls-1,.cls-2{fill:#fff;}</style></defs><g id="Capa_2" data-name="Capa 2"><g id="OBJECT"><text class="cls-1" transform="translate(0 187.07)">GARDEN HOUSE</text><path class="cls-2" d="M232.07,48.57V31.11c0-3.76-3-2.81-6.81-2.81h-.19c-3.75,0-6.8-.95-6.8,2.81v6.22L172.4,0l-70,59a71.62,71.62,0,0,0,49.44,65.22V101.67a32.33,32.33,0,0,1-21.09-9.16c-7.14-7.14-10.07-17.17-9-27.66,10.48-1,20.5,1.91,27.66,9.06s10.07,17.17,9,27.66V126a71.8,71.8,0,0,0,12.19,1.57V80.93c-6.17-6.31-9.86-14.27-9.86-22.93,0-10.11,5-19.27,13.15-26,8.13,6.69,13.15,15.85,13.15,26,0,8.66-3.69,16.62-9.86,22.94v46.67A71.93,71.93,0,0,0,189.41,126V101.57c-1-10.49,1.91-20.51,9.06-27.66s17.17-10.07,27.65-9.06c1,10.49-1.91,20.52-9.06,27.66A32.26,32.26,0,0,1,196,101.67v22.58A71.62,71.62,0,0,0,245.4,59.42Zm-78,19.32a32.33,32.33,0,0,0-13.63-8,22.77,22.77,0,0,1,.22-15.54,22.75,22.75,0,0,1,14.11,7.36,31.63,31.63,0,0,0-.71,6.68,32,32,0,0,0,2.56,12.42A32.89,32.89,0,0,0,154.1,67.89Zm53.28-8a32.39,32.39,0,0,0-13.63,8,31.22,31.22,0,0,0-2.54,2.87,31.31,31.31,0,0,0,1.85-19.1,22.75,22.75,0,0,1,14.12-7.36A22.88,22.88,0,0,1,207.38,59.84Z"/></g></g></svg>