<svg xmlns="http://www.w3.org/2000/svg" viewBox="0 0 423.25 436.91"><defs><style>.cls-1{fill:#2c2a24;}.cls-2{fill:#98c487;}</style></defs><g id="Capa_2" data-name="Capa 2"><g id="mail-message"><path class="cls-1" d="M177.49,436.91c-56,0-107.06-29.52-140.08-81a13.65,13.65,0,0,1,23-14.74c25.13,39.18,62.29,63.3,103.44,67.69v-81.2H138.19a42.67,42.67,0,0,1-42.62-42.61V151.84a42.67,42.67,0,0,1,42.62-42.61h25.65V28C85.11,36.24,27.31,115.36,27.31,218.45c0,29.71,4.61,57.66,13.72,83.06a13.65,13.65,0,0,1-25.71,9.21C5.16,282.35,0,251.31,0,218.45,0,93.92,76.31,0,177.49,0a13.65,13.65,0,0,1,13.66,13.65V122.88a13.64,13.64,0,0,1-13.66,13.65h-39.3a15.33,15.33,0,0,0-15.31,15.31V285.07a15.32,15.32,0,0,0,15.31,15.3h39.3A13.65,13.65,0,0,1,191.15,314V423.25A13.65,13.65,0,0,1,177.49,436.91Z"/><path class="cls-2" d="M423.25,211.63a61.29,61.29,0,0,0-54.61-60.75v-28A13.64,13.64,0,0,0,355,109.23H314a13.64,13.64,0,0,0-13.66,13.65v4l-113.8,40.46a13.66,13.66,0,0,0-9.08,12.87V243a13.65,13.65,0,0,0,9.08,12.86l26.43,9.4c0,.08,0,.16.07.23l34.13,68.27a13.65,13.65,0,0,0,24.42-12.21l-21.55-43.1,50.3,17.88v4A13.65,13.65,0,0,0,314,314h41a13.65,13.65,0,0,0,13.65-13.66v-28C399.28,268.93,423.25,243.17,423.25,211.63ZM204.8,233.39V189.87l95.57-34V267.37Zm136.53,53.33H327.68V136.53h13.65Zm27.31-41.65V178.18a34.13,34.13,0,0,1,0,66.89Z"/></g></g></svg>