<svg xmlns="http://www.w3.org/2000/svg" viewBox="0 0 351 351"><defs><style>.cls-1{isolation:isolate;}.cls-2{fill:#f29786;}.cls-3,.cls-8{fill:none;stroke-linecap:round;}.cls-3{stroke:#fff;stroke-width:2px;}.cls-3,.cls-7,.cls-8,.cls-9{stroke-miterlimit:10;}.cls-4,.cls-5,.cls-6{fill:#7c7671;}.cls-5{opacity:0.47;}.cls-5,.cls-6{mix-blend-mode:multiply;}.cls-6{opacity:0.69;}.cls-7{fill:#474340;stroke:#7c7671;}.cls-8{stroke:#efe8ca;stroke-width:3px;}.cls-9{fill:#bf7949;stroke:#bf7949;}.cls-10{fill:#4f7f36;}.cls-11{fill:#78ad5c;}.cls-12{fill:#2d5e2d;}.cls-13{fill:#437039;}.cls-14{fill:#79a836;}.cls-15{opacity:0.74;}.cls-16{fill:#fff;}</style></defs><g class="cls-1"><g id="Capa_2" data-name="Capa 2"><g id="OBJECTS"><circle class="cls-2" cx="175.5" cy="175.5" r="175.5"/><path class="cls-3" d="M151,259.16c11.76-71.88,20.12-143.09,30.69-215.72"/><path class="cls-3" d="M212.93,273.11q-6.78-59-14.64-117.48c-5.1-37.91-13.19-73.39-16.64-112.19"/><path class="cls-4" d="M210.72,312.66c-5.91,6.86-16.2,9.6-31.47,9.6s-29-5.75-31.47-9.6c-14.05-24.25-10.32-41.73,0-58.16h62.94C221.54,275.77,223.89,291.49,210.72,312.66Z"/><path class="cls-5" d="M203.57,318c-1,0-3.48,1.75-4.62,2.11a44.17,44.17,0,0,1-5.57,1.31,81.2,81.2,0,0,1-14.1,1.05c-15.27,0-29-5.75-31.47-9.61-14.05-24.25-10.33-41.72,0-58.16h41c7.27,0,14.69.29,21.91,0,1.17,2,1.56,4.83.36,6.86a11.21,11.21,0,0,1-3.93,3.59c-10.06,6.3-22.23,8-34,9.57A107.49,107.49,0,0,0,212,271.66c1.79-.48,3.69-1.09,4.82-2.56-1.78,2.33,2.72,4.75-1.69,6.84-4.84,2.29-10.13,3.38-15.4,4.28-12.64,2.17-25.62,2.42-38.44,2.66.76,0,3.38,9.59,4,10.9a66.58,66.58,0,0,0,6.57,11C179.6,315.69,191,317.81,203.57,318Z"/><path class="cls-6" d="M210.81,312.72c-1.79,2.61-4,4.69-6.5,4.08,4-3,6.6-7.58,6.22-12.71a14.24,14.24,0,0,0-8.1-11.68q4,6.55,8.06,13.13a41.7,41.7,0,0,1-16.12-23c1,6.92,1.44,14.05-.12,20.88s-5.29,13.37-11.18,17.17c8.3-13,8.39-30.13,2.36-44.29-2-4.77-4.74-9.4-5.32-14.55-5.5,4-9.34,9.89-11.82,16.2s-3.7,13-4.75,19.73q-.73-8.07-1.45-16.15a34.45,34.45,0,0,1-16.87,17.24c9.14-9.2,11.85-23,19.65-33.4-6.51,7.64-16.07,15-26,17.49.16-5.09.49-9.69,2.17-14.65.6-1.77,4.8-13.7,6.72-13.7h62.94c5.37,10.55,9.93,22.1,8.85,34.16a43.47,43.47,0,0,1-1.56,8.23c-.36,1.26-2.61,4.58-2.48,5.77q-.89-7.85-1.79-15.68c-.32-2.88-.68-5.84-2.07-8.38-1.93-3.51-5.54-5.71-9-7.74a46.54,46.54,0,0,0,8.86,11.22,31,31,0,0,1-11.31-10.84A94.21,94.21,0,0,0,207,283.93c2.17,3.43,4.59,6.75,6.1,10.51A19.19,19.19,0,0,1,210.81,312.72Z"/><ellipse class="cls-7" cx="179.25" cy="254.53" rx="31.47" ry="6.74"/><path class="cls-8" d="M140.27,267c3.13,3.54,8.62,3.81,12.75,4.6a124.81,124.81,0,0,0,15.37,1.91,195.69,195.69,0,0,0,27.5.37,92.52,92.52,0,0,0,12.3-1.45c3.87-.81,8.67-1.59,12-4.19"/><path class="cls-3" d="M139.58,267c1.95-19.46,7.13-36.14,9.67-54.49,8.4-60.55,20.56-112.87,32.4-169,12,74.87,26.77,150.6,37.41,226.4"/><path class="cls-3" d="M177.56,29.23c-4.39-1-4.41-6.08-2-8.79a6.07,6.07,0,0,1,8.59-.58,6.48,6.48,0,0,1,.92,8.85c-.72,1-1.69,1.79-2.34,2.81A10.54,10.54,0,0,0,181.5,37,79.69,79.69,0,0,0,182,48.6"/><path class="cls-9" d="M179.92,43.41a.72.72,0,0,1-.43-1.19,2.39,2.39,0,0,1,1.55-.59c.19,0,.47.14.32.24.9-1.26,2.72.7,1.89,1.79-.1.13-.23.26-.21.42s.25.29.43.4a1.75,1.75,0,0,1,.68,2,5.3,5.3,0,0,1-1.18,1.9,1.13,1.13,0,0,1,1,1.4,2,2,0,0,1-1.56,1.18,6.43,6.43,0,0,1-2.14-.08c-.62-.1-1.34-.27-1.61-.78-.41-.77.48-1.56,1.26-2.05a1.23,1.23,0,0,1-1.11-1.15A1.25,1.25,0,0,1,180,45.73C179.64,45.39,178.36,43.39,179.92,43.41Z"/><path class="cls-10" d="M138.47,250.16c-10.29,2.6-19.1,9.21-26.88,16.44a162,162,0,0,0-26.31,31.6,91.58,91.58,0,0,1,13-22.57c7.78-9.92,17.7-18.38,29.24-23.56,12-5.38,27.12-8,39.11-.89a37.52,37.52,0,0,0-15.76-5c-13.64-1.23-26.77,4.42-38.11,11.53a94.5,94.5,0,0,0-29,28.6c8.37-12.91,18.55-24.95,31.54-33.2a64,64,0,0,1,28.22-9.94,51.7,51.7,0,0,1,15.2.86c4.72,1,7,2.49,11.18,4.89-8.83-14.22-22.5-30.08-40.15-32.44-14-1.87-28,7.1-34.5,19.57,5-12.28,15.14-23.88,28.37-25,7.05-.6,14,1.86,20.28,5.18,12.35,6.55,23,16.87,28.36,29.77-1.66-11.75-13.86-23.12-23.33-29.13a70.29,70.29,0,0,0-33.61-10.49,60.46,60.46,0,0,1,61.8,33.94c-5-14.1-12.78-27.62-26.31-34.92-14.09-7.59-31.45-8.14-46.54-2.83s-27.94,16.13-37,29.28C69.46,224.51,75,218.57,81,213.68c12.66-10.35,28.42-17.2,44.75-17.89s33.13,5.14,44.52,16.86c-8-12.75-23-20.08-38-21.34s-30,2.9-43.74,9.15a73.9,73.9,0,0,1,35.17-13.79c13.73-1.57,28.51,1.13,39,10.1,7.28,6.21,12,15,14.91,24.08s4,18.69,5.2,28.19c.78-16.5-4-33-12.32-47.28s-19.95-26.42-33-36.52c14.48,2.78,26.11,14.21,32.85,27.33s9.37,27.89,11.9,42.42A165.24,165.24,0,0,0,154,158.84c7.9,7.5,15.19,15.8,20.27,25.42,10.16,19.22,10.73,41.89,11.07,63.63.2-14,2.17-28.15,7.77-41s15.11-24.27,27.68-30.4c-12.23,13.76-23.6,29.24-27.29,47.28a61.38,61.38,0,0,1,73.11-41.46c-15.61.44-31.37,3.52-45.16,10.87S196,212.46,190.66,227.16a68.46,68.46,0,0,1,55.54-28.33c-12.57,3.72-25.25,7.62-36.43,14.45s-20.88,17-24.44,29.62a53.51,53.51,0,0,1,44.61-28,74.93,74.93,0,0,0-35.35,23.66c5.17-5.29,11-10.19,17.88-12.87s15.06-2.89,21.44.86c11.51,6.79,14.05,23.88,26,29.86-7-4.62-12.8-10.91-19.29-16.28S226.43,230.21,218,230c-8.75-.2-17.23,4.66-22.26,11.81A23.83,23.83,0,0,0,192.1,251c-.34,1.65-.58,3.31-.87,5-.17,1-.15,3.17-.91,3.86a3.29,3.29,0,0,1-1.64.62,35.83,35.83,0,0,1-5.07.39,65.6,65.6,0,0,1-8.86-.48c-1.14-.14-2.27-.31-3.4-.48a4,4,0,0,1-1.61-.49c-.84-.57-1.46-2.33-2.31-3.16a24.46,24.46,0,0,0-3.49-2.84,26,26,0,0,0-8-3.52A35.71,35.71,0,0,0,138.47,250.16Z"/><path class="cls-10" d="M145.91,233.49c-9-2.84-18.88-1.76-24.92,6.63a31.75,31.75,0,0,0-4.82,11.78,59.77,59.77,0,0,0,.63,28.2,35.65,35.65,0,0,1-5.62-23.67c.66-5.49,2.65-11.65,6.06-16,2.68-3.44,8.88-9.28,13.31-10.15A28.16,28.16,0,0,0,115.22,239c-4.45,4.92-6,10.57-7.32,16.89-1.18,5.9-3.45,15.52-.47,21.26A32.62,32.62,0,0,1,111,242.29a33.94,33.94,0,0,0-10.09,19c-1.88-6.84,1.15-14.24,5.81-19.59C116,231,135,225.43,148.07,231.23a44.2,44.2,0,0,1,16.27,12.53,46.86,46.86,0,0,1,5.6,8.67c.89,1.77,2.66,7.42,4.84,8-4-1.13-5.45-5.41-7.36-8.65a49.45,49.45,0,0,0-7.66-10A35,35,0,0,0,145.91,233.49Z"/><path class="cls-11" d="M196.26,229.28q-3.34,8-6,16.22c-.42,1.29-3.95,15.27-4.14,15.27h-5.5c.56-7-1.55-14.54-3.48-21.25A91.93,91.93,0,0,0,119,177.25c10.54-1.42,21,3.75,29.06,10.67,18.15,15.52,29,36.82,33.49,60.13-1.11-12.93-3.14-26.91-6.68-39.4-5.18-18.28-16.23-34.32-28.12-49.14,9,4.13,16.11,11.66,21.07,20.22s7.94,18.11,10.24,27.73A228.76,228.76,0,0,1,184,248.13l-2.25-52.44c-.47-11-.94-22-.33-32.93a522.58,522.58,0,0,1,3.67,61c0,3.52,0,7.09,1,10.46a94.89,94.89,0,0,1,14.75-55.61c-5.68,22.14-11.38,44.38-13.72,67.12,1.63-30.16,20.39-58.81,47.39-72.35-22.14,20.28-39.67,42.07-46.88,71.7,3.26-13.39,8-27.28,17.93-37.43,9.55-9.81,23.29-16.66,36.63-19.35-3.47.7-7.53,3.7-10.64,5.39-3.88,2.12-7.69,4.37-11.37,6.81-5.14,3.4-10.51,6.42-14.69,11s-6.64,11.6-9.1,17.45Z"/><path class="cls-11" d="M156.45,257.26c-3.07,4.68-5.36,10.25-9.38,13.51a18.17,18.17,0,0,1-17.09,3c4.18,1.3,7.82,3.6,12.26,2.69,8.93-1.84,12.15-8.53,16.69-15.59a36.57,36.57,0,0,1,8.23-9.05,14.42,14.42,0,0,1,7.27-3.4c2.7-.26,5.69,1,6.75,3.49-3.58-1.11-7.47.61-10.37,3-12.14,9.88-11.4,29.12-15.54,42.92,2.88-9.55,5.86-19.21,10.66-28,3.5-6.41,11.58-20.07,20.77-13.47-1.57-4.86-5.17-10.65-10.78-11-6-.36-12.31,3.87-16.31,7.89A25.13,25.13,0,0,0,156.45,257.26Z"/><path class="cls-10" d="M176.82,258.61c4.09-4.57,8.08-9.14,14.1-10.8a32.51,32.51,0,0,1,20.12.92,56,56,0,0,1,16.61,10.66c9.13,8.27,15.59,19.13,20.37,30.48,2.58,6.12,5.32,13.09,11.46,15.6-2.76.38-5.32-1.43-7.39-3.31-8.72-8-14.27-18.69-21-28.38s-15.61-19-27.17-21.32a20.05,20.05,0,0,1,8,6.52,39.7,39.7,0,0,1,4.36,41.3c-1.67,3.37-3.83,6.52-5,10.09s-1.19,7.83,1.19,10.74c-3.68-3.93-4.42-9.84-3.67-15.17s2.77-10.4,3.93-15.66a49.38,49.38,0,0,0,.74-16.84c-.8-6.18-3.05-12.58-8-16.35-4-3-9.37-4-14.39-3.37S181.31,256.31,176.82,258.61Z"/><path class="cls-12" d="M198.3,271.52c2.49,8.69,6.7,19.12,15.37,23.43,5,2.46,10.82,2.07,16.31,1.32-5,.69-8.57,2.71-14,1.46a24.69,24.69,0,0,1-12.64-7.63c-6.23-7.12-10.08-17.11-13.14-25.92-.65-1.87-1.63-6.4-4.33-6.16a3.27,3.27,0,0,0-2.09,1.3c-.17.21-.84,1.73-.91,1.73l-6.28-.27a.7.7,0,0,1-.38-.1,7.36,7.36,0,0,1-.21-2.49,7.71,7.71,0,0,1,.57-2.63,8,8,0,0,1,3-3.69,8.84,8.84,0,0,1,9.33-.11c4.7,2.76,6.32,8.64,7.79,13.9C197.2,267.55,197.73,269.52,198.3,271.52Z"/><path class="cls-13" d="M188.58,277.22c3,7.81,6.71,15.7,6.55,24.07-.13,6.74-2.79,13.19-6,19.13,6-3.34,9.23-10.39,9.63-17.24s-1.58-13.62-3.83-20.11c-3.35-9.68-9.48-22.58-2.4-32.08a1.33,1.33,0,0,0,.36-.79.92.92,0,0,0-.15-.43c-.89-1.62-3.3-1.86-4.87-.88a7.43,7.43,0,0,0-2.89,4.58C183,261,185.85,270.16,188.58,277.22Z"/><path class="cls-13" d="M200.28,236c5.23-2.87,11.26-4,16.8-1,5.29,2.9,8.56,8.45,13.32,12.17A23.33,23.33,0,0,0,246.52,252a23.46,23.46,0,0,1-17.44-2.23c-5.24-3-9.37-7.56-14.52-10.67-4.86-3-10.41-.89-15.12,1.92-5.65,3.39-9.57,9-15.82,11.33-.78.28-2,.32-2.12-.51,4.9-2.22,8-7,11.92-10.73A33.57,33.57,0,0,1,200.28,236Z"/><path class="cls-14" d="M139.53,248.5c-1,.73-2,1.52-2.91,2.33-7.14,6.17-7.68,13.39-9.69,21.95a34.77,34.77,0,0,1,21-24.06A34.33,34.33,0,0,1,165.5,247c7.54,1.18,11.94,6,17.58,10.69a1.61,1.61,0,0,0,.39.27c.66.31,1.37-.26,1.92-.74,3.72-3.35,8.83-4.29,13.34-6.13,2.67-1.1,12.23-5.79,14.94-4.51a19.47,19.47,0,0,0-22.62,5c1.61-4.36,4.53-8.1,7.44-11.72q6.57-8.18,13.4-16.13a52.71,52.71,0,0,0-24.18,28.08q9.22-26.34,17.61-53a109.65,109.65,0,0,0-18.15,51.91c2.26-10.31,4.54-20.78,4-31.32-.39-7-2-13.91-2.63-20.91a76.13,76.13,0,0,1,2.47-26.1c-5.4,9.89-5.24,21.79-4.37,33,.63,8.17,1.57,16.42.73,24.62-.39,3.78-1.6,7.39-1.86,11.15a89.92,89.92,0,0,0,.33,12.28A46,46,0,0,0,180,233.27c-2.82-5-8.78-8.89-13.76-11.64-12.35-6.81-27.39-8-41.06-4.49,12.71-1.62,26.12-1,37.56,4.8s20.48,17.41,20.49,30.22c-3.57-7.38-7.48-15.17-14.47-19.45a24.38,24.38,0,0,0-18.65-2.49,31.81,31.81,0,0,0-16,10.34c8.13-5.45,18.51-7.8,28-5.39s17.76,9.88,20.22,19.35a29.62,29.62,0,0,0-22.1-12.78C152.38,241.17,145.56,244,139.53,248.5Z"/><path class="cls-11" d="M169.45,240.45c-5.2,1.26-9.57,4.77-13.34,8.58s-7.16,8-11.39,11.29c-2.49,1.92-5.24,3.5-7.5,5.67,9.3-3.42,16.45-10.91,24.94-16,4.14-2.51,8.82-4.49,13.67-4.3s9.57,2.88,11.27,7.46C185.34,244.33,179.07,238.12,169.45,240.45Z"/><path class="cls-11" d="M201.6,237.53c6.91-4.82,15.88-2.65,22.92.86,5.51,2.75,10.75,6.26,16.73,7.73a26.49,26.49,0,0,0,18.69-2.39c-3.52,1.4-7.15,2.81-10.94,2.78-7.1,0-13.06-5-18.55-9.56-7.55-6.23-15.82-10.87-25-5.38-7.6,4.55-14.21,13-15.31,22.05,1.25-10.24,3.1-21.25,11.33-28.22a31.15,31.15,0,0,1,20.13-7.3c3.71,0,7.42.71,11.12.45,4.12-.28,8.05-1.73,11.92-3.16,3.05-1.12,6.24-2.35,8.31-4.84-4.44,3.33-10.21,4.35-15.77,4.45s-11.1-.59-16.64-.23a43.79,43.79,0,0,0-18.37,5.41c-5.12,2.85-9.79,6.92-12.2,12.27-3.51,7.8-1.75,18.58-1.12,26.89-.22-2.85,2.73-8.41,3.77-11.28C194.12,243.87,198,240,201.6,237.53Z"/><path class="cls-14" d="M134,203.78c-8.39.37-16.24,3.95-24.17,6.73s-16.7,4.78-24.62,2c3.24.74,6.64.15,9.86-.69,12.83-3.34,24.68-10.73,37.91-11.5a49.18,49.18,0,0,1,19.76,3.29c14.09,5.16,23.83,15.68,27.5,30.3,1.87,7.47,2.31,15.2,2.73,22.89-.41-7.5-2.65-15.33-4.95-22.43-2.07-6.41-4-9.21-8.72-13.58C159.38,211.61,148.31,203.15,134,203.78Z"/><path class="cls-13" d="M160.89,231.75c-7-2.15-14.6-.41-21.91-1.12a32.84,32.84,0,0,1-20.34-9.9,68.56,68.56,0,0,0,26,7.23c5.17.37,10.42.17,15.44,1.42,10.65,2.66,22.22,14.79,20.43,26.56-2.19-3-2.85-7.57-4.58-11C172.9,239,167.4,233.73,160.89,231.75Z"/><path class="cls-12" d="M252.79,201.52c-11.37-3.8-23.58-1.8-34.28,3.23a87.36,87.36,0,0,0-18,11.72,43.7,43.7,0,0,0-7,7.19c-1.85,2.38-5,5.73-5.8,8.67,3-10.73,2.15-22.54,3.18-33.58.93-10,2.67-20.14,6.51-29.46,2-4.95,4.75-12.17,8.37-16.18a72.72,72.72,0,0,0-15.88,29c-3.16,11.25-2.18,22.72-2.36,34.31-.11,6.28-.3,13.8-3.37,19.46,1.57-16.5-1.4-34.53-5.52-50.51a78,78,0,0,0-7.1-19c-3.33-5.89-8-11.17-13.89-14.44,4.85,5.6,9.55,11.44,12.73,18.13,4.56,9.56,7,20.7,8.89,31.06a219.22,219.22,0,0,1,3.66,34.1A75.36,75.36,0,0,0,175.69,214c-9.29-17.31-28-27.65-39-43.92a110.25,110.25,0,0,0,9.07,12.86c6.8,7.93,15.76,13.85,22.15,22.11,4.3,5.58,7.3,12.05,9.9,18.6,2.88,7.21,4,14.33,4.58,22,1.9-6.59,6.08-12.27,10.55-17.47,3-3.42,6.51-6.29,9.78-9.42a57.74,57.74,0,0,1,11.37-8.46,53,53,0,0,1,27.46-7.06,48.13,48.13,0,0,1,20.45,5.3c6.17,3.15,9.24,9.14,10.64,15.79a52.66,52.66,0,0,1,.61,15.25,12.64,12.64,0,0,0,1-5.36,58.58,58.58,0,0,0-.43-12.49C271.93,210.74,262.75,204.85,252.79,201.52Z"/><path class="cls-14" d="M180.71,246.57c-1.78-2.19-4.67-1.09-6.6.44a18,18,0,0,0-5.79,8,32.17,32.17,0,0,0-1.48,9.67q-.28,7.3.15,14.6a52.06,52.06,0,0,1-.51-24.35,20.79,20.79,0,0,1,6-10.93c1.87-1.68,4.37-2.93,6.85-2.52,3.61.61,5.7,4.32,7,7.36A18.36,18.36,0,0,1,192,237.27a7.74,7.74,0,0,1,10.33-.23c2.15,1.94,3,4.89,3.92,7.64,1.7,5.08,4,10.08,7.68,14-2.25-.93-4.58-1.93-6.17-3.76-3.27-3.78-2.47-10-5.84-13.64a7.82,7.82,0,0,0-7.85-2.14c-4.16,1.26-5.47,5.45-6.56,9.18-.61,2.08-.55,4.31-1.14,6.43-.12.45-2.07,6.39-1.84,6.42l-2.57-.3a22.41,22.41,0,0,0-.08-11.58,7.06,7.06,0,0,0-1-2.44A1.89,1.89,0,0,0,180.71,246.57Z"/><path class="cls-11" d="M197.15,249.77c1.86,3.89,2.71,8.18,4.4,12.15s4.52,7.79,8.65,9c-4.34-.69-7.91-3.95-10.24-7.68s-3.68-8-5.38-12.05c-.89-2.12-2.22-4.46-4.49-4.81a1.65,1.65,0,0,0-1.16.18,2,2,0,0,0-.61.77,18.72,18.72,0,0,0-2.21,8.18c-1.14-3.57-1.56-15,5.13-13C194.05,243.28,196,247.35,197.15,249.77Z"/><g class="cls-15"><path class="cls-16" d="M181.71,174.63c.32,2.38.53,4.77.72,7.15s.34,4.77.47,7.16.2,4.78.23,7.17l0,3.59c0,1.2,0,2.4-.07,3.6-.17-1.19-.28-2.38-.42-3.57l-.31-3.58c-.21-2.38-.33-4.77-.46-7.16s-.21-4.78-.23-7.17S181.62,177,181.71,174.63Z"/><path class="cls-16" d="M186.77,194.5a9.84,9.84,0,0,1,.33-6.22,10,10,0,0,1-.33,6.22Z"/><path class="cls-16" d="M166.85,175.79a43.6,43.6,0,0,1,4.53,6.41,48.81,48.81,0,0,1,3.42,7.1,48.19,48.19,0,0,1,2.25,7.55l.36,1.93.3,1.95c.14,1.3.27,2.6.3,3.91-.13-.64-.26-1.28-.37-1.92l-.41-1.91-.43-1.9-.5-1.88a75.63,75.63,0,0,0-2.43-7.37,77.32,77.32,0,0,0-3.16-7.09C169.53,180.26,168.22,178,166.85,175.79Z"/><path class="cls-16" d="M171.78,213.31a5.74,5.74,0,0,1,2.32,4.06,5.65,5.65,0,0,1-2.32-4.06Z"/><path class="cls-16" d="M183.5,251.67a5.67,5.67,0,0,1-.19,5.92,19.76,19.76,0,0,1-.06-3A20.62,20.62,0,0,1,183.5,251.67Z"/><path class="cls-16" d="M183.51,237.9a146.72,146.72,0,0,1,16.09-18.52,75.35,75.35,0,0,1,20.16-14,49.23,49.23,0,0,1,24-4.67,46.44,46.44,0,0,1,6.11.93,42.23,42.23,0,0,1,5.89,1.83,39.81,39.81,0,0,1,5.49,2.78,35.25,35.25,0,0,1,4.88,3.71,35.39,35.39,0,0,0-10.55-6,44.12,44.12,0,0,0-5.84-1.66,45.42,45.42,0,0,0-6-.78,49.25,49.25,0,0,0-23.56,4.81,76.82,76.82,0,0,0-20.06,13.65c-3,2.75-5.86,5.67-8.6,8.69S186.13,234.76,183.51,237.9Z"/><path class="cls-16" d="M187.05,230a146.76,146.76,0,0,0,1.35-16.74c.2-5.6.34-11.21.73-16.82a87.09,87.09,0,0,1,2.78-16.65,55.32,55.32,0,0,1,2.94-7.92,40,40,0,0,1,4.36-7.21A50.87,50.87,0,0,0,192.65,180a93,93,0,0,0-2.53,16.53c-.47,5.57-.59,11.17-1,16.78-.19,2.8-.4,5.6-.72,8.39S187.68,227.27,187.05,230Z"/><path class="cls-16" d="M193.47,214.4a47.84,47.84,0,0,1,2.59-8.14,53.64,53.64,0,0,1,3.92-7.61,52.78,52.78,0,0,1,5.1-6.88l1.44-1.58,1.5-1.52c1-1,2.09-1.93,3.21-2.81-.48.52-1,1-1.45,1.55l-1.41,1.6-1.38,1.6-1.32,1.65a80.21,80.21,0,0,0-4.84,6.92,78,78,0,0,0-4.07,7.4C195.53,209.12,194.46,211.73,193.47,214.4Z"/><path class="cls-16" d="M206.23,201.4a42.41,42.41,0,0,1,3.6-6.31,49.37,49.37,0,0,1,9.87-10.67c1-.75,1.93-1.47,2.92-2.17s2-1.32,3.1-1.9q-.69.59-1.41,1.14l-1.39,1.15c-.92.77-1.83,1.56-2.72,2.37-1.76,1.62-3.48,3.29-5.1,5.06s-3.17,3.59-4.65,5.47S207.59,199.4,206.23,201.4Z"/><path class="cls-16" d="M216.61,194a54,54,0,0,1,9.21-5.75,60.4,60.4,0,0,1,20.86-6l2.72-.2,2.72-.09,2.72.06,2.71.2c-.91,0-1.81.06-2.71.07l-2.7.16-2.69.22-2.68.34a76.78,76.78,0,0,0-10.51,2.25,77.77,77.77,0,0,0-10.11,3.67A82.17,82.17,0,0,0,216.61,194Z"/><path class="cls-16" d="M152.18,164.2a37.09,37.09,0,0,1,6,5.11,49.22,49.22,0,0,1,4.93,6.19,81.51,81.51,0,0,1,7.32,14c2,4.88,3.78,9.82,5.33,14.85.77,2.52,1.49,5,2.16,7.58s1.27,5.11,1.78,7.68c-.73-2.52-1.45-5-2.25-7.54s-1.57-5-2.42-7.48c-1.7-5-3.49-9.89-5.53-14.71a86.57,86.57,0,0,0-7-14A46.33,46.33,0,0,0,152.18,164.2Z"/><path class="cls-16" d="M164.49,159.6a29.17,29.17,0,0,1,5.55,6.89,51.72,51.72,0,0,1,3.72,8.07c1.05,2.77,1.86,5.61,2.68,8.45s1.53,5.7,2.21,8.58a172.23,172.23,0,0,1,3,17.47c.34,2.93.59,5.87.78,8.82s.26,5.9.26,8.85c-.41-5.89-1-11.75-1.8-17.58s-1.85-11.61-3.19-17.34-2.81-11.43-4.65-17a50.86,50.86,0,0,0-3.42-8.08A30.72,30.72,0,0,0,164.49,159.6Z"/><path class="cls-16" d="M146.33,170.7a34.08,34.08,0,0,1,5.46,3.15,39.92,39.92,0,0,1,4.87,4,39.1,39.1,0,0,1,4.15,4.76c.62.86,1.21,1.73,1.78,2.61s1.06,1.82,1.51,2.77c-.32-.42-.64-.83-.95-1.26l-1-1.23c-.64-.82-1.3-1.62-2-2.41-1.36-1.56-2.76-3.08-4.25-4.52s-3-2.81-4.63-4.14S148,171.92,146.33,170.7Z"/><path class="cls-16" d="M130.13,179.44a54.39,54.39,0,0,1,10,4.72,59.89,59.89,0,0,1,16.65,14.63l1.66,2.23,1.57,2.3,1.43,2.38c.44.81.88,1.62,1.3,2.44-.52-.76-1-1.53-1.53-2.3l-1.61-2.25L158,201.4l-1.75-2.13a77.1,77.1,0,0,0-16.46-14.47A82.93,82.93,0,0,0,130.13,179.44Z"/><path class="cls-16" d="M103.3,210.75c4.14-.4,8-2,11.77-3.67A51,51,0,0,1,126.85,203,79.66,79.66,0,0,1,139.27,202a30.88,30.88,0,0,1,6.28.44,27.16,27.16,0,0,1,6,2,75.78,75.78,0,0,1,10.81,6.23,49.46,49.46,0,0,1,9.36,8.27A34.08,34.08,0,0,1,178,229.66a69.9,69.9,0,0,1,2.9,12.08,76.28,76.28,0,0,0-3.36-11.91,33.51,33.51,0,0,0-6.39-10.43c-5.5-6.1-12.6-10.61-20-14.1a25.74,25.74,0,0,0-5.76-2,30,30,0,0,0-6.08-.48,91.68,91.68,0,0,0-12.3.9,50.69,50.69,0,0,0-11.72,3.76C111.43,209.06,107.46,210.58,103.3,210.75Z"/><path class="cls-16" d="M169.88,249.91a15.53,15.53,0,0,1,2-3.82,9.12,9.12,0,0,1,3.37-2.87,6.13,6.13,0,0,1,4.45-.44,4.51,4.51,0,0,1,3.12,3,5,5,0,0,0-3.31-2.2,6.07,6.07,0,0,0-3.83.58,10.55,10.55,0,0,0-3.2,2.46C171.56,247.61,170.73,248.76,169.88,249.91Z"/><path class="cls-16" d="M187,246.3a4.51,4.51,0,0,1,2.69-2.49,2.94,2.94,0,0,1,2,.13,4.48,4.48,0,0,1,1.55,1.23,26.6,26.6,0,0,1,2,3.15c.61,1.06,1.18,2.15,1.71,3.28a52.6,52.6,0,0,1,2.41,7c.35,1.16.73,2.31,1.19,3.43a20.56,20.56,0,0,0,1.61,3.26,15.58,15.58,0,0,1-2-3.06,36,36,0,0,1-1.47-3.38c-.89-2.3-1.58-4.63-2.6-6.8-.49-1.09-1-2.17-1.62-3.24a35.93,35.93,0,0,0-1.77-3.13,3.72,3.72,0,0,0-1.21-1.13,2.42,2.42,0,0,0-1.59-.23A4.58,4.58,0,0,0,187,246.3Z"/><path class="cls-16" d="M192.69,237.83a8.45,8.45,0,0,1,3.21-1.61,6.78,6.78,0,0,1,3.68.11,5.65,5.65,0,0,1,3,2.26c.68,1.06,1.17,2.11,1.73,3.17a26.46,26.46,0,0,1,1.4,3.34c.36,1.16.67,2.3,1,3.45a15,15,0,0,0,2.92,6.33,9.28,9.28,0,0,1-2.27-2.78,22.92,22.92,0,0,1-1.38-3.33,41,41,0,0,0-2.52-6.56c-.53-1-1.05-2.15-1.63-3.1a5.12,5.12,0,0,0-2.48-2.06A7.84,7.84,0,0,0,192.69,237.83Z"/><path class="cls-16" d="M199.06,248.53a3.24,3.24,0,0,1,1.55-1.47,3.15,3.15,0,0,1,2.11-.3A5.45,5.45,0,0,1,201,248,5.66,5.66,0,0,1,199.06,248.53Z"/><path class="cls-16" d="M203.57,234.34a25.67,25.67,0,0,1,4.54-2,21,21,0,0,1,4.93-.95,14.54,14.54,0,0,1,5,.53,17.82,17.82,0,0,1,4.59,2.14c2.8,1.82,5.43,3.77,8.12,5.68q2,1.46,4,2.85c1.34,1,2.71,1.88,4.07,2.82-1.47-.74-2.9-1.58-4.33-2.4s-2.82-1.74-4.21-2.63-2.76-1.82-4.13-2.73-2.71-1.89-4.09-2.75a18,18,0,0,0-4.33-2.08,15.35,15.35,0,0,0-4.74-.66A26,26,0,0,0,203.57,234.34Z"/><path class="cls-16" d="M216.19,227.12a20.42,20.42,0,0,1,4.55-.68,23,23,0,0,1,4.61.35,21.72,21.72,0,0,1,8.55,3.56,43.32,43.32,0,0,1,6.7,6.33l3.09,3.38c1,1.15,2,2.28,3,3.45-1.14-1-2.24-2.07-3.36-3.11l-3.29-3.18a56.93,56.93,0,0,0-6.72-6.05,23.47,23.47,0,0,0-8.13-3.63,23.14,23.14,0,0,0-4.47-.62A24.7,24.7,0,0,0,216.19,227.12Z"/><path class="cls-16" d="M213.68,237.17a7.94,7.94,0,0,1,3.4.5,13.68,13.68,0,0,1,3,1.7,52.89,52.89,0,0,1,5,4.68,34,34,0,0,0,5.24,4.16,29,29,0,0,0,2.91,1.69c1,.54,2,1,3.07,1.44a23.7,23.7,0,0,1-3.27-1,28.42,28.42,0,0,1-3.11-1.47,26.09,26.09,0,0,1-5.53-4.1c-1.64-1.61-3.09-3.34-4.77-4.8a12.87,12.87,0,0,0-2.75-1.85A8.55,8.55,0,0,0,213.68,237.17Z"/><path class="cls-16" d="M210.43,251.35c2.44.94,4.85,2,7.22,3.09a38.15,38.15,0,0,1,6.7,4.16c4.16,3.31,7.26,7.69,10.07,12.09s5.41,8.95,8.06,13.46l3.94,6.77c1.28,2.28,2.6,4.54,3.85,6.83-1.45-2.18-2.84-4.38-4.27-6.58l-4.18-6.62-8.24-13.33a49.48,49.48,0,0,0-9.72-12,38.13,38.13,0,0,0-6.44-4.32C215.15,253.59,212.78,252.5,210.43,251.35Z"/><path class="cls-16" d="M211.39,261.61a30.62,30.62,0,0,1,4,7.93,34.79,34.79,0,0,1,1.27,17.68l-.49,2.18-.62,2.14-.79,2.09c-.3.67-.62,1.35-.94,2q.33-1.06.69-2.1l.57-2.13.47-2.15.35-2.16a42.73,42.73,0,0,0-1.24-17.33A43.06,43.06,0,0,0,211.39,261.61Z"/><path class="cls-16" d="M212.35,300a23.08,23.08,0,0,1-.68,5,22.47,22.47,0,0,1-1.65,4.77,25.55,25.55,0,0,1,2.33-9.77Z"/><path class="cls-16" d="M206.73,292.12c-.52-.55-1-1.11-1.53-1.67l-1.42-1.77-1.32-1.85-1.23-1.91a57.5,57.5,0,0,1-4.06-8.12,86.66,86.66,0,0,1-3-8.56c-.42-1.44-.83-2.9-1.22-4.35s-.74-2.92-1.05-4.4c.53,1.41,1,2.84,1.52,4.26l1.48,4.26c1,2.82,2,5.65,3.17,8.41a86.93,86.93,0,0,0,3.81,8.12A62.23,62.23,0,0,0,206.73,292.12Z"/><path class="cls-16" d="M187.33,258.78a30.22,30.22,0,0,0-.11,3.68,32,32,0,0,0,.36,3.65,44.64,44.64,0,0,0,1.72,7.11c1.49,4.66,3.49,9.15,5.23,13.78s3.1,9.49,3.1,14.5a25.6,25.6,0,0,1-1,7.38,18.11,18.11,0,0,1-3.55,6.47,18.63,18.63,0,0,0,3.08-6.61,25.08,25.08,0,0,0,.73-7.22,45.1,45.1,0,0,0-3.27-14.18c-1.64-4.61-3.67-9.12-5-13.89a44.33,44.33,0,0,1-1.48-7.28A26.89,26.89,0,0,1,187.33,258.78Z"/><path class="cls-16" d="M175.67,254.07c-1.47,1.25-2.9,2.41-4.24,3.69s-2.58,2.64-3.91,4a12.57,12.57,0,0,1,3.22-4.76A12.74,12.74,0,0,1,175.67,254.07Z"/><path class="cls-16" d="M164.35,268.4c-.56,2.18-1.33,4.25-2.08,6.32s-1.56,4.13-2.56,6.15a27.76,27.76,0,0,1,1.62-6.5A28.14,28.14,0,0,1,164.35,268.4Z"/><path class="cls-16" d="M139.19,275.74a42.21,42.21,0,0,0,7.36-4.74,38.82,38.82,0,0,0,6.11-6.18c1.83-2.24,3.25-4.81,5-7.23a26.52,26.52,0,0,1,2.84-3.43,13.46,13.46,0,0,1,3.63-2.55,14.59,14.59,0,0,0-3.27,2.89,26.15,26.15,0,0,0-2.56,3.52,77.11,77.11,0,0,1-4.83,7.42,32.41,32.41,0,0,1-6.43,6.17A30.59,30.59,0,0,1,139.19,275.74Z"/><path class="cls-16" d="M147.32,259.83c1.79-2,3.65-3.85,5.53-5.72s3.77-3.74,5.81-5.47a37.19,37.19,0,0,1,10.3-6.15,32.29,32.29,0,0,1,3.8-1.22c-1.22.53-2.43,1-3.6,1.66s-2.35,1.21-3.47,1.9a50.57,50.57,0,0,0-6.39,4.58c-2,1.68-3.93,3.51-5.93,5.25S149.39,258.17,147.32,259.83Z"/><path class="cls-16" d="M133.78,256.3a25.35,25.35,0,0,1,4.92-5.42,28.54,28.54,0,0,1,6.23-3.95,28.17,28.17,0,0,1,7-2.24l1.83-.27,1.83-.15h1.83l1.83.13c-.61.06-1.21.1-1.82.14l-1.8.23-1.78.29-1.76.39a36.94,36.94,0,0,0-12.93,6A38.4,38.4,0,0,0,133.78,256.3Z"/><path class="cls-16" d="M147.4,232.77a6.34,6.34,0,0,1,6.63-.56c-1.17.19-2.23.23-3.31.34S148.58,232.75,147.4,232.77Z"/><path class="cls-16" d="M133.05,227.23a27.12,27.12,0,0,0,5.25,1.11,43.25,43.25,0,0,0,5.34.33c3.57,0,7.16-.15,10.79,0A27.3,27.3,0,0,1,165,231.08a18.17,18.17,0,0,1,4.5,3.11,12.76,12.76,0,0,1,3,4.5,14.7,14.7,0,0,0-1.46-2.25,15.1,15.1,0,0,0-1.86-1.89,18,18,0,0,0-4.49-2.77,29.56,29.56,0,0,0-10.34-2.09c-3.56-.2-7.16,0-10.77-.26a44.43,44.43,0,0,1-5.39-.6A24.39,24.39,0,0,1,133.05,227.23Z"/><path class="cls-16" d="M160.39,219.16a32.44,32.44,0,0,1,7.82,3.15,16.16,16.16,0,0,1,6.1,5.79,31.87,31.87,0,0,0-6.61-4.93C165.33,221.78,162.82,220.61,160.39,219.16Z"/><path class="cls-16" d="M102.81,193.18a56,56,0,0,1,8.58-2.84,64.18,64.18,0,0,1,8.93-1.57,65.13,65.13,0,0,1,9.05-.29l2.26.13,2.26.2c1.49.2,3,.4,4.46.7-.75,0-1.5-.07-2.25-.13l-2.25-.08-2.24-.06h-2.25c-3,.05-6,.2-8.94.52s-5.92.76-8.86,1.32S105.71,192.38,102.81,193.18Z"/><path class="cls-16" d="M154.47,202.88A74.19,74.19,0,0,0,134,198.12a71.77,71.77,0,0,0-40.63,8.5,70.06,70.06,0,0,0-8.88,5.69,71.87,71.87,0,0,0-8,6.89,65.55,65.55,0,0,1,7.71-7.28,70.14,70.14,0,0,1,8.8-6A67.68,67.68,0,0,1,134,197.36,66,66,0,0,1,154.47,202.88Z"/><path class="cls-16" d="M108.31,219.68a25.23,25.23,0,0,1,6.07-4.18,28.52,28.52,0,0,1,14.42-2.87l1.85.19,1.82.31,1.79.45c.59.18,1.17.38,1.75.58-.61-.1-1.21-.2-1.8-.32l-1.81-.23-1.81-.16-1.81,0a36.44,36.44,0,0,0-14.08,2.8A36.7,36.7,0,0,0,108.31,219.68Z"/><path class="cls-16" d="M138.79,210.14a22.7,22.7,0,0,1,11.83,4.76c-2.05-.7-4-1.53-6-2.3S140.75,211.05,138.79,210.14Z"/><path class="cls-16" d="M144.47,219a24.3,24.3,0,0,1,11,5.83c-1.95-.82-3.75-1.79-5.58-2.74S146.23,220.17,144.47,219Z"/><path class="cls-16" d="M101.53,252.59a27.35,27.35,0,0,1,2.78-6.11,31.71,31.71,0,0,1,9.22-9.75l1.43-.91,1.46-.83,1.51-.73c.52-.23,1-.44,1.56-.64-.48.3-.95.59-1.43.87l-1.39.92-1.36.94-1.32,1a45.56,45.56,0,0,0-4.87,4.44,46.37,46.37,0,0,0-4.17,5.1A50.28,50.28,0,0,0,101.53,252.59Z"/><path class="cls-16" d="M105.35,259a13.07,13.07,0,0,1,.71-4.69,12.56,12.56,0,0,1,2.25-4.18,44.34,44.34,0,0,1-1.3,4.5A43.32,43.32,0,0,1,105.35,259Z"/><path class="cls-16" d="M113.7,270.6a31.86,31.86,0,0,1-1.13-8.32A36.26,36.26,0,0,1,116.32,246l1-1.86,1.1-1.8,1.22-1.71c.44-.55.88-1.09,1.33-1.62-.36.59-.73,1.19-1.11,1.77l-1,1.81-1,1.84-.86,1.89a47.06,47.06,0,0,0-2.56,7.85,45.87,45.87,0,0,0-1.12,8.18A48.11,48.11,0,0,0,113.7,270.6Z"/><path class="cls-16" d="M91.74,288.05a53.2,53.2,0,0,1,3.55-6.34,61.73,61.73,0,0,1,4.31-5.86,60.86,60.86,0,0,1,5-5.31c.89-.83,1.79-1.64,2.71-2.43s1.88-1.53,2.87-2.23c-.85.87-1.71,1.71-2.54,2.59s-1.68,1.72-2.49,2.61c-1.62,1.77-3.23,3.56-4.75,5.41s-3,3.74-4.45,5.66S93.12,286.06,91.74,288.05Z"/><path class="cls-16" d="M118.77,259a8.76,8.76,0,0,1,2.08-2.32,8.66,8.66,0,0,1,2.7-1.55,9.67,9.67,0,0,1-4.78,3.87Z"/><path class="cls-16" d="M119.67,251.72a48.51,48.51,0,0,1,20-6.5c-3.38,1.05-6.74,2-10.07,3.1S123,250.58,119.67,251.72Z"/><path class="cls-16" d="M190.12,237.2a36.51,36.51,0,0,1,8.08-13,22.5,22.5,0,0,1,6.35-4.44,40.77,40.77,0,0,1,15-3.45,67.64,67.64,0,0,1,7.68.32,66.79,66.79,0,0,0,7.61.31,22.33,22.33,0,0,0,7.44-1.39,21.25,21.25,0,0,1-7.42,1.88,67.84,67.84,0,0,1-7.68,0c-2.55-.1-5.08-.3-7.6-.18a37.09,37.09,0,0,0-7.47,1.08,36.49,36.49,0,0,0-7.19,2.29,23.53,23.53,0,0,0-6.2,4.17,31,31,0,0,0-4.86,5.79A52.7,52.7,0,0,0,190.12,237.2Z"/><path class="cls-16" d="M198.71,231.6a27.18,27.18,0,0,1,16-11.13,65.4,65.4,0,0,0-8.46,4.9A62.64,62.64,0,0,0,198.71,231.6Z"/><path class="cls-16" d="M201.21,233.33a4.8,4.8,0,0,1,1.55-2.11,4.61,4.61,0,0,1,2.38-1.08,8.39,8.39,0,0,1-1.75,1.85A8.61,8.61,0,0,1,201.21,233.33Z"/><path class="cls-16" d="M186.49,241.67a1.3,1.3,0,0,1-.34-1.07,1.26,1.26,0,0,1,.64-.91,1.28,1.28,0,0,1,.35,1.07A1.31,1.31,0,0,1,186.49,241.67Z"/><path class="cls-16" d="M196,219.36a21,21,0,0,1,2.32-7.92,37.07,37.07,0,0,1,4.51-6.9c-1.09,2.54-2.42,4.92-3.61,7.35A66.18,66.18,0,0,0,196,219.36Z"/><path class="cls-16" d="M202.68,213.12a50.47,50.47,0,0,1,5.66-6.56,57.67,57.67,0,0,1,14-10.17l1.95-.95,2-.9c1.34-.53,2.68-1.06,4.06-1.49-.64.33-1.29.64-1.94.95l-1.92,1-1.89,1-1.87,1.06c-2.46,1.46-4.87,3-7.18,4.69s-4.54,3.48-6.69,5.37S204.67,211,202.68,213.12Z"/><path class="cls-16" d="M191,210.88a37.29,37.29,0,0,1,5.53-21.82,91.69,91.69,0,0,0-3.48,10.72A93.16,93.16,0,0,0,191,210.88Z"/></g></g></g></g></svg>