<svg xmlns="http://www.w3.org/2000/svg" viewBox="0 0 351 351"><defs><style>.cls-1{fill:#fbe7ca;}.cls-2{fill:#6e6e6a;}.cls-3{fill:#8a5029;}.cls-4{fill:#bdbdb9;}.cls-5{fill:#006323;}.cls-6{fill:#00430d;}.cls-7{fill:#ffbed1;}.cls-8{fill:#583b49;}.cls-9{fill:#e6c8ce;}.cls-10,.cls-12{fill:none;stroke-linecap:round;stroke-linejoin:round;stroke-width:0;}.cls-10{stroke:#e6c8ce;}.cls-11{fill:#969192;}.cls-12{stroke:#969192;}</style></defs><g id="Capa_2" data-name="Capa 2"><g id="OBJECTS"><circle class="cls-1" cx="175.5" cy="175.5" r="175.5"/><path class="cls-2" d="M111.4,221c0-4.62,29-8.37,64.78-8.37S241,216.34,241,221s-29,8.38-64.78,8.38S111.4,225.59,111.4,221Z"/><path class="cls-3" d="M113.57,222.86a19.56,19.56,0,0,1,15.17-3.65c3.51.63,7,2.25,10.51,1.79,2.81-.37,5.27-2,7.95-2.93A16.51,16.51,0,0,1,161,219.55a8.11,8.11,0,0,0,2.65,1.31c1.45.27,2.87-.45,4.25-1a20,20,0,0,1,15.84.51,5.31,5.31,0,0,0,6.24.21,19.09,19.09,0,0,1,16.32.69,9.36,9.36,0,0,0,2.85,1.24,9,9,0,0,0,4.14-.79,23.76,23.76,0,0,1,11.23-.85,12.75,12.75,0,0,0,2.75.32,15.42,15.42,0,0,0,3.24-.77c3.31-.9,7.7,0,8.71,3.25.68,2.17-.46,4.54-2,6.19-3,3.18-7.48,4.52-11.77,5.48-21.43,4.81-43.69,3.22-65.65,3.47-12.87.14-26.54.73-37.71-5.68C118.07,230.83,114.38,227.41,113.57,222.86Z"/><path class="cls-4" d="M112.28,220.77c3.38,22.48,7.82,80.58,19.34,90.54,9.61,8.31,76.14,11.82,89.34-1.38,2.29-2.29,4.29-9,5.41-12.07,9.13-24.56,13.8-63.64,14.59-76.9-6.53,4.44-14.17,5.37-22.05,6a460.52,460.52,0,0,1-90.7-1.59C122.18,224.67,116.11,223.83,112.28,220.77Z"/><path class="cls-5" d="M184.52,157.15c-1.28-5.84.65-11.91,3.21-17.31a74.94,74.94,0,0,1,28-31.43c12.53-7.77,27.86-12.24,36.7-24-1.11,7.53.3,15.2.16,22.81a56.56,56.56,0,0,1-2.92,17c-3.61,10.75-10.79,20.57-20.81,25.86-7.11,3.76-15.21,5.09-23.17,6.26C199.06,157.23,192.18,158.12,184.52,157.15Z"/><path class="cls-5" d="M155.67,144.56c-3.78-3.43-16.44-9.26-38.22-4.76-7.08,1.47-13.43,5.39-19.12,9.84C90.13,156.07,83,164.38,80,174.37c-1.85,6.28-2,12.94-1.7,19.49a160.85,160.85,0,0,0,5,33.44,83.64,83.64,0,0,0,5.7,16.09c1.71-5.17,5.86-9.23,10.54-12s9.91-4.46,15-6.26c11.26-4,22.46-8.76,31.49-16.55,14-12.07,21.65-31.66,17.9-49.76A26.74,26.74,0,0,0,155.67,144.56Z"/><path class="cls-6" d="M91.45,229.63c3.82-16.38,8.63-32.68,16.39-47.74a89,89,0,0,1,14.48-20.8l2.22-2.28,2.37-2.13c.4-.35.78-.73,1.19-1.05l1.26-1,1.26-1a13.15,13.15,0,0,1,1.28-.94l2.64-1.8c.9-.56,1.82-1.09,2.74-1.63s1.86-1,2.8-1.52l1.42-.73,1.47-.64c.49-.21,1-.43,1.47-.63l1.53-.52a25.18,25.18,0,0,1,3.12-.85,19.74,19.74,0,0,1,6.51-.27,12.51,12.51,0,0,1,6.06,2.6,10.28,10.28,0,0,1,2.27,2.47,7.16,7.16,0,0,1,.8,1.53,4,4,0,0,1,.23.81l.17.79a55.48,55.48,0,0,1,1.2,12.69c0,2.11-.06,4.22-.11,6.33s-.22,4.22-.37,6.32c-.61,8.41-1.51,16.78-2.29,25.15A218.14,218.14,0,0,0,162.25,228h0a.33.33,0,0,1-.33.34.33.33,0,0,1-.34-.32,217.17,217.17,0,0,1,.95-25.26c.71-8.39,1.55-16.76,2.09-25.14.13-2.1.23-4.19.32-6.29s.14-4.19.09-6.27a54.86,54.86,0,0,0-1.2-12.38l-.17-.76-.08-.37a3.21,3.21,0,0,0-.12-.33,5.79,5.79,0,0,0-.66-1.25,9,9,0,0,0-2-2.15,11.11,11.11,0,0,0-5.41-2.3,18.28,18.28,0,0,0-6,.27,25.45,25.45,0,0,0-3,.82l-1.46.5c-.48.19-.95.41-1.42.61l-1.42.62-1.39.72c-.92.48-1.87.92-2.75,1.47s-1.8,1-2.69,1.6l-2.58,1.74c-.44.28-.85.6-1.26.92l-1.23,1-1.23,1c-.41.32-.79.68-1.18,1l-2.33,2.08L123.29,162l-1.09,1.12c-.35.39-.68.79-1,1.19l-2,2.38c-.68.79-1.26,1.66-1.9,2.49s-1.25,1.67-1.85,2.53c-1.12,1.76-2.3,3.48-3.38,5.27s-2.1,3.62-3.09,5.46a159.56,159.56,0,0,0-9.79,23.14c-2.82,7.91-5,16.05-7,24.19h0a.34.34,0,0,1-.41.25A.35.35,0,0,1,91.45,229.63Z"/><path class="cls-5" d="M220.57,171c1.1,4.14,4.05,7.51,7,10.62,8,8.46,16.92,16.38,27.63,20.94s23.52,5.35,33.76-.2c1.16-.62,2.44-1.84,1.87-3a2.76,2.76,0,0,0-1.19-1.05,85.91,85.91,0,0,1-13.75-9.52c-5.72-5-10.38-11.23-16.52-15.73a39,39,0,0,0-29.75-6.76C226.4,166.88,223.11,168,220.57,171Z"/><path class="cls-5" d="M169.07,140a61.26,61.26,0,0,1-32-36.61C132.12,87.48,132.85,68,143.9,55.5c22.42-25.37,40.45-39.16,41.21-39.1,1.1.09,7.39,7.42,11.28,12.77C215.17,55,213.72,79.46,210.51,94.41,201.59,136,171.07,140,169.07,140Z"/><path class="cls-6" d="M185.21,24.27c-2.41,8.16-5.27,16.18-7.27,24.41q-1.51,6.16-2.51,12.44c-.66,4.19-1.16,8.4-1.59,12.61q-1.26,12.67-1.94,25.39c-.48,8.48-.66,17-.93,25.46l-1.66,51L168.42,201l-1,25.48a.32.32,0,0,1-.35.32.33.33,0,0,1-.32-.34l.61-25.49.69-25.48,1.49-51c.27-8.49.49-17,1-25.49s1.12-17,2-25.44c.47-4.24,1-8.46,1.71-12.67s1.57-8.38,2.62-12.52c2.14-8.26,5.12-16.24,7.63-24.35a.35.35,0,0,1,.42-.22A.34.34,0,0,1,185.21,24.27Z"/><path class="cls-6" d="M170.22,228.9A177.48,177.48,0,0,1,170.5,208a58.61,58.61,0,0,1,5.23-20.27,41.5,41.5,0,0,1,5.74-8.86,32.25,32.25,0,0,1,8.08-6.86,31.48,31.48,0,0,1,9.9-3.76,38.94,38.94,0,0,1,5.27-.67,40.6,40.6,0,0,1,5.29,0,56.22,56.22,0,0,1,20.18,5.72A149.29,149.29,0,0,1,248.24,184c2.87,2,5.68,4,8.61,5.83a66.92,66.92,0,0,0,9.12,4.84,47.7,47.7,0,0,0,9.83,3.07,49.29,49.29,0,0,0,10.29.81h0a.34.34,0,0,1,.34.33.33.33,0,0,1-.32.34,50.31,50.31,0,0,1-10.47-.64,48.92,48.92,0,0,1-10.07-3,65.24,65.24,0,0,1-9.32-4.83c-3-1.83-5.84-3.84-8.71-5.77a156.45,156.45,0,0,0-17.93-10.4A54.94,54.94,0,0,0,209.91,169a33.76,33.76,0,0,0-19.68,4.15,31,31,0,0,0-7.76,6.55,41.55,41.55,0,0,0-5.62,8.55,57.78,57.78,0,0,0-5.32,19.83,179.67,179.67,0,0,0-.64,20.77.32.32,0,0,1-.33.34A.34.34,0,0,1,170.22,228.9Z"/><path class="cls-6" d="M173,186.86a54.72,54.72,0,0,1,.68-7.34,57.13,57.13,0,0,1,1.73-7.17,58.1,58.1,0,0,1,2.78-6.85,56.7,56.7,0,0,1,3.72-6.4,53.45,53.45,0,0,1,4.61-5.79,58.7,58.7,0,0,1,5.42-5.05A95,95,0,0,1,204.16,140c4.25-2.44,8.57-4.72,12.77-7.15A95.74,95.74,0,0,0,229,124.82a45.49,45.49,0,0,0,9.74-10.61,30.45,30.45,0,0,0,4.95-13.41.35.35,0,0,1,.37-.31.34.34,0,0,1,.3.37,31.3,31.3,0,0,1-4.75,13.9,46.69,46.69,0,0,1-9.82,11c-7.63,6.31-16.54,10.6-24.92,15.49a94.64,94.64,0,0,0-12.08,8.05,55.93,55.93,0,0,0-5.31,4.9,59.78,59.78,0,0,0-4.55,5.6,56.2,56.2,0,0,0-3.72,6.2,59,59,0,0,0-2.81,6.66,58.27,58.27,0,0,0-1.88,7,56.27,56.27,0,0,0-.85,7.21h0a.33.33,0,0,1-.35.32A.34.34,0,0,1,173,186.86Z"/><path class="cls-7" d="M198,40.48c-2.78.84-5.11,2.82-7.74,4-2.87,1.32-6.1,1.66-9.15,2.36a.56.56,0,0,0,.29,1.08c3.07-.74,6.21-1.18,9.14-2.41a38.51,38.51,0,0,0,7.72-4.45C198.56,40.87,198.41,40.36,198,40.48Z"/><path class="cls-7" d="M197.19,46.7c-1.2.56-2.21,1.43-3.4,2a24,24,0,0,1-3.9,1.68c-1.34.38-2.72.68-4.08,1s-2.95.73-4.44,1c-1,.22-.59,1.81.44,1.58a69.68,69.68,0,0,0,8.61-2.43,23.34,23.34,0,0,0,3.79-1.94c1.2-.7,2.12-1.69,3.25-2.48A.27.27,0,0,0,197.19,46.7Z"/><path class="cls-7" d="M202.05,49.51c-1.51,1-2.78,2.26-4.23,3.32a22.19,22.19,0,0,1-4.51,2.53,30.55,30.55,0,0,1-5.08,1.85,35.83,35.83,0,0,1-5.54.85c-1.05.09-1.05,1.74,0,1.65a33.76,33.76,0,0,0,5.74-1,33.39,33.39,0,0,0,5.29-2.08,19.19,19.19,0,0,0,4.56-2.74c1.45-1.23,2.72-2.66,4.13-3.94A.3.3,0,0,0,202.05,49.51Z"/><path class="cls-7" d="M205.55,56.89c-1.44,1.33-2.92,2.57-4.45,3.8a34.78,34.78,0,0,1-4.82,3.55,42.91,42.91,0,0,1-5.38,2.59c-.91.35-1.84.67-2.79.94a19,19,0,0,1-2.89.71,27.51,27.51,0,0,1-3.13.36c-1.16,0-2.32-.07-3.49-.08a.83.83,0,0,0,0,1.66c1,0,2.06,0,3.08,0a22.41,22.41,0,0,0,3-.61,29.15,29.15,0,0,0,5.76-1.8,46.87,46.87,0,0,0,5.35-2.68,30,30,0,0,0,4.79-3.53,53.93,53.93,0,0,0,5.15-4.64A.16.16,0,0,0,205.55,56.89Z"/><path class="cls-7" d="M205.12,65.38c-2.81,2-5.4,4.39-8.6,5.84a44.54,44.54,0,0,1-5.25,2,43.11,43.11,0,0,1-5.15,1.17c-1,.19-2.08.43-3.13.55a14.75,14.75,0,0,1-3-.13.87.87,0,0,0-.88.87.89.89,0,0,0,.88.88,8.85,8.85,0,0,0,2.67,0,27.56,27.56,0,0,0,2.82-.82c.9-.26,1.78-.56,2.69-.78a25.87,25.87,0,0,0,2.6-.77,52.44,52.44,0,0,0,5.14-2.13c.83-.42,1.66-.8,2.44-1.29s1.5-1,2.23-1.49c1.65-1.13,3.12-2.5,4.68-3.75C205.41,65.5,205.25,65.29,205.12,65.38Z"/><path class="cls-7" d="M205.82,70.69a57.64,57.64,0,0,1-9,7c-1.59.94-3.25,1.7-4.89,2.53a17.13,17.13,0,0,1-5.44,1.54c-1.89.27-4,.67-5.85.16a.44.44,0,0,0-.24.85A9.37,9.37,0,0,0,183,83a15.77,15.77,0,0,0,2.65-.2,28.57,28.57,0,0,0,5.63-1.3c.87-.35,1.69-.81,2.54-1.2s1.73-.85,2.57-1.33a46.44,46.44,0,0,0,4.93-3.29c1.8-1.38,3.48-2.84,5.17-4.36C206.87,70.93,206.24,70.31,205.82,70.69Z"/><path class="cls-7" d="M194.93,31.83a25.46,25.46,0,0,1-5.36,5.11c-1,.63-2.07,1.18-3.11,1.74A21.07,21.07,0,0,1,183,39.89c-1,.32-.56,1.92.43,1.57a12.78,12.78,0,0,0,3.39-1.63c.52-.38,1-.79,1.55-1.15s1.14-.73,1.69-1.13A21.66,21.66,0,0,0,195.18,32C195.28,31.87,195.05,31.69,194.93,31.83Z"/><path class="cls-7" d="M191,28.49c-.58.58-1.15,1.18-1.75,1.75s-1.23,1.07-1.82,1.63a12.36,12.36,0,0,1-3.7,2.59.74.74,0,1,0,.57,1.35,11.08,11.08,0,0,0,3.91-3,38.82,38.82,0,0,0,3.28-4C191.68,28.57,191.24,28.24,191,28.49Z"/><path class="cls-7" d="M204.33,83.3c-1.52,1.22-3,2.46-4.61,3.55a40,40,0,0,1-4.86,2.73,23.62,23.62,0,0,1-11.27,2.51,21.55,21.55,0,0,1-3.21-.32,7,7,0,0,0-3.27-.19.88.88,0,0,0,.47,1.7,8.89,8.89,0,0,1,2.91,0,27.87,27.87,0,0,0,2.89,0,24.56,24.56,0,0,0,5.71-.91,36.19,36.19,0,0,0,10.37-5c.85-.57,1.71-1.15,2.5-1.8s1.67-1.46,2.5-2.18C204.55,83.35,204.42,83.22,204.33,83.3Z"/><path class="cls-7" d="M206.71,89.69c-1.73,1.13-3.39,2.37-5.13,3.49a41.06,41.06,0,0,1-5.5,3A52,52,0,0,1,184,99.91c-1.17.21-2.36.31-3.53.5s-2.34.14-3.48.39-.64,1.94.47,1.69a8.9,8.9,0,0,1,1.46-.12c.54,0,1.08-.13,1.62-.22,1.05-.17,2.11-.35,3.16-.56a46,46,0,0,0,6.3-1.86,52.76,52.76,0,0,0,11.4-5.49c1.94-1.3,3.77-2.76,5.59-4.24C207.13,89.86,206.9,89.56,206.71,89.69Z"/><path class="cls-7" d="M199.42,102c-1.67,1-3.28,2.09-5,3A47.09,47.09,0,0,1,189,107.6c-1.82.74-3.69,1.37-5.57,1.94a8.84,8.84,0,0,1-3,.43,13.16,13.16,0,0,0-3.2.1c-1,.2-.6,1.8.44,1.59a25.42,25.42,0,0,1,3.27-.23,12.08,12.08,0,0,0,2.91-.62c1.92-.63,3.83-1.31,5.69-2.11A44.07,44.07,0,0,0,195,106a26.12,26.12,0,0,0,4.77-3.52A.29.29,0,0,0,199.42,102Z"/><path class="cls-7" d="M199.8,109.75a11.06,11.06,0,0,0-2.25,1.26q-1.23.78-2.52,1.47c-1.73.93-3.51,1.75-5.31,2.55a40.69,40.69,0,0,1-5.4,2.19,12.07,12.07,0,0,1-5.73-.1c-.9-.17-1.29,1.22-.38,1.39a11.79,11.79,0,0,0,5.78-.27,52.55,52.55,0,0,0,5.4-2.32c1.86-.83,3.71-1.68,5.51-2.63.89-.48,1.77-1,2.62-1.5s1.59-1.17,2.45-1.64A.22.22,0,0,0,199.8,109.75Z"/><path class="cls-7" d="M193.42,120.27c-2.58,1.13-5.19,2.22-7.84,3.19a20,20,0,0,1-4.21,1.18c-.71.09-1.43.13-2.14.21s-1.35-.09-2,0c-1.12,0-1.13,1.81,0,1.75.73,0,1.42.13,2.15,0s1.5-.14,2.25-.23a19.47,19.47,0,0,0,4.54-1.3c1.41-.57,2.78-1.19,4.16-1.82A13.13,13.13,0,0,0,194,121C194.43,120.62,193.89,120.07,193.42,120.27Z"/><path class="cls-7" d="M165.1,126.05a11.73,11.73,0,0,1-4.73-1.48c-1.39-.7-2.78-1.44-4.15-2.18a30.42,30.42,0,0,1-7.55-5.37c-.2-.21-.61.08-.42.33a24,24,0,0,0,7.5,6c1.44.83,2.88,1.66,4.35,2.43a12.76,12.76,0,0,0,5,1.6C166,127.46,166,126.1,165.1,126.05Z"/><path class="cls-7" d="M165.44,119.1c-6-1.12-11.23-4.7-16.4-7.8-.23-.14-.41.2-.21.34,2.59,1.86,5.24,3.66,8,5.31a25.84,25.84,0,0,0,8.27,3.51C166,120.64,166.33,119.27,165.44,119.1Z"/><path class="cls-7" d="M165.41,110.61c-1.8-.08-3.61-1.09-5.19-1.86s-3.42-1.72-5.11-2.62a84.29,84.29,0,0,1-9.52-5.73,23.76,23.76,0,0,1-4.34-3.92c-.18-.21-.55.07-.39.31,2,3,5,5.11,8,7.07a109.21,109.21,0,0,0,10.42,5.93c1.89.95,4,2.12,6.16,2.24C166.32,112.08,166.32,110.65,165.41,110.61Z"/><path class="cls-7" d="M165.8,103.32a15.46,15.46,0,0,1-5-1.48c-1.63-.69-3.24-1.46-4.82-2.26A57.4,57.4,0,0,1,147.12,94c-1.6-1.22-3.14-2.5-4.69-3.78-.24-.2-.59.13-.35.36a79.54,79.54,0,0,0,8.23,7,61.43,61.43,0,0,0,9.51,5.54,16.42,16.42,0,0,0,6,1.94C166.93,105.15,166.92,103.39,165.8,103.32Z"/><path class="cls-7" d="M166.48,94.32A90.89,90.89,0,0,1,156.32,90a50.87,50.87,0,0,1-9-5.85c-1.51-1.29-2.82-2.79-4.39-4-.32-.24-.75.15-.46.46,1.27,1.3,2.42,2.71,3.7,4A32.63,32.63,0,0,0,150.34,88,54.91,54.91,0,0,0,160,93.56c2,.88,4,1.66,6,2.45a.88.88,0,0,0,1.08-.61A.89.89,0,0,0,166.48,94.32Z"/><path class="cls-7" d="M166.54,89.23a14.65,14.65,0,0,0-2.39-1.07c-.88-.35-1.75-.77-2.63-1.13a31.28,31.28,0,0,1-5-2.75,56.63,56.63,0,0,1-4.64-3.38,30.34,30.34,0,0,1-3.8-4.12c-1.4-1.61-2.83-3.22-4.17-4.88-.17-.2-.49.06-.36.28a26.43,26.43,0,0,0,1.69,2.39c.57.75,1.09,1.52,1.68,2.26a41.66,41.66,0,0,0,3.55,4.38A53.36,53.36,0,0,0,155,84.93,33.21,33.21,0,0,0,159.79,88c1,.51,2,1,3,1.43a23.24,23.24,0,0,1,2.83,1.27C166.62,91.34,167.5,89.82,166.54,89.23Z"/><path class="cls-7" d="M167.25,82a57.08,57.08,0,0,1-10.47-6.76,53.16,53.16,0,0,1-4.54-4.34,37.29,37.29,0,0,1-4-4.85c-1.27-1.94-2.26-4-3.34-6.07-.08-.16-.3,0-.23.13a48.76,48.76,0,0,0,2.74,5.63,34.3,34.3,0,0,0,3.73,5,57.29,57.29,0,0,0,9.31,8.77,52.54,52.54,0,0,0,6,3.9C167.34,83.93,168.17,82.51,167.25,82Z"/><path class="cls-7" d="M168.93,74.3a38.75,38.75,0,0,1-9.1-6.8A39.91,39.91,0,0,1,156,63.12a55.07,55.07,0,0,1-3.29-4.85c-1.15-1.85-2.26-3.74-3.26-5.67-.24-.47-.89-.13-.8.33a15.84,15.84,0,0,0,2.38,5.4,50.68,50.68,0,0,0,3.41,4.92A40.76,40.76,0,0,0,163,71.33c.91.63,1.77,1.33,2.72,1.92a31.91,31.91,0,0,0,2.92,1.62C169,75.06,169.31,74.49,168.93,74.3Z"/><path class="cls-7" d="M171.72,65.31a15,15,0,0,1-2.32-1.56c-.83-.61-1.63-1.25-2.43-1.9s-1.58-1.22-2.3-1.93-1.42-1.46-2.11-2.19a34.72,34.72,0,0,1-3.88-4.84,51.24,51.24,0,0,1-2.79-5.35c-.09-.18-.41,0-.33.14a33.93,33.93,0,0,0,2.56,5.54A32.32,32.32,0,0,0,162,58.15c.72.77,1.43,1.54,2.18,2.26a29.88,29.88,0,0,0,2.4,2c.78.62,1.55,1.24,2.37,1.8a15.63,15.63,0,0,0,2.49,1.62C171.76,66,172.05,65.46,171.72,65.31Z"/><path class="cls-7" d="M172.78,56.67a34.14,34.14,0,0,1-3.51-3,26.34,26.34,0,0,1-2.81-3.42,39.43,39.43,0,0,1-2.28-3.67c-.72-1.27-1.29-2.64-2.05-3.89a.38.38,0,0,0-.69.29A14.07,14.07,0,0,0,163,47.28a22.06,22.06,0,0,0,2.58,3.77c.48.58,1,1.13,1.49,1.69a16.53,16.53,0,0,0,1.52,1.61c1.22,1.06,2.52,2,3.83,2.91C172.8,57.52,173.13,56.93,172.78,56.67Z"/><path class="cls-7" d="M175.11,48.3a15.05,15.05,0,0,1-2.66-2.69c-.41-.53-.75-1.1-1.11-1.66s-.75-1-1.1-1.45a28,28,0,0,1-1.77-3.11,15.88,15.88,0,0,1-1.27-3.66.22.22,0,0,0-.44.06,7.94,7.94,0,0,0,.93,3.71,20.64,20.64,0,0,0,2,3.45c.38.52.81,1,1.16,1.53A14.45,14.45,0,0,0,172,46a16.13,16.13,0,0,0,2.88,2.72C175.12,49,175.38,48.5,175.11,48.3Z"/><path class="cls-7" d="M176.85,40.73a16.71,16.71,0,0,1-2.78-4.24c-.79-1.53-1.36-3.15-2.08-4.7-.16-.33-.63-.09-.56.23a22.4,22.4,0,0,0,1.7,5.11,15.52,15.52,0,0,0,2.94,4.38C176.58,42,177.35,41.23,176.85,40.73Z"/><path class="cls-7" d="M179.2,34.76c-.36-.88-.8-1.73-1.16-2.61a15.15,15.15,0,0,0-1.11-2.62.37.37,0,0,0-.68.29,15,15,0,0,0,.77,2.71c.37.89.82,1.75,1.2,2.64C178.45,35.73,179.43,35.32,179.2,34.76Z"/><path class="cls-7" d="M240.72,109.77a9.68,9.68,0,0,1-.75-2.24,21.52,21.52,0,0,1-.53-2.75,19,19,0,0,1-.27-3.11,25,25,0,0,1,.3-3c.05-.3-.4-.43-.46-.13a25.06,25.06,0,0,0-.37,3.12,20.06,20.06,0,0,0,.22,3.29,16.11,16.11,0,0,0,.55,2.93,4.4,4.4,0,0,0,1,2.12A.2.2,0,0,0,240.72,109.77Z"/><path class="cls-7" d="M238,111.3a18.79,18.79,0,0,1-1.61-6,19.23,19.23,0,0,1,0-2.94,11.56,11.56,0,0,1,.74-3c.2-.6-.76-.87-.94-.26a12.89,12.89,0,0,0-.69,3.07,18.64,18.64,0,0,0,.13,3.34,17.72,17.72,0,0,0,.7,3.15,9.32,9.32,0,0,0,1.32,2.88A.22.22,0,0,0,238,111.3Z"/><path class="cls-5" d="M183.44,185.08c-12.33-.73-24,8.09-28.71,19.51a25.94,25.94,0,0,0-2.14,11.11c.26,5.22,2.52,10.14,5.27,14.58A66.39,66.39,0,0,0,169,243.85c6,5.58,13,10,19.42,15S201,269.7,204.5,277.1c7.9-9.57,15.42-19.56,21.05-30.62s9.36-23.29,9.28-35.7a44,44,0,0,0-4-18.88,28.14,28.14,0,0,0-13.41-13.56c-8.57-3.81-18.79-2.14-27.11,2.2A37.06,37.06,0,0,0,183.44,185.08Z"/><path class="cls-6" d="M204.37,257.53a122.28,122.28,0,0,0-1.6-26.07A140.52,140.52,0,0,0,196,206.24c-1.5-4.09-3.18-8.12-5-12.08a71,71,0,0,0-6.4-11.31,24.94,24.94,0,0,0-4.31-4.73,10.38,10.38,0,0,0-2.67-1.58,5.12,5.12,0,0,0-2.94-.27,5.22,5.22,0,0,0-2.55,1.52,9.73,9.73,0,0,0-1.78,2.58,22,22,0,0,0-1.85,6.15.34.34,0,0,1-.38.29.34.34,0,0,1-.28-.38,21.71,21.71,0,0,1,1.75-6.43,11.3,11.3,0,0,1,1.88-2.84,6.23,6.23,0,0,1,3-1.84,6,6,0,0,1,3.52.24,11.27,11.27,0,0,1,3,1.71,25.85,25.85,0,0,1,4.59,4.88,69.7,69.7,0,0,1,6.64,11.46c1.86,4,3.58,8,5.12,12.15a131.37,131.37,0,0,1,4,12.59A120.84,120.84,0,0,1,204,231.26a113.32,113.32,0,0,1,1.29,13.13,111.44,111.44,0,0,1-.28,13.18.35.35,0,0,1-.37.31A.33.33,0,0,1,204.37,257.53Z"/><path class="cls-7" d="M250.76,99.7c-.31.33-.56.71-.9,1s-.88.77-1.33,1.14a20.09,20.09,0,0,1-2.83,1.74.14.14,0,0,0,.13.24,25.17,25.17,0,0,0,2.88-1.72c.47-.36.93-.73,1.39-1.1a3.64,3.64,0,0,0,.88-1.14A.14.14,0,0,0,250.76,99.7Z"/><path class="cls-7" d="M251.86,104.52a11.31,11.31,0,0,0-1.83,1,12.75,12.75,0,0,1-1.84.94,9.48,9.48,0,0,1-3.61,1.25.36.36,0,0,0,0,.71,9.69,9.69,0,0,0,3.79-1.18,10.66,10.66,0,0,0,1.95-1,18.32,18.32,0,0,0,1.79-1.36C252.31,104.8,252.1,104.42,251.86,104.52Z"/><path class="cls-7" d="M250.43,110c-.89.82-2.28,1-3.42,1.24a9,9,0,0,1-3.86.18c-.55-.1-.79.74-.23.85a10.05,10.05,0,0,0,4.33-.18c1.31-.32,2.77-.52,3.8-1.47C251.47,110.27,250.85,109.65,250.43,110Z"/><path class="cls-7" d="M251.43,112.65c-3.24,1-6.58,2.42-10,1.49-.15,0-.21.2-.06.23,3.45.9,6.9-.45,10.12-1.59A.07.07,0,0,0,251.43,112.65Z"/><path class="cls-7" d="M233.25,115.63a14,14,0,0,1-2-2.53,8.66,8.66,0,0,1-.89-2.86,16.7,16.7,0,0,1-.26-3.23,22.27,22.27,0,0,1,.36-3.26c.15-.74-1-1-1.12-.31a15.21,15.21,0,0,0-.11,3.57,19.5,19.5,0,0,0,.5,3.4,9,9,0,0,0,1.1,2.84,11.71,11.71,0,0,0,2.34,2.48A.07.07,0,0,0,233.25,115.63Z"/><path class="cls-7" d="M231.72,118.42a11.69,11.69,0,0,1-4.36-4.91,21,21,0,0,1-1-3.18,6.62,6.62,0,0,1-.22-2,6.65,6.65,0,0,0-.09-.78,3.31,3.31,0,0,1,.13-1.13.46.46,0,0,0-.88-.24,3.6,3.6,0,0,0,0,1.9c.09.32.08.65.15,1s.17.71.26,1.06c.17.62.42,1.23.59,1.85a11,11,0,0,0,.58,1.61,9.84,9.84,0,0,0,4.72,5A.12.12,0,0,0,231.72,118.42Z"/><path class="cls-7" d="M227.19,121.62a4.67,4.67,0,0,1-1.41-.84c-.37-.4-.82-.7-1.17-1.13a14.09,14.09,0,0,1-1.89-3,52.81,52.81,0,0,1-2.2-7.19c-.08-.25-.53-.22-.49.07a28.36,28.36,0,0,0,1.88,7.7,15.25,15.25,0,0,0,2,3.18,16.89,16.89,0,0,0,1.26,1.28,5.24,5.24,0,0,0,1.53.86C227.26,122.83,227.8,121.93,227.19,121.62Z"/><path class="cls-7" d="M223.4,125.39a10.66,10.66,0,0,1-5-5.18,16.87,16.87,0,0,1-1.13-3.46c-.29-1.31-.3-2.64-.51-4,0-.17-.31-.13-.3,0,.09,1.37,0,2.73.19,4.09a16.24,16.24,0,0,0,1.05,3.86,10.78,10.78,0,0,0,5.11,5.65C223.49,126.75,224.1,125.7,223.4,125.39Z"/><path class="cls-7" d="M217.67,130.06a9.48,9.48,0,0,1-2.87-2.62,23.49,23.49,0,0,1-1.9-3.39,15.26,15.26,0,0,1-1-4.11,23,23,0,0,1-.07-4.39.12.12,0,0,0-.23,0,13.24,13.24,0,0,0-.09,4.44,16.75,16.75,0,0,0,1,4.26c1.05,2.48,2.42,5,4.71,6.5C217.69,131,218.08,130.32,217.67,130.06Z"/><path class="cls-7" d="M215.09,132a7.15,7.15,0,0,1-2.54-2.32,13.94,13.94,0,0,1-1.86-3.19,20.64,20.64,0,0,1-1.16-7,0,0,0,0,0-.09,0,19.28,19.28,0,0,0,1,7.42,18.39,18.39,0,0,0,1.74,3.28,6.35,6.35,0,0,0,2.37,2.63C215.16,133.1,215.66,132.25,215.09,132Z"/><path class="cls-7" d="M212.71,133a15.33,15.33,0,0,1-4-6.78,18.33,18.33,0,0,1-.59-4c0-.69,0-1.39,0-2.08s.17-1.38.2-2.07c0-.1-.14-.09-.15,0-.09.73-.28,1.44-.32,2.17s0,1.46,0,2.18a19.14,19.14,0,0,0,.59,4.12,15.27,15.27,0,0,0,4,6.78C212.6,133.45,212.9,133.15,212.71,133Z"/><path class="cls-7" d="M205.25,137.43c-2-2-2.72-4.92-3-7.67-.1-.82-.19-1.65-.22-2.48a18.25,18.25,0,0,1,.19-2.45,12.59,12.59,0,0,1,.47-2.52,18.18,18.18,0,0,1,1-2.19c0-.1-.09-.23-.18-.13a8.37,8.37,0,0,0-1.67,4.23,25.44,25.44,0,0,0-.28,2.74,23.59,23.59,0,0,0,.21,2.91c.3,2.89,1,5.84,3.08,8A.29.29,0,0,0,205.25,137.43Z"/><path class="cls-7" d="M205.45,135.84c-.45-1-.83-1.94-1.19-2.94a17.58,17.58,0,0,1-.7-3,21,21,0,0,1-.08-6.81.13.13,0,0,0-.25-.07,15.66,15.66,0,0,0-.09,6.78,17.4,17.4,0,0,0,.72,3.16c.38,1,.76,2,1.23,3C205.2,136.3,205.57,136.09,205.45,135.84Z"/><path class="cls-7" d="M203,139.17a19.8,19.8,0,0,1-3.2-7,26.7,26.7,0,0,1,.15-7.78.15.15,0,0,0-.29,0,22.83,22.83,0,0,0-.36,7.86,18.35,18.35,0,0,0,3.16,7.31C202.63,139.82,203.17,139.51,203,139.17Z"/><path class="cls-7" d="M196.74,143.57a8.89,8.89,0,0,1-.76-1.47,9.19,9.19,0,0,1-.32-1.56,24.31,24.31,0,0,1-.24-3.18,22.61,22.61,0,0,1,.14-3.08,11.76,11.76,0,0,1,.27-1.68c.13-.49.33-1,.47-1.45A.16.16,0,0,0,196,131a9.46,9.46,0,0,0-1,3,21.08,21.08,0,0,0-.2,3.46,24.94,24.94,0,0,0,.28,3.34,7.73,7.73,0,0,0,.37,1.65,11.41,11.41,0,0,0,.76,1.42C196.41,144.2,196.92,143.9,196.74,143.57Z"/><path class="cls-7" d="M194.87,145.07a12.1,12.1,0,0,1-1.18-2.71,9,9,0,0,1-.28-2.88c.07-1,.06-2,.2-2.95a12.8,12.8,0,0,0,.2-2.83.14.14,0,1,0-.28,0c-.06,1.08-.31,2.14-.46,3.22a28.62,28.62,0,0,0-.18,2.93,10.62,10.62,0,0,0,1.61,5.44C194.63,145.54,195,145.32,194.87,145.07Z"/><path class="cls-7" d="M192.2,146.55a10.72,10.72,0,0,1-.56-2.16,17.91,17.91,0,0,1-.11-2.2c0-.74,0-1.49,0-2.23s.2-1.63.31-2.44c0-.23-.35-.27-.41-.05a24.33,24.33,0,0,0-.5,2.4,17.6,17.6,0,0,0-.11,2.41,12.51,12.51,0,0,0,.7,4.46C191.69,147.15,192.36,147,192.2,146.55Z"/><path class="cls-7" d="M202.21,81.69A48.56,48.56,0,0,1,197,85.24c-1,.5-2.12.83-3.18,1.25s-1.9.7-2.88,1-2,.51-2.92.85a15.62,15.62,0,0,1-3.16.68,25,25,0,0,1-3.46.26,21.27,21.27,0,0,1-3.29,0,.17.17,0,1,0,0,.33,14.48,14.48,0,0,0,2.55,0c.88,0,1.75,0,2.63-.12a21.33,21.33,0,0,0,5-.9c1.58-.53,3.25-.77,4.83-1.33a35.27,35.27,0,0,0,4.75-1.88,17.94,17.94,0,0,0,4.57-3.41C202.52,81.81,202.37,81.59,202.21,81.69Z"/><path class="cls-7" d="M202.36,90c-1.89,1.1-3.84,2.09-5.78,3.11s-3.87,1.7-5.8,2.57a39.82,39.82,0,0,1-6.11,2.13,23.13,23.13,0,0,1-3.43.55,14.94,14.94,0,0,1-3.34.16c-.31,0-.31.45,0,.49a11.4,11.4,0,0,0,2.61-.11c.86-.1,1.71-.18,2.56-.31a34.86,34.86,0,0,0,5-1.39c1.62-.52,3.15-1.25,4.76-1.82a39.48,39.48,0,0,0,4.63-2,31.27,31.27,0,0,0,5.07-3.1C202.68,90.17,202.54,89.91,202.36,90Z"/><path class="cls-7" d="M166.94,79.57a14.65,14.65,0,0,1-2-.75c-.66-.36-1.33-.73-2-1.13a23,23,0,0,1-2-1.5c-.59-.48-1.21-.92-1.78-1.41s-1.12-1-1.63-1.47-1-1.08-1.46-1.6a34.83,34.83,0,0,1-3.26-3.61c-.28-.38-.94,0-.65.38a33.07,33.07,0,0,0,3.38,3.62c1.13,1.11,2.21,2.25,3.44,3.26a41.76,41.76,0,0,0,3.84,3,7.62,7.62,0,0,0,4.09,1.6A.18.18,0,0,0,166.94,79.57Z"/><path class="cls-7" d="M168,70c-1.37-1-2.7-2.16-4-3.29s-2.24-2.29-3.34-3.45-2.31-2.33-3.42-3.53a17.54,17.54,0,0,1-1.54-1.81c-.47-.65-1-1.3-1.47-1.92-.15-.18-.39.08-.25.25.56.72,1.07,1.46,1.59,2.2A20.59,20.59,0,0,0,156.92,60c1.14,1.27,2.35,2.48,3.51,3.73a35.52,35.52,0,0,0,3.47,3.47,44.2,44.2,0,0,0,4,3C168,70.28,168.13,70.06,168,70Z"/><path class="cls-7" d="M202.2,58.32A24,24,0,0,0,200,60a24,24,0,0,1-2.63,1.57c-1.8.93-3.66,1.73-5.45,2.69A28.18,28.18,0,0,1,189,65.6a15.09,15.09,0,0,1-2.67.93,19.46,19.46,0,0,1-6.5.37c-.22,0-.28.37-.05.4a20.08,20.08,0,0,0,6.28-.26,15,15,0,0,0,3.06-1c.91-.36,1.8-.73,2.67-1.17s1.83-1,2.78-1.43,2.06-.9,3.07-1.41a17.85,17.85,0,0,0,4.78-3.44A.18.18,0,0,0,202.2,58.32Z"/><path class="cls-7" d="M195.42,70c-1.84.56-3.56,1.43-5.39,2a23.07,23.07,0,0,1-5.73,1.28c-.28,0-.28.45,0,.44A22.87,22.87,0,0,0,190,72.51c1.91-.62,3.66-1.58,5.52-2.31C195.63,70.14,195.57,69.91,195.42,70Z"/><path class="cls-7" d="M195,50.66c-.87.4-1.69.88-2.55,1.29a25.31,25.31,0,0,1-2.89,1.11,21.48,21.48,0,0,1-5.82,1.21c-.24,0-.24.39,0,.38a21.7,21.7,0,0,0,5.91-1.24,25.83,25.83,0,0,0,2.69-1c.95-.46,1.82-1,2.75-1.54C195.16,50.77,195.06,50.61,195,50.66Z"/><path class="cls-7" d="M195.25,107.31c-1.31.68-2.63,1.33-3.93,2a39.32,39.32,0,0,1-4.08,2,24.22,24.22,0,0,1-4,1,14.05,14.05,0,0,1-4.43.32c-.33,0-.33.49,0,.52a13.34,13.34,0,0,0,4.27-.31,25.68,25.68,0,0,0,4.3-1.13,39.75,39.75,0,0,0,4-2,43.92,43.92,0,0,0,4-2.27A.11.11,0,0,0,195.25,107.31Z"/><path class="cls-7" d="M166.25,113.38c-1.77-.55-3.62-.79-5.38-1.37s-3.49-1.34-5.21-2.05a38.16,38.16,0,0,1-5.06-2.47c-1.58-.95-3-2.08-4.59-3.1-.11-.07-.2.1-.1.17,1.56,1,3.05,2.22,4.65,3.21a39.93,39.93,0,0,0,5.06,2.55c1.69.73,3.39,1.5,5.13,2.12a16.89,16.89,0,0,0,5.46,1.25A.16.16,0,0,0,166.25,113.38Z"/><path class="cls-7" d="M164.4,120.83a23.09,23.09,0,0,1-5.15-1.39c-.81-.31-1.62-.61-2.45-.86a23.07,23.07,0,0,1-2.66-1.13.22.22,0,1,0-.17.41,27.35,27.35,0,0,0,2.62,1.1c.9.27,1.76.58,2.64.9a16.84,16.84,0,0,0,5.17,1.19C164.55,121.06,164.54,120.85,164.4,120.83Z"/><path class="cls-7" d="M187.25,126.72c-1.93.39-3.82,1-5.73,1.37a25.31,25.31,0,0,1-5.76.45.3.3,0,0,0,0,.6,25.92,25.92,0,0,0,5.7-.46c2-.44,3.93-1.05,5.87-1.66A.16.16,0,0,0,187.25,126.72Z"/><path class="cls-7" d="M249.29,118.31a2.8,2.8,0,0,1-.94.35c-.38.11-.73.28-1.11.41a15.94,15.94,0,0,1-2.65.53,14.28,14.28,0,0,1-5.6-.25.31.31,0,0,0-.16.59,15.33,15.33,0,0,0,5.92.26,12.52,12.52,0,0,0,2.91-.65,4.11,4.11,0,0,0,1.88-1C249.65,118.41,249.44,118.21,249.29,118.31Z"/><path class="cls-7" d="M248.08,121.88a1.89,1.89,0,0,0-.76.28,4.9,4.9,0,0,1-1.24.36,16.71,16.71,0,0,1-3.15.44,12.37,12.37,0,0,1-5.86-1c-.27-.15-.52.27-.24.42a12.44,12.44,0,0,0,5.78,1.1,13.55,13.55,0,0,0,3-.34,11.88,11.88,0,0,0,1.45-.38c.4-.14.68-.48,1.07-.6C248.23,122.08,248.22,121.87,248.08,121.88Z"/><path class="cls-7" d="M246.37,124.5c-.39,0-.77.13-1.17.17s-.8,0-1.2.06a12.07,12.07,0,0,1-2.61-.18,11.88,11.88,0,0,1-1.32-.27c-.37-.09-.75-.12-1.13-.2a16.85,16.85,0,0,1-2.32-1c-.27-.11-.39.33-.12.44a15.25,15.25,0,0,0,2.4,1c.79.17,1.6.36,2.41.47a11,11,0,0,0,2.69.16c.36,0,.72-.06,1.08-.11s.88-.24,1.33-.33C246.53,124.71,246.51,124.49,246.37,124.5Z"/><path class="cls-7" d="M243.1,128.56c-1-.08-2,0-2.93-.09a25,25,0,0,1-3.23-.42c-1-.18-2-.36-3-.59a8.78,8.78,0,0,1-2.88-1c-.51-.31-1,.47-.47.8a16.34,16.34,0,0,0,6.05,2.38A14,14,0,0,0,240,130a10.9,10.9,0,0,0,1.71-.18,16.08,16.08,0,0,0,1.53-.5A.38.38,0,0,0,243.1,128.56Z"/><path class="cls-7" d="M239.57,133.1a35.06,35.06,0,0,1-6.38-.93,24.61,24.61,0,0,1-5.65-2.57c-.32-.19-.6.3-.29.5,3.63,2.33,8,3.87,12.32,3.32A.16.16,0,0,0,239.57,133.1Z"/><path class="cls-7" d="M237.21,134.71a19.29,19.29,0,0,1-3-.44,26.6,26.6,0,0,1-2.67-.64,18.64,18.64,0,0,1-2.56-1.3,5.9,5.9,0,0,1-2.05-1.47c-.19-.24-.53.1-.34.34a5.8,5.8,0,0,0,2,1.47c.88.45,1.72,1,2.64,1.35a21.09,21.09,0,0,0,2.95.7,9.78,9.78,0,0,0,3.05.22A.12.12,0,0,0,237.21,134.71Z"/><path class="cls-7" d="M232,137.44c-1-.12-2.06,0-3.08-.1s-2.14-.34-3.21-.55a17,17,0,0,1-2.86-.83,7.78,7.78,0,0,1-2.6-1.43c-.22-.2-.55.13-.33.33a7.77,7.77,0,0,0,2.34,1.38,18,18,0,0,0,3.12,1c1,.21,2.08.44,3.13.56a15.69,15.69,0,0,0,3.49-.07A.14.14,0,0,0,232,137.44Z"/><path class="cls-7" d="M229.36,139.3a34.64,34.64,0,0,1-5.73-1,15.52,15.52,0,0,1-2.61-1.14,5.44,5.44,0,0,1-1.92-1.4c-.24-.3-.67.13-.43.43a6,6,0,0,0,2.05,1.48,14.26,14.26,0,0,0,2.58,1.09,22.46,22.46,0,0,0,6.06.73A.11.11,0,0,0,229.36,139.3Z"/><path class="cls-7" d="M225.59,141.15c-.83-.28-1.69-.43-2.51-.73s-1.67-.56-2.47-.93-1.48-.71-2.19-1.12a6.57,6.57,0,0,1-1.9-1.7c-.14-.17-.38.07-.24.24a6.83,6.83,0,0,0,1.76,1.63c.77.46,1.59.86,2.4,1.24a25.58,25.58,0,0,0,2.4.89c.89.3,1.79.44,2.7.66A.09.09,0,0,0,225.59,141.15Z"/><path class="cls-7" d="M222,145.2a41.13,41.13,0,0,1-8.11-1.12c-2.1-.57-4.39-1.44-5.72-3.26-.15-.21-.5,0-.35.2a10.21,10.21,0,0,0,5.55,3.41,24.05,24.05,0,0,0,8.63,1.11A.17.17,0,0,0,222,145.2Z"/><path class="cls-7" d="M218.4,147.25c-2.06-.66-4.15-1.18-6.16-2a9,9,0,0,1-4.63-3.35c-.22-.32-.75,0-.53.31a9.17,9.17,0,0,0,4.41,3.4,28.86,28.86,0,0,0,6.79,2A.22.22,0,0,0,218.4,147.25Z"/><path class="cls-7" d="M213.83,147.47c-1.4-.65-2.79-1.33-4.14-2.09A18.78,18.78,0,0,1,206,143c-.25-.23-.62.14-.37.37a16.38,16.38,0,0,0,3.78,2.46c1.41.72,2.87,1.35,4.35,1.94C213.87,147.79,214,147.54,213.83,147.47Z"/><path class="cls-7" d="M212,150c-2.34-.42-4.73-.36-7.07-.75a17.37,17.37,0,0,1-3.18-.86,18.83,18.83,0,0,1-3.1-1.66.37.37,0,0,0-.38.64,20.63,20.63,0,0,0,2.93,1.57,17,17,0,0,0,3.44.95c2.41.4,4.87.32,7.3.5C212.14,150.43,212.19,150.06,212,150Z"/><path class="cls-7" d="M207.25,152.28a50.89,50.89,0,0,1-5.44-1.5,29.28,29.28,0,0,1-2.68-1.21,10.07,10.07,0,0,1-2.33-1.78c-.26-.24-.65.15-.39.39a10.77,10.77,0,0,0,2.28,1.76c.85.44,1.74.84,2.63,1.2a26.11,26.11,0,0,0,5.85,1.46C207.37,152.63,207.47,152.33,207.25,152.28Z"/><path class="cls-8" d="M183.45,158.92a28,28,0,0,1,17.21-13.29c6.43-1.66,13.21-1,19.78-1.87,13.55-1.87,25.27-13.73,30.88-26.2-.74,15.32-7.33,24.63-15.17,33.07a36.62,36.62,0,0,1-10.71,8.17c-4.91,2.38-10.38,3.34-15.81,3.82a57,57,0,0,1-10.53.06C193.76,162.13,188.52,160.49,183.45,158.92Z"/><path class="cls-7" d="M144.68,144.72a20,20,0,0,0-3.12-2.21,18.92,18.92,0,0,0-3.68-1.49,21.21,21.21,0,0,0-4-1,19.34,19.34,0,0,0-4.23-.28c-.08,0-.08.14,0,.14a25.61,25.61,0,0,1,8,1.34,19.81,19.81,0,0,1,3.61,1.43,19.15,19.15,0,0,1,3.23,2.27C144.6,145.09,144.83,144.87,144.68,144.72Z"/><path class="cls-7" d="M142.89,145.88A10.27,10.27,0,0,0,139.6,144c-1.32-.47-2.66-.93-4-1.27a57.78,57.78,0,0,0-8.77-1.48c-.1,0-.1.15,0,.16a64.35,64.35,0,0,1,8.49,1.56c1.29.33,2.53.76,3.78,1.19a10.73,10.73,0,0,1,3.59,1.92C142.82,146.25,143.05,146,142.89,145.88Z"/><path class="cls-7" d="M136.39,148.36a35.89,35.89,0,0,0-11-5.21A34.08,34.08,0,0,0,113,141.41a.21.21,0,0,0,0,.42,57.57,57.57,0,0,1,6.29.53,42.43,42.43,0,0,1,6,1.41,35.68,35.68,0,0,1,10.91,5C136.4,149,136.66,148.56,136.39,148.36Z"/><path class="cls-7" d="M135.18,149.22a9.31,9.31,0,0,0-2-1.11c-.76-.34-1.51-.71-2.28-1a50.31,50.31,0,0,0-5.09-1.79,41.7,41.7,0,0,0-10.94-1.49.06.06,0,1,0,0,.12,45.94,45.94,0,0,1,10.67,1.58,49.77,49.77,0,0,1,4.91,1.67c.8.31,1.57.69,2.36,1a10.62,10.62,0,0,1,2.24,1.17C135.13,149.48,135.3,149.31,135.18,149.22Z"/><path class="cls-7" d="M132.63,149.43c-4.88-2.75-10.46-3.25-15.92-3.85-.08,0-.08.11,0,.12,5.42.71,11,1.13,15.86,3.83C132.63,149.56,132.69,149.47,132.63,149.43Z"/><path class="cls-7" d="M128,153.37a21.51,21.51,0,0,0-2.07-1.47,16.36,16.36,0,0,0-2.29-1.06,46.34,46.34,0,0,0-5-1.75,32.17,32.17,0,0,0-10.55-1.23,46.26,46.26,0,0,0-5.8,1.09c-.17,0-.14.34,0,.32a50.33,50.33,0,0,1,6.47-.78,33.68,33.68,0,0,1,6.71.78,40.09,40.09,0,0,1,6.35,1.84c1,.4,2.08.76,3.07,1.25a17.86,17.86,0,0,1,2.6,1.74C128,154.42,128.44,153.7,128,153.37Z"/><path class="cls-7" d="M126.08,154.37a37.57,37.57,0,0,0-5.19-2.3,33.91,33.91,0,0,0-5.81-1.22,58.06,58.06,0,0,0-5.89-.54c-2-.06-4,.09-6,.19-.23,0-.24.38,0,.37,2-.12,3.93-.27,5.9-.23a45,45,0,0,1,5.92.61,33.84,33.84,0,0,1,5.56,1.23c1.86.6,3.56,1.53,5.39,2.22C126.14,154.77,126.27,154.46,126.08,154.37Z"/><path class="cls-7" d="M124.56,157.2a9.51,9.51,0,0,0-2.5-1.47c-.87-.4-1.77-.75-2.66-1.09a33.05,33.05,0,0,0-5.73-1.49c-2-.38-4-.52-6-.73a34.19,34.19,0,0,0-6.07.14c-.2,0-.2.32,0,.31a34.74,34.74,0,0,1,5.86-.06,57.85,57.85,0,0,1,6.16.9,30.1,30.1,0,0,1,5.56,1.73c.9.4,1.79.82,2.67,1.27a7.77,7.77,0,0,0,2.45,1.12C124.62,157.87,124.78,157.4,124.56,157.2Z"/><path class="cls-7" d="M117,160.47a39.88,39.88,0,0,0-11.18-3,32.42,32.42,0,0,0-11.85.91.21.21,0,0,0,.12.41,32,32,0,0,1,11.73-.88,28.45,28.45,0,0,1,5.65,1.06c1.83.55,3.61,1.26,5.45,1.8C117.12,160.84,117.19,160.54,117,160.47Z"/><path class="cls-7" d="M119.05,163.68a26.65,26.65,0,0,0-4.29-2.27,29.13,29.13,0,0,0-4.94-1.44,48.54,48.54,0,0,0-5.08-.73,32.54,32.54,0,0,0-5.22-.17,15.32,15.32,0,0,0-5,1.06c-.19.08-.05.41.13.33a15.67,15.67,0,0,1,6-1.05,45.9,45.9,0,0,1,6.41.51,33.22,33.22,0,0,1,6.09,1.32,26,26,0,0,1,3,1.15c1,.44,1.88,1,2.83,1.5A.12.12,0,0,0,119.05,163.68Z"/><path class="cls-7" d="M117,165.62a29.78,29.78,0,0,0-10-3.29,35.36,35.36,0,0,0-10.77,0,44.5,44.5,0,0,0-6.13,1.59.23.23,0,0,0,.12.44c1.73-.52,3.41-1.07,5.19-1.42a33.57,33.57,0,0,1,5.39-.51,35.5,35.5,0,0,1,10.5,1.34,30,30,0,0,1,5.58,2A.1.1,0,0,0,117,165.62Z"/><path class="cls-7" d="M111.68,171.7c-.4-.24-.77-.5-1.2-.71a9.73,9.73,0,0,0-1.27-.48c-.95-.34-1.87-.76-2.84-1a20.6,20.6,0,0,0-6.05-.77c-2.13,0-4.25-.26-6.38-.21a25,25,0,0,0-6.08.92.26.26,0,0,0,.14.5,22.37,22.37,0,0,1,6.15-.68c2.11.08,4.19.45,6.28.7a28,28,0,0,1,5.88,1.27c.89.31,1.75.71,2.64,1a4,4,0,0,0,2.61.41A.52.52,0,0,0,111.68,171.7Z"/><path class="cls-7" d="M110.27,175c-.21-.15-.31-.33-.57-.44s-.43-.1-.64-.16c-.46-.13-.9-.28-1.36-.4-.91-.22-1.84-.4-2.75-.64s-1.88-.43-2.85-.59-1.84-.4-2.79-.52a44.6,44.6,0,0,0-5.78-.47c-.93,0-1.86-.09-2.79,0a21.37,21.37,0,0,0-3,.46c-.33.08-.19.59.14.51a19.7,19.7,0,0,1,3-.46c.93-.08,1.86,0,2.79,0a30.36,30.36,0,0,1,5.69.66c.9.16,1.77.44,2.67.64a22.67,22.67,0,0,1,2.8.75,28.12,28.12,0,0,1,2.64,1,5,5,0,0,0,2.43.8A.63.63,0,0,0,110.27,175Z"/><path class="cls-7" d="M109.05,177.56a3.4,3.4,0,0,0-.64-.09,4.15,4.15,0,0,1-.76-.23c-.42-.12-.82-.31-1.24-.45a20.49,20.49,0,0,0-2.72-.56c-1-.2-2-.4-3-.66a20.23,20.23,0,0,0-2.7-.42,24.94,24.94,0,0,0-11.42.92c-.32.11-.19.62.14.51a12.69,12.69,0,0,1,1.36-.44c.42-.1.86-.14,1.29-.2a28.6,28.6,0,0,1,2.92-.3,21,21,0,0,1,2.86,0c1,.09,1.9.1,2.85.19a16.89,16.89,0,0,1,2.92.45,26.35,26.35,0,0,0,2.79.52,12.62,12.62,0,0,1,2.79.67c.34.15.68.28,1,.4s.66.45,1,.59a.48.48,0,0,0,.82-.32V178A.51.51,0,0,0,109.05,177.56Z"/><path class="cls-7" d="M104,184.47a1.91,1.91,0,0,0-1.31-.38c-.49,0-1-.1-1.45-.15-1-.09-2-.08-3-.08a13.66,13.66,0,0,0-2.78.36c-.95.18-1.91.28-2.85.46a55.59,55.59,0,0,0-5.49,1.61,30.58,30.58,0,0,0-5.25,1.93c-.36.18-.05.71.31.53a29.61,29.61,0,0,1,5.11-1.83,53.73,53.73,0,0,1,5.41-1.54c.91-.16,1.84-.24,2.75-.39a10,10,0,0,1,2.89-.17c.94.1,1.91.19,2.84.37a7.65,7.65,0,0,0,2.69.28C104.43,185.4,104.36,184.72,104,184.47Z"/><path class="cls-7" d="M103.24,187.75a3.35,3.35,0,0,0-.95-.51,3.69,3.69,0,0,0-1.24,0c-.79.1-1.59,0-2.37.14-1,.17-2,.33-3,.43s-1.88.3-2.83.38a21.84,21.84,0,0,0-5.22,1.19c-.86.3-1.7.66-2.55,1a7.52,7.52,0,0,0-2.11,1,.21.21,0,1,0,.26.34,8.64,8.64,0,0,1,2.32-1.09c.83-.32,1.64-.68,2.49-.95s1.71-.45,2.57-.64a19.73,19.73,0,0,1,2.77-.31c1.81-.14,3.6-.14,5.41-.16a8.94,8.94,0,0,1,1.16.12,10,10,0,0,0,1.23.05,7.31,7.31,0,0,1,.94.11,1.84,1.84,0,0,0,1.07-.25A.5.5,0,0,0,103.24,187.75Z"/><path class="cls-7" d="M101.45,191.66a31.38,31.38,0,0,0-5.13.12,43,43,0,0,0-4.79.63,39.57,39.57,0,0,0-4.76,1.45A12.17,12.17,0,0,0,83,196c-.22.17.07.56.3.39a15,15,0,0,1,1.82-1.25,12,12,0,0,1,2.24-.88,34.75,34.75,0,0,1,4.5-1.22c1.56-.27,3.14-.39,4.71-.54s3.28-.31,4.92-.43A.21.21,0,0,0,101.45,191.66Z"/><path class="cls-7" d="M100.37,198.21a33.07,33.07,0,0,0-8.84,1.32A40.37,40.37,0,0,0,87.27,201c-1.38.57-2.66,1.34-4,1.91-.25.11-.14.52.11.42,1.35-.56,2.61-1.31,4-1.86A43.61,43.61,0,0,1,91.46,200a34.73,34.73,0,0,1,4.26-1c1.54-.26,3.1-.37,4.65-.55C100.52,198.44,100.53,198.21,100.37,198.21Z"/><path class="cls-7" d="M96.37,201c-2.44,0-4.81,1.09-7.1,1.82a19.71,19.71,0,0,0-3,1.22,32.6,32.6,0,0,0-3,1.95c-.28.18,0,.63.26.44.91-.61,1.78-1.27,2.74-1.8a17.53,17.53,0,0,1,3.1-1.3c2.28-.73,4.56-1.78,7-2.08C96.52,201.21,96.53,201,96.37,201Z"/><path class="cls-7" d="M96.48,203.11c-4.08.93-8.32,1.93-11.79,4.39-.27.2,0,.64.26.45a21,21,0,0,1,5.4-2.68c2-.71,4.21-1,6.21-1.85A.16.16,0,0,0,96.48,203.11Z"/><path class="cls-7" d="M95.46,209c-.94-.6-2.14-.3-3.16-.14a12,12,0,0,0-1.59.29,14,14,0,0,0-1.37.62,36.26,36.26,0,0,0-5.35,3c-.27.19,0,.63.26.45a20.88,20.88,0,0,1,2.48-1.49c.46-.22,1-.38,1.42-.59s.86-.41,1.31-.56a3.29,3.29,0,0,1,1.43-.06,8.88,8.88,0,0,0,1.63,0,6.72,6.72,0,0,0,2.94-.65A.47.47,0,0,0,95.46,209Z"/><path class="cls-7" d="M94.16,212.67a3.53,3.53,0,0,0-2.46,0,9.08,9.08,0,0,0-1.27.32c-.41.16-.81.34-1.23.49s-.71.2-1.06.34a9.11,9.11,0,0,0-1.06.58,7.7,7.7,0,0,0-1,.54c-.35.27-.67.6-1,.9s.13.62.39.39a7,7,0,0,1,1-.81,11,11,0,0,1,1.09-.4,4.82,4.82,0,0,1,.94-.34c.37-.07.75-.1,1.12-.19.75-.17,1.48-.35,2.25-.45a7.61,7.61,0,0,0,2.27-.63A.46.46,0,0,0,94.16,212.67Z"/><path class="cls-7" d="M92.7,215.48c-.7.14-1.4.22-2.09.38a10.28,10.28,0,0,0-1.8.6,13.43,13.43,0,0,0-3.11,1.95c-.19.14.06.47.25.33a13.27,13.27,0,0,1,3.18-1.83c.58-.21,1.16-.4,1.75-.56a16,16,0,0,0,1.91-.54A.17.17,0,0,0,92.7,215.48Z"/><path class="cls-7" d="M90.67,222.11a7.83,7.83,0,0,0-1.13.64c-.4.26-.82.49-1.22.75a11.32,11.32,0,0,0-2,1.73.17.17,0,0,0,.24.24,11.57,11.57,0,0,1,2-1.67c.38-.25.78-.47,1.15-.72s.69-.54,1.07-.76C90.87,222.26,90.79,222.06,90.67,222.11Z"/><path class="cls-7" d="M90.45,223.59a.21.21,0,0,0-.3-.06,24,24,0,0,0-2.7,2.23c-.3.3.17.77.46.47.8-.82,1.78-1.46,2.52-2.33A.23.23,0,0,0,90.45,223.59Z"/><path class="cls-7" d="M91.68,225.51a8.54,8.54,0,0,0-2.21,1.5,24.2,24.2,0,0,0-1.89,1.9c-.26.28.16.7.42.42a22.94,22.94,0,0,1,1.83-1.86c.65-.59,1.34-1.11,2-1.63A.19.19,0,0,0,91.68,225.51Z"/><path class="cls-7" d="M90.37,230.12a2.17,2.17,0,0,0-.3.23l-.24.25c-.16.17-.32.35-.47.54a9.72,9.72,0,0,0-.84,1.18.28.28,0,0,0,.48.28,9.46,9.46,0,0,1,.76-1.11c.14-.18.29-.35.44-.52l.24-.25a2.17,2.17,0,0,0,.23-.3C90.8,230.24,90.54,230,90.37,230.12Z"/><path class="cls-7" d="M94.74,224.85c0-.08-.13,0-.12,0,.32,2.3,1,4.54.55,6.88,0,.17.22.24.25.07A16.13,16.13,0,0,0,94.74,224.85Z"/><path class="cls-7" d="M97.73,224.94a13.44,13.44,0,0,0-.86-2c-.17-.33-.34-.68-.54-1s-.5-.46-.57-.78a.16.16,0,0,0-.31,0,.88.88,0,0,0,.18.66,8.5,8.5,0,0,1,.47.9c.33.71.72,1.37,1,2.11a13.6,13.6,0,0,1,.87,4.54.28.28,0,0,0,.55,0A13.49,13.49,0,0,0,97.73,224.94Z"/><path class="cls-7" d="M101.28,224c-.14-1-.33-2-.51-3.06a17.65,17.65,0,0,0-.86-2.85c-.29-.78-.56-1.89-1.35-2.3a.74.74,0,0,0-1.07.82,5.34,5.34,0,0,0,.63,1.08c.22.35.4.73.59,1.1a19.78,19.78,0,0,1,1.18,2.72,22.69,22.69,0,0,1,.87,2.88c.21,1,.29,2,.48,3.06.05.29.5.17.45-.13C101.5,226.17,101.42,225.06,101.28,224Z"/><path class="cls-7" d="M105,223.71a10.93,10.93,0,0,0-.12-1.71c0-.33-.2-.64-.25-1s-.08-.75-.12-1.13a11.78,11.78,0,0,0-.36-2,13,13,0,0,0-.73-2.06,10.37,10.37,0,0,0-.54-.91,3.3,3.3,0,0,1-.35-.9c-.35-1.08-1.28-2.75-2.56-2.85a.48.48,0,0,0-.46.61c.19.54.56,1,.8,1.57s.52,1.08.73,1.66a11,11,0,0,0,1,1.65c.33.6.62,1.23.89,1.86.49,1.14.81,2.34,1.3,3.48a8.43,8.43,0,0,1,.2.9,3.93,3.93,0,0,1,.13,1c0,.69.16,1.36.16,2.06a.22.22,0,0,0,.43,0C105.08,225.2,104.91,224.44,105,223.71Z"/><path class="cls-7" d="M110.06,220.53c-.21-1-.2-2.11-.34-3.17a29.87,29.87,0,0,0-1.31-5.91c-.33-.92-.5-1.82-.76-2.75a10.36,10.36,0,0,0-1.12-2.55,22.61,22.61,0,0,0-1.51-2.49c-.55-.71-1.21-1.77-2.17-1.86a.72.72,0,0,0-.71.72c.07.92,1.12,1.65,1.69,2.33s1,1.45,1.6,2.16a9.27,9.27,0,0,1,.75,1.1,10.22,10.22,0,0,1,.82,1.34c.31.81.68,1.58,1,2.36a20.91,20.91,0,0,1,1.44,5.84c.14,1,.12,2,.32,3s.25,2,.47,2.91a.13.13,0,0,0,.26-.07C110.31,222.5,110.26,221.5,110.06,220.53Z"/><path class="cls-7" d="M113.56,216.54c-.35-1.94-.58-3.89-1-5.82a37.37,37.37,0,0,0-2-5.65c-.35-.87-.78-1.7-1.08-2.59a20.88,20.88,0,0,0-1.17-2.6,6.59,6.59,0,0,0-.93-1.24c-.34-.39-.63-.83-1-1.22-.56-.61-.94-1.45-1.91-1.27a.7.7,0,0,0-.18,1.25,1.32,1.32,0,0,1,.12.2l.18.32a5.85,5.85,0,0,0,.82,1c.27.3.5.63.79.92a9.26,9.26,0,0,1,.88,1c.48.72,1,1.43,1.43,2.16a25.8,25.8,0,0,1,1.44,2.34,28.36,28.36,0,0,1,2.08,5.23c.45,1.79.74,3.57,1,5.39a46.79,46.79,0,0,1,.64,6.47.22.22,0,0,0,.44,0A37.21,37.21,0,0,0,113.56,216.54Z"/><path class="cls-7" d="M118.66,219.72c-.25-.92-.25-1.9-.44-2.84s-.26-2-.38-3-.37-1.83-.54-2.74-.39-2-.62-2.95a45.08,45.08,0,0,0-1.75-5.77,20.46,20.46,0,0,0-1.1-2.6l-1.35-2.54c-.91-1.72-2.24-4-4.22-4.6a.62.62,0,0,0-.7.9,7.8,7.8,0,0,0,1.69,1.89,15.9,15.9,0,0,1,1.67,2.24c.52.79,1.09,1.53,1.65,2.29a13.74,13.74,0,0,1,1.39,2.37,29,29,0,0,1,2.19,5.54c.47,1.85.88,3.75,1.19,5.64.18,1,.18,2.12.37,3.17s.2,2.12.47,3.13A.25.25,0,0,0,118.66,219.72Z"/><path class="cls-7" d="M125,204.23c-.15-.62-.34-1.23-.44-1.86a12,12,0,0,0-.48-2.22c-.42-1.21-.66-2.45-1.16-3.63s-.93-2.43-1.44-3.63-1.14-2.35-1.72-3.51a21.18,21.18,0,0,0-2-3.31c-.83-1.15-1.62-2.34-2.51-3.45a15.17,15.17,0,0,0-1.35-1.63c-.32-.29-1.08-.56-1.15-1,0-.17-.3-.13-.3,0a1.07,1.07,0,0,0,.45.75,7.29,7.29,0,0,1,1,.91c.83,1,1.62,2.1,2.36,3.19s1.56,2.14,2.23,3.27,1.13,2.24,1.71,3.36a33.71,33.71,0,0,1,1.62,3.63,32.35,32.35,0,0,1,1.43,3.69c.16.63.38,1.23.59,1.85a13.92,13.92,0,0,1,.36,2,32.3,32.3,0,0,1,.75,4.36,41.18,41.18,0,0,1-.08,4.58c0,.79-.13,1.57-.24,2.35s-.06,1.58-.21,2.36c0,.25.34.36.39.1a17.21,17.21,0,0,0,.16-1.89c.06-.68.19-1.34.25-2,.14-1.39.23-2.8.25-4.2A17.7,17.7,0,0,0,125,204.23Z"/><path class="cls-7" d="M128.5,206.87a31,31,0,0,0-.54-4,15.12,15.12,0,0,0-.47-1.72c-.21-.67-.32-1.35-.5-2a32.34,32.34,0,0,0-1.34-3.8c-.47-1.21-.93-2.41-1.51-3.58s-1.18-2.32-1.83-3.45-1.53-2.13-2.24-3.23a23.11,23.11,0,0,0-2.6-3.31c-.5-.51-1-1-1.52-1.51a3.61,3.61,0,0,0-.67-.57c-.26-.17-.55-.26-.8-.44s-.28.11-.16.21c.35.34.78.55,1.13.91s.85,1,1.29,1.43a26.92,26.92,0,0,1,2.46,3c.34.5.66,1,1,1.52s.78,1,1.16,1.51a27.91,27.91,0,0,1,1.82,3.19,50.3,50.3,0,0,1,3,7.18,12.32,12.32,0,0,1,.48,1.78c.13.65.36,1.27.55,1.9a21.9,21.9,0,0,1,.74,3.94c.17,1.44.24,2.88.28,4.34a12.73,12.73,0,0,1,0,2.31c-.11.67-.12,1.37-.27,2a.14.14,0,0,0,.27.08c.15-.61.14-1.23.26-1.84a8.9,8.9,0,0,0,.11-1.86C128.61,209.54,128.61,208.21,128.5,206.87Z"/><path class="cls-7" d="M131,207c-.05-.63-.07-1.25-.07-1.88s-.1-1.35-.15-2a35,35,0,0,0-.44-3.81,36.31,36.31,0,0,0-1-3.82,39.79,39.79,0,0,0-2.81-7c-.58-1.07-1.08-2.19-1.7-3.24s-1.5-2.16-2.26-3.22c-1.64-2.27-3.41-4.52-6.19-5.43-.48-.16-.79.48-.47.82.77.83,1.76,1.45,2.55,2.26a24.53,24.53,0,0,1,2.29,2.8c.73,1,1.52,2,2.2,3a34.63,34.63,0,0,1,1.72,3.17c.53,1.06,1.08,2.1,1.56,3.19s.89,2.29,1.3,3.44a31.7,31.7,0,0,1,1.76,7.2c.07.66.22,1.32.28,2s0,1.37.14,2a31.6,31.6,0,0,1,.58,4.43.45.45,0,0,0,.9,0C131.22,209.67,131.1,208.35,131,207Z"/><path class="cls-7" d="M124.07,211a28.25,28.25,0,0,1-.22-3.44A34,34,0,0,0,123,201c-.13-.53-.31-1-.43-1.58a4.63,4.63,0,0,0-.32-1.32c-.49-.93-.72-2-1.14-3a31.91,31.91,0,0,0-3.19-5.78,52.42,52.42,0,0,0-4.39-6.08.46.46,0,0,0-.76.44,10.71,10.71,0,0,0,1.44,2.84c.58.91,1.17,1.82,1.76,2.73s1.2,1.65,1.72,2.53,1.06,1.93,1.58,2.88a22.69,22.69,0,0,1,1.46,3,4.11,4.11,0,0,0,.26.66,4.94,4.94,0,0,1,.3.49c.16.4.19.87.33,1.29.35,1,.62,2.09.88,3.16a12.17,12.17,0,0,1,.33,1.57c0,.54.19,1.07.26,1.61a33.8,33.8,0,0,1,.29,3.76c0,.59.19,1.14.18,1.73a8.58,8.58,0,0,1-.31,1.89.3.3,0,0,0,.58.17A7,7,0,0,0,124.07,211Z"/><path class="cls-7" d="M137.35,200a53.06,53.06,0,0,0-1.27-9.31,51.93,51.93,0,0,0-2.93-8.66,23.61,23.61,0,0,0-2.24-4.1c-.85-1.21-1.58-2.52-2.5-3.67a23,23,0,0,0-1.64-1.79,24.69,24.69,0,0,0-1.86-1.83,12.67,12.67,0,0,0-2.14-1.43,4.33,4.33,0,0,0-2.19-.8.63.63,0,0,0-.17,1.23,8.58,8.58,0,0,1,1.68,1.14,14.88,14.88,0,0,1,1.73,1.21,33,33,0,0,1,3,3.06,31.51,31.51,0,0,1,2.36,3.35c.82,1.21,1.61,2.41,2.32,3.69a49.27,49.27,0,0,1,5.23,16.79,22.55,22.55,0,0,1,.27,5.25,38.83,38.83,0,0,1-.8,5.26c0,.17.22.24.26.07A33.14,33.14,0,0,0,137.35,200Z"/><path class="cls-7" d="M140.81,194c-.06-.4,0-.78,0-1.18-.15-1.59-.57-3.17-.83-4.75-.13-.8-.25-1.61-.46-2.4s-.54-1.52-.8-2.29-.43-1.45-.7-2.16-.62-1.46-.95-2.18-.55-1.34-.89-2-.79-1.34-1.19-2c-.79-1.28-1.71-2.44-2.5-3.71a19.77,19.77,0,0,0-3.3-3.83,11.61,11.61,0,0,0-2-1.61c-.71-.42-1.49-.72-2.2-1.14s-1.3.5-.83,1.08a4.72,4.72,0,0,0,1.58,1.26,8.66,8.66,0,0,1,1.82,1.25,22.7,22.7,0,0,1,3,3.15c.41.53.73,1.12,1.11,1.68s1,1.22,1.44,1.86a26.81,26.81,0,0,1,2.33,3.83c.62,1.36,1.29,2.66,1.8,4.07s1.22,2.87,1.63,4.39.8,3,1.14,4.51a23.41,23.41,0,0,1,.46,4.73c0,.9.06,1.8.07,2.7a17,17,0,0,1-.2,2.57c-.24,1.74-.24,3.54-.38,5.29,0,.17.25.16.26,0,.07-.85.14-1.7.2-2.55s0-1.79.19-2.67c.1-.68.25-1.35.29-2s0-1.62,0-2.43,0-1.6,0-2.39A5.4,5.4,0,0,0,140.81,194Z"/><path class="cls-7" d="M143.18,189.81a15.87,15.87,0,0,0-.25-2.06c-.18-.87-.46-1.69-.58-2.57A35,35,0,0,0,141,180.4c-.19-.67-.32-1.36-.55-2a12.05,12.05,0,0,0-1-2,43.22,43.22,0,0,0-5.08-7.36,21.89,21.89,0,0,0-3.63-3.31c-.71-.51-1.37-1.07-2.12-1.53-.6-.37-1.42-.48-1.91-1-.16-.18-.49.06-.34.26a2.91,2.91,0,0,0,1.18.84,10.69,10.69,0,0,1,1.82,1.14l1.66,1.25a23.44,23.44,0,0,1,1.79,1.67,34.23,34.23,0,0,1,5.49,7.23,15.2,15.2,0,0,1,1.93,4c.41,1.55,1,3.06,1.43,4.6.21.74.23,1.51.43,2.25a19.91,19.91,0,0,1,.59,2.54c.2,1.55.36,3.14.49,4.7.3,3.61-.62,7.22-.85,10.81,0,.14.21.14.22,0,.21-3.28.95-6.54,1-9.83C143.55,193.06,143.3,191.43,143.18,189.81Z"/><path class="cls-7" d="M149.25,184.16c-.31-1.57-.46-3.17-.82-4.74a65.84,65.84,0,0,0-3-9.5,30.85,30.85,0,0,0-4.64-8.09,49.19,49.19,0,0,0-3.59-3.77,9.92,9.92,0,0,0-3.63-2.59.19.19,0,0,0-.15.35,12.79,12.79,0,0,1,3.15,2.62c1,1.06,2.09,2.06,3.06,3.16a30.32,30.32,0,0,1,4.87,7.83c.65,1.5,1.18,3,1.76,4.58s1,2.86,1.37,4.33c.2.74.39,1.48.55,2.23s.22,1.66.38,2.48a35.09,35.09,0,0,1,.69,4.89,32.39,32.39,0,0,1-.12,5.21c-.11.95-.3,1.89-.46,2.84s-.13,1.67-.33,2.48c0,.18.22.25.26.08a22.28,22.28,0,0,0,.31-2.3c.12-.82.3-1.63.43-2.45a30.93,30.93,0,0,0,.31-4.81A26.11,26.11,0,0,0,149.25,184.16Z"/><path class="cls-7" d="M153.13,185.83a41.91,41.91,0,0,0-.29-4.75,34.67,34.67,0,0,0-.73-4.62,41.89,41.89,0,0,0-1.32-4.66c-.25-.67-.55-1.33-.78-2s-.49-1.47-.8-2.19c-.6-1.37-1.34-2.68-2.05-4a29.89,29.89,0,0,0-2.43-3.93,30.73,30.73,0,0,0-3-3.86c-.66-.63-1.32-1.25-2-1.84-.3-.24-.59-.49-.9-.71a5.7,5.7,0,0,0-1.19-.58c-.34-.14-.77.17-.54.55a7.53,7.53,0,0,0,1.41,1.41c.59.57,1.23,1.12,1.84,1.67a24,24,0,0,1,2.86,3.19,41.77,41.77,0,0,1,2.53,3.56c.79,1.3,1.56,2.62,2.26,4s1.18,2.82,1.76,4.25a41.68,41.68,0,0,1,1.36,4.37,30.91,30.91,0,0,1,.9,4.6c.2,1.57.44,3.14.49,4.73a51.1,51.1,0,0,1,.1,5.25c-.13,1.78-.44,3.55-.56,5.34,0,.25.36.25.38,0,.13-1.61.41-3.21.62-4.82A42.66,42.66,0,0,0,153.13,185.83Z"/><path class="cls-7" d="M155.47,186.61c0-1.51.05-3,0-4.55s-.21-3-.35-4.48-.42-2.84-.68-4.27a32.14,32.14,0,0,0-2.76-8.46c-.64-1.29-1.16-2.67-1.9-3.89s-1.4-2.55-2.18-3.78c-1.59-2.51-3.71-5.25-6.5-6.49-.38-.17-.82.29-.47.62a48.64,48.64,0,0,1,5.56,5.83c.85,1.12,1.54,2.32,2.31,3.5.35.54.76,1.05,1.06,1.62s.66,1.31,1,2a31.5,31.5,0,0,1,3.13,8.24c.32,1.46.66,2.92.84,4.41s.31,2.92.43,4.38c.14,1.64.05,3.3.08,4.95,0,.79.07,1.57,0,2.36,0,.36-.12.71-.13,1.07a7.62,7.62,0,0,0,.13,1.17c0,.22.37.22.34,0s-.12-.72-.12-1.08a8.48,8.48,0,0,1,.13-.88A16.58,16.58,0,0,0,155.47,186.61Z"/><path class="cls-7" d="M159.72,169.07a61.85,61.85,0,0,0-.94-6.63,53.15,53.15,0,0,0-1.69-6.08,18.81,18.81,0,0,0-2.73-5.33,18.08,18.08,0,0,0-2.19-2.51,20,20,0,0,0-2.82-2.12c-.19-.13-.38.14-.23.29.69.75,1.5,1.37,2.22,2.1a24.47,24.47,0,0,1,2,2.28,18.84,18.84,0,0,1,2.83,5.14,57.26,57.26,0,0,1,2.91,12.24,28.24,28.24,0,0,1,.25,3.55c0,1.29-.23,2.57-.32,3.85,0,.3.44.29.46,0,.09-1.14.27-2.28.33-3.43A23.45,23.45,0,0,0,159.72,169.07Z"/><path class="cls-7" d="M158.07,170.36c-.51-2-.69-4-1.13-5.93a28.57,28.57,0,0,0-2-5.82c-.87-1.9-1.8-3.81-2.86-5.62-.92-1.56-1.93-3.55-3.56-4.47a.41.41,0,0,0-.49.64,30.7,30.7,0,0,1,3.12,4.73c1,1.74,2,3.58,2.85,5.39a28.07,28.07,0,0,1,2.08,5.59c.49,1.88.76,3.81,1.29,5.68A.36.36,0,0,0,158.07,170.36Z"/><path class="cls-7" d="M185.86,190.66c-2.88-.76-5.89.9-8.48,2a33.48,33.48,0,0,0-7.59,4.25,28.9,28.9,0,0,0-2.95,2.8,17.71,17.71,0,0,0-1.46,1.54,15.39,15.39,0,0,0-1.15,1.74,12.4,12.4,0,0,0-1,1.43c-.3.66-.5,1.37-.81,2s-.64,1.12-.89,1.72a22.76,22.76,0,0,0-.75,2.15,15,15,0,0,0-.44,2.41c-.11.79-.24,1.58-.31,2.38a39.89,39.89,0,0,0-.05,5,.12.12,0,1,0,.24,0c.06-1.36.13-2.73.28-4.09s.46-2.79.77-4.17a12.72,12.72,0,0,1,1.59-4,13.22,13.22,0,0,0,.89-1.55,5.94,5.94,0,0,1,1-1.74c.85-.9,1.47-2,2.38-2.82l2.78-2.66a21,21,0,0,1,3.19-2.35,27.76,27.76,0,0,1,3.66-1.93c1.34-.61,2.72-1.19,4.1-1.72s3-1.11,4.54-.71A.88.88,0,0,0,185.86,190.66Z"/><path class="cls-7" d="M188.29,195.73a18.74,18.74,0,0,0-3.78,1.36,27.8,27.8,0,0,0-3.56,1.83c-.54.37-1.12.66-1.63,1.06s-1.09.9-1.64,1.34c-1,.81-1.84,1.81-2.85,2.63a13.94,13.94,0,0,0-2.5,3.11c-.78,1.14-1.6,2.26-2.38,3.41a29.53,29.53,0,0,0-3.75,7.17,28.39,28.39,0,0,0-1.36,8.77.18.18,0,0,0,.35,0,32.57,32.57,0,0,1,1.46-7.63,27.32,27.32,0,0,1,3.52-7c.77-1.12,1.63-2.18,2.48-3.23a30.06,30.06,0,0,1,2.58-2.83c.42-.41.91-.73,1.34-1.13s.88-1,1.4-1.41,1.06-.75,1.58-1.15a12.12,12.12,0,0,1,1.46-1.1c.62-.35,1.18-.81,1.81-1.14s1.35-.62,2-.93a21.68,21.68,0,0,1,3.92-1.45A.88.88,0,0,0,188.29,195.73Z"/><path class="cls-7" d="M189.61,202.8a14.45,14.45,0,0,0-2.72,1.57,32.07,32.07,0,0,0-2.81,2.1,19.91,19.91,0,0,0-2.66,2.18,25.45,25.45,0,0,0-2.21,2.54c-1.29,1.87-2.83,3.61-4,5.57a29.48,29.48,0,0,0-3,6.27c-.78,2.52-1.39,5.36-.73,8a.25.25,0,0,0,.48-.06,22.64,22.64,0,0,1,1.14-6.83,28.31,28.31,0,0,1,3-5.94c1.14-1.87,2.61-3.46,3.92-5.21a25.13,25.13,0,0,1,4.2-4.6c1-.76,1.85-1.63,2.83-2.37A13,13,0,0,1,190,204.1C190.77,203.79,190.43,202.5,189.61,202.8Z"/><path class="cls-7" d="M190.58,205.06a27.49,27.49,0,0,0-2.45,1.57c-.34.26-.63.58-1,.86s-.85.54-1.26.83a25.45,25.45,0,0,0-2.19,2,17.07,17.07,0,0,0-2.18,2.32c-.63.83-1.13,1.74-1.73,2.58a22.15,22.15,0,0,0-1.52,2.69c-.49.94-1,1.83-1.58,2.74s-.89,1.84-1.37,2.75a13.08,13.08,0,0,0-1,6.66.11.11,0,0,0,.22,0,17.94,17.94,0,0,1,1-6,58.93,58.93,0,0,1,2.86-5.23c.49-.89.89-1.84,1.46-2.69s1.13-1.62,1.68-2.44a30.09,30.09,0,0,1,4.11-4.41,10.94,10.94,0,0,1,1.39-1,11.06,11.06,0,0,0,1-.9,18.22,18.22,0,0,1,2.74-1.84A.22.22,0,0,0,190.58,205.06Z"/><path class="cls-7" d="M191.22,207.23c-1.43,1.4-3.2,2.41-4.63,3.81s-3,2.8-4.34,4.36a38.62,38.62,0,0,0-3.28,5.08,27,27,0,0,0-1.22,2.61c-.41.89-.59,1.83-.92,2.75-.05.13.17.22.23.09.38-.86.64-1.77,1.07-2.62a24.6,24.6,0,0,1,1.3-2.56c.54-.83,1.09-1.65,1.62-2.48A16,16,0,0,1,183,215.7c1.36-1.44,2.8-2.81,4.21-4.2s3.08-2.47,4.45-3.88A.28.28,0,0,0,191.22,207.23Z"/><path class="cls-7" d="M193.86,214.57c-.44.34-.82.75-1.26,1.1a11.37,11.37,0,0,0-1.24,1.06,9.55,9.55,0,0,0-.94,1.28,5.62,5.62,0,0,1-1.09,1,13,13,0,0,0-2.09,2.41c-.64.87-1.34,1.67-2,2.54a31.19,31.19,0,0,0-1.89,2.8c-.54,1-1,2-1.46,3a58.31,58.31,0,0,0-2.49,6.47c-.71,2.37-1.41,5.09-1,7.57a.29.29,0,0,0,.56,0c.19-1.09.23-2.21.42-3.3a28.67,28.67,0,0,1,.8-3.29,37.18,37.18,0,0,1,2.58-6.23,32.74,32.74,0,0,1,3.34-5.57c.63-.81,1.28-1.6,1.92-2.4a25.15,25.15,0,0,1,2-2.49c.38-.37.83-.68,1.19-1.08a10.7,10.7,0,0,0,.89-1.4,6.37,6.37,0,0,1,1.16-1.27c.49-.43.92-.93,1.41-1.35C195.4,214.93,194.49,214.08,193.86,214.57Z"/><path class="cls-7" d="M195.06,217.58a53.47,53.47,0,0,0-3.59,4.23,24.14,24.14,0,0,1-1.59,2.17,11.35,11.35,0,0,0-1.55,1.85c-.44.74-.75,1.53-1.2,2.26s-1,1.61-1.43,2.45c-.85,1.68-1.69,3.37-2.48,5.08a15.46,15.46,0,0,0-1,2.64c-.26,1-.26,2.11-.5,3.14a.09.09,0,1,0,.17,0,18,18,0,0,0,.51-2.53,12.7,12.7,0,0,1,.92-2.66c.77-1.67,1.66-3.28,2.48-4.93s1.83-3,2.59-4.51a7.94,7.94,0,0,1,1.52-2.11,14.66,14.66,0,0,0,1.51-1.92,51.11,51.11,0,0,1,3.92-4.91C195.55,217.68,195.25,217.38,195.06,217.58Z"/><path class="cls-7" d="M195.72,221.09a24.5,24.5,0,0,1-3.5,4.63,27,27,0,0,0-1.78,2.33c-.56.85-1.05,1.74-1.62,2.59a29.55,29.55,0,0,0-2.85,5.13,40.11,40.11,0,0,0-1.85,5.75c-.57,2.25-1.06,4.51-1.66,6.75a.1.1,0,0,0,.19,0c1.22-3.86,2.15-7.84,3.9-11.51a28.28,28.28,0,0,1,3.06-5.06c1.2-1.55,2.3-3.15,3.63-4.6a23.91,23.91,0,0,0,4-5.18C197.75,221,196.23,220.08,195.72,221.09Z"/><path class="cls-7" d="M198.8,232.48c-.46.72-1,1.37-1.5,2.09s-1,1.66-1.48,2.51a54.57,54.57,0,0,0-2.51,5.3c-.76,1.82-1.49,3.66-2.21,5.5-.65,1.67-1.51,3.47-1.39,5.3,0,.28.47.38.51.07a19.41,19.41,0,0,1,2-5.15c.82-1.75,1.64-3.52,2.47-5.27a55.48,55.48,0,0,1,2.7-5c.49-.8,1-1.62,1.46-2.4s1-1.37,1.5-2.09C200.92,232.41,199.4,231.53,198.8,232.48Z"/><path class="cls-7" d="M198.59,229.61c-.68.68-1.47,1.26-2.15,1.94-.28.28-.5.6-.75.9s-.61.64-.9,1c-.64.71-1.31,1.42-1.91,2.17s-.9,1.41-1.36,2.1a20.47,20.47,0,0,0-1.43,2.26c-.42.85-1,1.61-1.32,2.49s-.6,1.74-.87,2.61-.45,2-.77,3c-.06.17.19.23.26.07.38-.9.61-1.85,1-2.76s.68-1.8,1.1-2.66,1-1.54,1.4-2.34,1-1.49,1.47-2.24a21.12,21.12,0,0,1,1.4-2.21c.6-.69,1.16-1.42,1.75-2.12a24.15,24.15,0,0,1,1.61-1.88c.66-.63,1.36-1.2,2-1.85A.34.34,0,0,0,198.59,229.61Z"/><path class="cls-7" d="M200.21,236.94c-.46.61-1,1.14-1.42,1.79s-.81,1.3-1.24,2-.8,1.32-1.21,2-.91,1.35-1.32,2.07a37.33,37.33,0,0,0-2,4.17c-.3.74-.58,1.5-.86,2.25s-.42,1.58-.68,2.35c0,.16.21.28.28.12.33-.74.55-1.53.91-2.26s.66-1.39,1-2.09c.69-1.41,1.4-2.83,2.18-4.2.38-.68.83-1.33,1.22-2s.73-1.37,1.13-2,.77-1.32,1.16-2,1-1.2,1.4-1.82C200.94,236.93,200.43,236.64,200.21,236.94Z"/><path class="cls-7" d="M201.6,246.31a43.65,43.65,0,0,0-4,7.76,33.13,33.13,0,0,0-2.63,8.52c0,.12.18.14.21,0a69.36,69.36,0,0,1,3.09-8.25,43.47,43.47,0,0,1,4-7.69C202.48,246.28,201.85,245.92,201.6,246.31Z"/><path class="cls-7" d="M202.45,249c-2.25,4.58-4.36,9.68-4.47,14.86,0,.15.23.19.26,0a56.52,56.52,0,0,1,1.9-7.37,58.53,58.53,0,0,1,3-7.1C203.42,248.93,202.69,248.5,202.45,249Z"/><path class="cls-7" d="M203,255.44a17.27,17.27,0,0,0-.83,5.48,33.91,33.91,0,0,0,.43,5.69c0,.2.36.15.35-.05,0-.94-.07-1.89-.05-2.84s-.06-1.8-.07-2.7a17,17,0,0,1,.8-5.4C203.81,255.22,203.17,255,203,255.44Z"/><path class="cls-7" d="M209.33,260.41a10.3,10.3,0,0,0-.56-2.38,5.24,5.24,0,0,0-.63-1.25,3.85,3.85,0,0,0-.81-.7.35.35,0,0,0-.53.07,2.19,2.19,0,0,0,.27,2q.27.58.51,1.2c.12.33.14.69.26,1a4.53,4.53,0,0,1,.31,1.09,6.89,6.89,0,0,0,.22,1.27,5.5,5.5,0,0,1,0,2.79.24.24,0,0,0,.47.13,10.47,10.47,0,0,0,.36-2.67,7.71,7.71,0,0,1,.1-1.36A3.91,3.91,0,0,0,209.33,260.41Z"/><path class="cls-7" d="M212.3,258.49c-.05-.59-.06-1.19-.15-1.77a5.83,5.83,0,0,0-.54-1.67,11.06,11.06,0,0,0-1.77-3.05c-.32-.35-.64-.66-.93-1a1.09,1.09,0,0,0-1.27-.45.52.52,0,0,0-.35.62,5.26,5.26,0,0,0,.4,1,5.41,5.41,0,0,0,.91,1,17.39,17.39,0,0,1,1.91,2.58,7.24,7.24,0,0,1,1.05,3.1,15.44,15.44,0,0,1,.12,3.53c0,.43.62.42.66,0A22.38,22.38,0,0,0,212.3,258.49Z"/><path class="cls-7" d="M216.2,254.5a4.66,4.66,0,0,0-.21-1.05c-.11-.31-.27-.6-.36-.91a11.18,11.18,0,0,0-.76-1.74,16.85,16.85,0,0,0-1-1.78c-.35-.53-.58-1.13-1-1.62a10.21,10.21,0,0,0-1.3-1.41c-.24-.21-.56-.34-.79-.56s-.3-.4-.59-.55c-.58-.28-1.08-.91-1.74-1a.79.79,0,0,0-.76,1.31,5.22,5.22,0,0,0,1.37,1.1s.31.16.31.12.16.21.25.29a4.38,4.38,0,0,0,.73.48c.49.31,1,.65,1.46.95a5.53,5.53,0,0,1,1.27,1.24,8.49,8.49,0,0,1,1.05,1.6,10,10,0,0,1,.82,1.64,13.09,13.09,0,0,1,.61,1.83,13.55,13.55,0,0,1,.21,2.29.25.25,0,0,0,.5,0A13.86,13.86,0,0,0,216.2,254.5Z"/><path class="cls-7" d="M216.07,249.53c-.3-.66-.73-1.26-1-1.93a8,8,0,0,0-1-1.62c-.38-.52-.69-1.09-1.09-1.6a12.08,12.08,0,0,0-1.46-1.49,4.23,4.23,0,0,0-.72-.61,5.59,5.59,0,0,1-.89-.57,3.76,3.76,0,0,0-1.56-.92.24.24,0,0,0-.3.3.82.82,0,0,0,.4.55c.27.2.52.4.77.62a3.58,3.58,0,0,0,.76.53,4.56,4.56,0,0,1,.86.42,9,9,0,0,1,1.54,1.29,19.88,19.88,0,0,1,1.2,1.69,22.83,22.83,0,0,1,2,3.37,40.46,40.46,0,0,1,1.83,4.48c.07.2.39.12.32-.09C217.28,252.45,216.7,251,216.07,249.53Z"/><path class="cls-7" d="M221.22,244.94c-.53-.84-1-1.67-1.62-2.46s-1-1.51-1.61-2.18-1.35-1.31-2-2a4,4,0,0,0-.86-.84,8.26,8.26,0,0,1-1-.79,17.62,17.62,0,0,0-2.3-1.62c-.35-.22-.75-.36-1.12-.55s-.9-.49-1.37-.69c-.75-.34-2-1-2.81-.38a.75.75,0,0,0-.15,1.16,2.49,2.49,0,0,0,1.21.43,7.89,7.89,0,0,1,1.23.45c.4.18.79.39,1.19.59s.78.31,1.14.52c.71.42,1.46.73,2.15,1.16a10.73,10.73,0,0,0,1.09.64,3.11,3.11,0,0,1,.94.67c.64.6,1.36,1.13,2,1.73a16.4,16.4,0,0,1,1.62,1.9c.62.75,1.15,1.55,1.7,2.36a12.34,12.34,0,0,1,1.36,2.33c.09.22.45.13.37-.11A10.87,10.87,0,0,0,221.22,244.94Z"/><path class="cls-7" d="M223.47,243c-1.19-1.22-2.18-2.61-3.38-3.82-.24-.25-.38-.58-.63-.82a6.94,6.94,0,0,1-.81-.73,18.33,18.33,0,0,0-1.74-2c-.67-.61-1.35-1.21-2-1.87a11.91,11.91,0,0,0-.89-1c-.32-.29-.69-.54-1-.8a15.64,15.64,0,0,0-2.23-1.56,4.77,4.77,0,0,0-1.08-.43,2.72,2.72,0,0,0-1.07.06.4.4,0,0,0-.57.26l0,.1a.49.49,0,0,0,.12.45,11,11,0,0,0,2,1.07c.74.39,1.44.87,2.2,1.24a18.76,18.76,0,0,1,2.33,1.27,9.29,9.29,0,0,1,1.11,1c.31.28.66.52,1,.82.6.6,1.13,1.26,1.7,1.9.25.29.62.45.86.75a4.52,4.52,0,0,0,.56.67c.57.51,1.07,1.13,1.6,1.68s1.14,1.38,1.79,2A.17.17,0,1,0,223.47,243Z"/><path class="cls-7" d="M226.8,231.9a17.44,17.44,0,0,0-3.27-3.54c-1.23-1-2.63-1.76-3.92-2.66a9.88,9.88,0,0,0-2-1c-.4-.15-.79-.26-1.18-.45a11.82,11.82,0,0,0-1.1-.48c-.78-.29-1.6-.51-2.39-.77a11.63,11.63,0,0,0-1.16-.18,9.12,9.12,0,0,0-1-.21,10.43,10.43,0,0,0-2.78.28,12,12,0,0,0-1.3.37,4.56,4.56,0,0,1-1,.3c-.89.06-1.23,1.5-.23,1.67a6.72,6.72,0,0,0,2.65-.6,10.83,10.83,0,0,1,2.77-.39,3.45,3.45,0,0,1,.55.07,7.48,7.48,0,0,0,.82,0,9.41,9.41,0,0,1,1.38.29c.53.1,1.05.19,1.56.34s.89.34,1.35.47a10.24,10.24,0,0,1,2.71,1.08c.83.51,1.68,1,2.52,1.47a15.2,15.2,0,0,1,4.64,4.21C226.6,232.32,227,232.12,226.8,231.9Z"/><path class="cls-7" d="M226.9,228.87a10.57,10.57,0,0,0-1.76-1.58,7.69,7.69,0,0,1-1-.76,8.16,8.16,0,0,0-.73-.71,9,9,0,0,0-1.92-1.22,7,7,0,0,1-.9-.64,7.87,7.87,0,0,0-1.14-.53c-1.56-.69-3-1.52-4.6-2.23a10.24,10.24,0,0,0-2.29-.75l-1.22-.25c-.39-.08-.79,0-1.18-.14a8.22,8.22,0,0,0-2.62,0,9.33,9.33,0,0,0-2.71.7c-.23.09-.1.44.12.44,1.07,0,2.12-.31,3.19-.36a17.43,17.43,0,0,1,2.89.12,14,14,0,0,1,2.85.7c1,.35,1.91.9,2.86,1.34s1.93.86,2.91,1.28a5,5,0,0,1,1.09.66,11,11,0,0,0,1.14.57c.41.26.85.53,1.24.82s.67.64,1.06.9.91.54,1.34.89a11.27,11.27,0,0,1,1.15,1C226.79,229.32,227.06,229.05,226.9,228.87Z"/><path class="cls-7" d="M224.1,232.16c-1.29-.67-2.45-1.54-3.7-2.28-.64-.38-1.33-.66-2-1s-1.22-.77-1.88-1.09a33.56,33.56,0,0,0-4.07-1.69,10.35,10.35,0,0,0-2-.54,9.52,9.52,0,0,1-1.84-.28c-.19-.07-.33.2-.2.33a2.59,2.59,0,0,0,1.49.6,17.13,17.13,0,0,1,1.85.44,37.08,37.08,0,0,1,4.44,1.67c.67.3,1.27.7,1.91,1s1.31.58,1.94.91c1.32.67,2.55,1.51,3.88,2.16C224.12,232.48,224.26,232.24,224.1,232.16Z"/><path class="cls-7" d="M230.22,222.4a8.16,8.16,0,0,0-1.55-2.1c-.74-.67-1.56-1.29-2.35-1.91a26,26,0,0,0-4.92-3,21,21,0,0,0-2.67-1c-1-.32-1.93-.7-2.91-1a22.91,22.91,0,0,0-6-.54c-2.26,0-4.48.37-6.73.39a.87.87,0,0,0,0,1.74,7.16,7.16,0,0,0,1.39,0c.49-.08.95,0,1.44-.1a10.6,10.6,0,0,1,1.25-.13c.51,0,1-.08,1.51-.11a22.62,22.62,0,0,1,2.85,0c.92,0,1.85,0,2.76.14a26.55,26.55,0,0,1,2.79.72c1,.24,1.95.35,2.9.6a20.23,20.23,0,0,1,5,2.16c.92.56,1.76,1.24,2.65,1.84a7.05,7.05,0,0,1,2.23,2.47A.16.16,0,0,0,230.22,222.4Z"/><path class="cls-7" d="M229.88,217.62c-1.55-1-3.12-1.92-4.66-2.9a22.65,22.65,0,0,0-2.46-1.24,15.57,15.57,0,0,0-2.28-.93c-1.78-.51-3.49-1.3-5.31-1.63-.9-.17-1.81-.27-2.72-.35a19.13,19.13,0,0,0-2.73-.14,20.36,20.36,0,0,0-3.21.37,15.42,15.42,0,0,0-1.53.34c-.55.16-1.07.39-1.63.52a.13.13,0,0,0,0,.25,22.59,22.59,0,0,0,2.54-.46,27.09,27.09,0,0,1,3-.38,15.18,15.18,0,0,1,2.78.09c.9.12,1.81.11,2.71.23a42.55,42.55,0,0,1,10.09,3.38c.92.52,1.81,1.08,2.75,1.54s1.7,1,2.53,1.5A.11.11,0,0,0,229.88,217.62Z"/><path class="cls-7" d="M229.4,214a24.48,24.48,0,0,0-2.59-1.69c-.85-.49-1.73-.8-2.63-1.21s-1.81-.87-2.77-1.23-1.91-.72-2.85-1.11a13.34,13.34,0,0,0-2.82-.87c-.48-.08-1-.08-1.43-.12s-1-.18-1.56-.27a7.83,7.83,0,0,0-1.45-.14c-.45,0-.87-.16-1.33-.14s-.84-.14-1.27-.1l-1.68.17c-1.19.11-2.36.3-3.53.48a4,4,0,0,0-2.42,1.35.37.37,0,0,0,.44.58,6.49,6.49,0,0,1,2.41-.21,7.89,7.89,0,0,0,1.36-.23,13,13,0,0,1,1.53-.19l1.47-.15a4.09,4.09,0,0,1,.6-.07c.23,0,.46.11.7.12s.43,0,.64,0a4.64,4.64,0,0,1,.51.11c.49.08,1,0,1.47.07s.94.18,1.41.24a14,14,0,0,0,1.45,0,15.8,15.8,0,0,1,2.74.35c.95.18,1.91.38,2.84.65a28.36,28.36,0,0,1,2.68.94c1,.41,2,.7,3,1.18a21.18,21.18,0,0,1,2.88,1.77C229.41,214.4,229.58,214.08,229.4,214Z"/><path class="cls-7" d="M229.79,208c-.44-.33-.84-.71-1.28-1.05a15.54,15.54,0,0,0-1.4-.87c-.89-.56-1.82-1-2.7-1.6a19.34,19.34,0,0,0-3-1.46,18,18,0,0,0-3.07-1.22,13.92,13.92,0,0,1-1.57-.41c-.52-.19-1.06-.26-1.59-.4a28.49,28.49,0,0,0-3.19-.61,19.08,19.08,0,0,0-3.29-.3c-.51,0-1-.1-1.48-.13s-1.14,0-1.71,0a17.57,17.57,0,0,0-1.92,0c-.66.06-1.3.18-2,.26a12.27,12.27,0,0,0-1.79.34c-.31.08-.62.15-.92.26a1.91,1.91,0,0,1-.7.18c-1.12-.07-1.13,1.7,0,1.75a3.33,3.33,0,0,0,1.31-.33c.54-.18,1.09-.38,1.63-.53s1-.23,1.47-.35a9.66,9.66,0,0,1,1.75-.34,14.08,14.08,0,0,1,3.31,0,10,10,0,0,0,1.55.08,12.83,12.83,0,0,1,1.62.21c1.08.17,2.17.31,3.24.49.46.08.91.2,1.38.26s1.11.25,1.68.35a14.09,14.09,0,0,1,1.6.29c.54.15,1.06.35,1.59.54a32.5,32.5,0,0,1,3.2,1.23c.49.25.93.57,1.41.83s1.05.51,1.56.79,1.05.56,1.55.87,1,.81,1.52,1.18C229.8,208.48,230,208.15,229.79,208Z"/><path class="cls-7" d="M228.88,204.73a21,21,0,0,0-5-3.67,47.56,47.56,0,0,0-6.1-2.49,23.59,23.59,0,0,0-3.22-.89c-1.07-.22-2.13-.5-3.22-.64a23.82,23.82,0,0,0-3.27-.19,24.94,24.94,0,0,0-3.23.24,30.5,30.5,0,0,0-7.15,1.81c-.14.06-.09.28.07.23a35.56,35.56,0,0,1,6.22-1.27,33.66,33.66,0,0,1,6.34-.33,21.84,21.84,0,0,1,3.32.52c1,.21,2,.36,3,.67s2.11.65,3.16,1,2,.78,3,1.2a16.38,16.38,0,0,1,3.16,1.65,24.55,24.55,0,0,1,2.75,2.35C228.82,205,229,204.84,228.88,204.73Z"/><path class="cls-7" d="M227.06,200.82c-.94-.61-1.88-1.24-2.78-1.93a17.69,17.69,0,0,0-2.44-1.39c-.83-.44-1.76-.61-2.63-1a23.37,23.37,0,0,0-3.09-.92c-1.08-.27-2.19-.41-3.27-.65s-2-.57-3-.69a30.52,30.52,0,0,0-6.62,0c-1.16.12-2.28.39-3.43.53a6.79,6.79,0,0,0-3,1.22.36.36,0,0,0,.09.65,2.29,2.29,0,0,0,1.13-.06c.48-.08,1-.13,1.45-.2s.92,0,1.38-.11,1-.19,1.57-.24q1.55-.14,3.09-.21c1.11-.06,2.21,0,3.32,0a17.94,17.94,0,0,1,3,.29c1,.15,2.08.2,3.12.31a24.89,24.89,0,0,1,3.33.56c.41.1.8.25,1.21.37s1,.21,1.44.35a11.56,11.56,0,0,1,1.72.77,11.37,11.37,0,0,1,1.36.66c1,.66,1.93,1.32,2.93,1.94C227.07,201.19,227.22,200.93,227.06,200.82Z"/><path class="cls-7" d="M225.14,193.26a9.81,9.81,0,0,0-1.09-.94c-.44-.3-.94-.55-1.4-.81a31.89,31.89,0,0,0-3.13-1.61c-.48-.2-1-.36-1.46-.55a7.7,7.7,0,0,0-1.53-.53,35.31,35.31,0,0,1-3.51-.88c-.54-.17-1.05-.37-1.6-.5s-1.25-.19-1.88-.29c-1.17-.18-2.35-.29-3.53-.42s-2.49-.06-3.72-.07a13.85,13.85,0,0,0-1.58.15c-.56.05-1.11.07-1.67.14a13.61,13.61,0,0,0-3.71,1c-1.1.48-2.25.65-3.11,1.57a.66.66,0,0,0,.14,1,1.37,1.37,0,0,0,1.41-.06,6.91,6.91,0,0,1,1.37-.59c.51-.16,1-.4,1.48-.58a11.79,11.79,0,0,1,1.55-.41c.53-.11,1-.21,1.58-.29s1.06-.06,1.59-.16a7.58,7.58,0,0,1,1.43-.05c.64,0,1.28,0,1.92,0,1.13,0,2.28,0,3.41.09a28.06,28.06,0,0,1,3.55.34c1.16.24,2.29.45,3.46.61.49.08,1,.16,1.47.2a11.34,11.34,0,0,1,1.62.42,12.82,12.82,0,0,1,1.83.54c.59.25,1.17.56,1.76.82s1.12.58,1.69.87a7.75,7.75,0,0,1,1.49,1.14C225.08,193.53,225.25,193.36,225.14,193.26Z"/><path class="cls-7" d="M221.62,188.1a34.64,34.64,0,0,0-3.12-1.67c-1-.44-1.93-.94-2.91-1.35a23.5,23.5,0,0,0-3-1.14c-1.07-.28-2.16-.49-3.23-.81a14.58,14.58,0,0,0-3.22-.56,30.37,30.37,0,0,0-3.44-.18,30.77,30.77,0,0,0-3.57.43,19.24,19.24,0,0,0-3.08.85c-1.23.42-2.47.84-3.65,1.37a4.4,4.4,0,0,0-2.5,2,.5.5,0,0,0,.67.68,22.47,22.47,0,0,1,2.48-1.05c1-.42,2-.8,3-1.14.52-.18,1-.39,1.53-.57s.91-.2,1.35-.33a26.73,26.73,0,0,1,3.3-.65,29,29,0,0,1,3.23-.19,28.44,28.44,0,0,1,3.2-.11c.5,0,1,.18,1.49.25s1.12.15,1.68.27a16.1,16.1,0,0,1,2.89.89,54.54,54.54,0,0,1,6.79,3.19A.1.1,0,0,0,221.62,188.1Z"/><path class="cls-7" d="M232,183.17a5.7,5.7,0,0,1-.63-1.79c-.12-.65-.3-1.29-.36-1.95s.08-1.2,0-1.81c0-.14,0-.29-.05-.44s-.08-.42,0-.48.07-.28-.08-.3c-.45-.05-.6.5-.58.85a3.78,3.78,0,0,0,.1.57,7,7,0,0,1,.11,1.29,11.15,11.15,0,0,0,.49,2.13,7.67,7.67,0,0,0,.75,2.07C231.8,183.46,232,183.32,232,183.17Z"/><path class="cls-7" d="M236.68,187.34a16.84,16.84,0,0,1-.89-2.4c-.2-.78-.37-1.59-.51-2.38-.07-.4-.11-.8-.19-1.2a6.43,6.43,0,0,1-.2-1.08,16.11,16.11,0,0,0-.41-2.16c0-.18-.32-.17-.36,0a5.42,5.42,0,0,0-.18,1.14c0,.39.06.77.06,1.16a4.73,4.73,0,0,0,.27,1.17c.1.39.16.79.25,1.18a26.46,26.46,0,0,0,1.84,4.76C236.47,187.75,236.78,187.56,236.68,187.34Z"/><path class="cls-7" d="M238.18,186.74a2.73,2.73,0,0,1-.29-.68c0-.2-.06-.4-.1-.59-.21-.81-.34-1.61-.48-2.43,0-.19,0-.37,0-.56s-.06-.32-.08-.47a7.39,7.39,0,0,1-.13-1,5,5,0,0,0-.22-1.15,4.07,4.07,0,0,0-.42-1c-.08-.17-.31-.1-.37.05a2,2,0,0,0-.09.42,3.82,3.82,0,0,0-.06.68,8.46,8.46,0,0,0,.32,1.15c.07.36.22.69.31,1,0,.15.09.29.13.44s0,.39.09.59c.11.37.17.74.26,1.11s.29.84.43,1.25a5,5,0,0,0,.39,1.06,8.77,8.77,0,0,1,.58,1.24c0,.07.16,0,.13-.06A10.21,10.21,0,0,0,238.18,186.74Z"/><path class="cls-7" d="M245.23,194.39a19.65,19.65,0,0,1-1.46-2.66c-.44-1-.86-2.08-1.22-3.13a15.21,15.21,0,0,1-.78-3.33,7.63,7.63,0,0,0-.72-3,.29.29,0,0,0-.49,0,1.92,1.92,0,0,0-.15,1.43c.11.53.27,1,.42,1.57A25.91,25.91,0,0,0,242,188.7c.43,1,.93,2,1.4,3a23.92,23.92,0,0,0,1.66,2.86C245.11,194.64,245.32,194.52,245.23,194.39Z"/><path class="cls-7" d="M247.05,193.89a7.51,7.51,0,0,1-1.26-2.55c-.08-.39-.21-.74-.28-1.13a7.63,7.63,0,0,0-.25-1.05,12,12,0,0,1-.57-2.59c-.05-.44-.06-.92-.15-1.35a5.68,5.68,0,0,0-.51-1.16.3.3,0,0,0-.52,0,1.14,1.14,0,0,0-.12.48,6.36,6.36,0,0,1-.14.76,4.57,4.57,0,0,0,.06,1.38,9.48,9.48,0,0,0,.78,2.81,10.14,10.14,0,0,1,.46,1.07,10.93,10.93,0,0,0,.6,1.05,25.83,25.83,0,0,0,1.54,2.5A.21.21,0,0,0,247.05,193.89Z"/><path class="cls-7" d="M248.21,192.54c-.11-.38-.25-.75-.36-1.13-.23-.82-.47-1.63-.68-2.45a7.34,7.34,0,0,1-.2-1,1,1,0,0,0-.13-.33,1.92,1.92,0,0,1-.07-.48,5.08,5.08,0,0,0-.12-1c-.09-.34-.31-.61-.42-.94a.24.24,0,0,0-.43,0c-.33.62.1,1.32.19,1.94a2.27,2.27,0,0,0,.28,1h0c0,.06,0,.11,0,.16a5.45,5.45,0,0,0,.2.61c.26.83.59,1.64.86,2.47.14.43.31.85.43,1.29s.22.92.38,1.36c.09.25.49.14.4-.11C248.41,193.4,248.33,193,248.21,192.54Z"/><path class="cls-7" d="M258,200.49a10.7,10.7,0,0,1-2.09-2.41,17.59,17.59,0,0,1-1.63-2.56c-.45-.94-1-1.82-1.36-2.79a22.31,22.31,0,0,1-.89-3,.18.18,0,0,0-.35,0c-.54,2.22.8,4.36,1.76,6.27a16.16,16.16,0,0,0,1.88,2.78,12.19,12.19,0,0,0,2.29,2.36C258,201.44,258.35,200.78,258,200.49Z"/><path class="cls-7" d="M258.83,198.52a15.11,15.11,0,0,1-1.05-1.47c-.32-.47-.7-.9-1-1.35a12.48,12.48,0,0,1-1.69-3.08,14.21,14.21,0,0,1-.54-1.55,2.25,2.25,0,0,0-.57-1.14.81.81,0,0,0-1.29.17,1.12,1.12,0,0,0,0,1,1,1,0,0,0,.33.36c.16.28.3.56.49.83a8.34,8.34,0,0,1,.66,1c.37.69.73,1.39,1.15,2.05a22.26,22.26,0,0,0,1.39,1.81c.51.65.93,1.35,1.48,2C258.59,199.57,259.2,199,258.83,198.52Z"/><path class="cls-7" d="M261.25,197.22c-.39-.45-.8-.87-1.16-1.34a15.85,15.85,0,0,1-.93-1.52c-.31-.51-.61-1-.88-1.56a8.5,8.5,0,0,0-.92-1.61c-.21-.25-.65.08-.46.36s.38.46.56.7.34.52.5.79l1,1.64a14,14,0,0,0,.93,1.47c.35.46.75.88,1.13,1.32C261.14,197.65,261.4,197.39,261.25,197.22Z"/><path class="cls-7" d="M242.78,167.75c-.54,0-1.08-.19-1.62-.2a9.45,9.45,0,0,0-1.49.17c-.49.06-1,.06-1.48.16s-1,.34-1.55.5a21.34,21.34,0,0,0-3,1.08,13,13,0,0,1-1.48.65c-.49.16-1,.33-1.15.93a.67.67,0,0,0,.29.71,1.33,1.33,0,0,0,1.39-.16c.44-.24.86-.48,1.28-.76a17.37,17.37,0,0,1,2.79-1.49c.43-.19.84-.41,1.26-.61a7.19,7.19,0,0,1,1.57-.44,10.74,10.74,0,0,1,1.56-.38,14.62,14.62,0,0,1,1.62.06A.11.11,0,0,0,242.78,167.75Z"/><path class="cls-7" d="M247,169.27a15.44,15.44,0,0,0-1.92-.21,8.55,8.55,0,0,0-1.75.22c-.62.17-1.23.29-1.83.51s-1.13.46-1.67.72c-1.11.52-2.18,1.07-3.29,1.57-.5.22-.93.56-1.44.76s-1,.43-1.22,1,.61,1.22,1.19.92a11.19,11.19,0,0,0,2.34-1.58A18.92,18.92,0,0,1,240,171a11.79,11.79,0,0,1,1.53-.82c.58-.25,1.18-.38,1.78-.58a7,7,0,0,1,1.87-.31,16,16,0,0,1,1.83.17A.08.08,0,1,0,247,169.27Z"/><path class="cls-7" d="M251.45,171.41a20.81,20.81,0,0,0-8.35,1.37,18.64,18.64,0,0,1-3.66,1.62c-.82.18-2,.51-2.07,1.51a.84.84,0,0,0,1.41.59,4.92,4.92,0,0,1,.63-.67,8,8,0,0,1,.86-.57,32.48,32.48,0,0,1,3.21-2,19,19,0,0,1,8-1.51A.17.17,0,0,0,251.45,171.41Z"/><path class="cls-7" d="M236.19,166.65a15.43,15.43,0,0,0-2.09.78c-.64.31-1.35.49-2,.84s-1.3.89-1.95,1.31a2.06,2.06,0,0,0-1,1.22.11.11,0,0,0,.2.09,5.92,5.92,0,0,1,1.26-1.19,15,15,0,0,1,1.78-1.3c.55-.31,1.17-.48,1.74-.76a15.52,15.52,0,0,1,2.09-.8C236.36,166.8,236.31,166.61,236.19,166.65Z"/><path class="cls-7" d="M244.31,179.7s0,0,0,0Z"/><path class="cls-7" d="M255.54,174.5a24.08,24.08,0,0,0-7.29,1.62,10.19,10.19,0,0,0-3.12,1.49,15,15,0,0,0-1.28.94.84.84,0,0,0-.14,1.13.36.36,0,0,0,.62,0l0,0,.08,0,.21-.13a5.34,5.34,0,0,0,.48-.35c.38-.31.69-.7,1-1a11,11,0,0,1,1.37-1.07c.41-.26.88-.43,1.31-.66a13.66,13.66,0,0,1,3.09-1.08,15,15,0,0,1,3.64-.5A.17.17,0,0,0,255.54,174.5Z"/><path class="cls-7" d="M256.16,175.72a10,10,0,0,0-3,.37c-.47.15-1,.26-1.42.45s-.91.48-1.4.66a13.4,13.4,0,0,0-2.63,1.16c-.41.26-.82.54-1.22.82a1.06,1.06,0,0,0-.57.82c0,.17.21.24.32.13a12.63,12.63,0,0,1,2.18-1.58,17.46,17.46,0,0,1,2.31-1.1c.43-.19.84-.45,1.28-.62s.78-.23,1.16-.35a9.33,9.33,0,0,1,3-.38A.19.19,0,0,0,256.16,175.72Z"/><path class="cls-7" d="M255.88,177.76c-.86.22-1.73.31-2.58.55a19.71,19.71,0,0,0-2.39.8,11.78,11.78,0,0,0-2.16,1.08,6.53,6.53,0,0,0-1.63,1.47c-.09.14.11.26.22.17a18.89,18.89,0,0,1,3.93-2.36c.74-.34,1.5-.58,2.27-.86s1.61-.36,2.41-.59C256.12,178,256.05,177.72,255.88,177.76Z"/><path class="cls-7" d="M262.85,181.13a22.87,22.87,0,0,0-3,.44c-.94.18-1.92.32-2.84.59a19,19,0,0,0-2.57,1.15,6.53,6.53,0,0,0-1.18.67c-.16.11-.29.25-.45.35s-.43.22-.56.48a.78.78,0,0,0,.12.94l0,.05a.92.92,0,0,0,1.05.13,6.73,6.73,0,0,0,.88-.63c.32-.22.66-.4,1-.6.76-.44,1.45-1,2.22-1.43a18.55,18.55,0,0,1,2.39-1,10.92,10.92,0,0,1,2.87-.68C263.15,181.57,263.15,181.12,262.85,181.13Z"/><path class="cls-7" d="M266.69,183.15a14.28,14.28,0,0,0-3.38.22,20.8,20.8,0,0,0-3,.64,30.05,30.05,0,0,0-3,1.11,4.17,4.17,0,0,1-1.44.42c-.48,0-.9.25-1.37.31a.86.86,0,0,0-.6,1.06.88.88,0,0,0,1.06.61,2.6,2.6,0,0,0,1.31-.61c.18-.17.26-.39.47-.54a6.2,6.2,0,0,1,.69-.44,18.76,18.76,0,0,1,2.85-1.3,19.55,19.55,0,0,1,2.91-.79,12.31,12.31,0,0,1,3.52-.3C267,183.57,266.94,183.18,266.69,183.15Z"/><path class="cls-7" d="M271.7,187.38a7.65,7.65,0,0,0-2.78.07,12.32,12.32,0,0,0-2.9.89c-.93.43-1.89.72-2.85,1.07s-1.84.33-2.34,1.25a.49.49,0,0,0,.17.65,1,1,0,0,0,1.1-.07c.4-.2.78-.42,1.19-.6s.85-.48,1.29-.69a11.21,11.21,0,0,0,1.19-.62,10.44,10.44,0,0,1,2.66-1.25,7.26,7.26,0,0,1,3.17-.34C271.84,187.78,271.94,187.42,271.7,187.38Z"/><path class="cls-7" d="M271.9,189.07a10.87,10.87,0,0,0-2.4.35c-.81.21-1.59.57-2.38.85s-1.5.6-2.27.87l-1.2.43a1.34,1.34,0,0,0-.95.71.48.48,0,0,0,.28.69c.78.18,1.49-.4,2.16-.74s1.37-.77,2.08-1.11,1.44-.8,2.21-1.09a8.69,8.69,0,0,1,2.47-.51C272.19,189.5,272.19,189.05,271.9,189.07Z"/><path class="cls-7" d="M276.53,191.86c-.62.16-1.24.31-1.85.51a18.21,18.21,0,0,0-1.77.72,14.77,14.77,0,0,0-1.68.74c-.4.24-1,.56-.87,1.11a.31.31,0,0,0,.45.18,19.69,19.69,0,0,1,2.62-1.46,9,9,0,0,1,1.57-.74c.56-.19,1.12-.33,1.69-.49A.3.3,0,0,0,276.53,191.86Z"/><path class="cls-7" d="M277.62,192.63c-.51.13-1,.23-1.53.39a7.4,7.4,0,0,0-1.45.69c-.45.25-.95.42-1.42.64-.19.09-.35.24-.55.33h-.21a.75.75,0,0,0-.35.13.54.54,0,0,0-.19.72.53.53,0,0,0,.72.18,6.55,6.55,0,0,1,.93-.66c.45-.22.93-.38,1.38-.62a8.38,8.38,0,0,1,1.35-.65c.5-.16,1-.26,1.53-.38S278.11,192.51,277.62,192.63Z"/><path class="cls-7" d="M280.91,195.36a.49.49,0,0,0-.59-.33,11.39,11.39,0,0,0-2.37.72h0l-.15.06-.18.09a1.57,1.57,0,0,0-.37.24c-.18.16-.37.46-.21.69a.19.19,0,0,0,.33,0l0,0s0,0,.08,0a2.84,2.84,0,0,1,.31-.06,3.32,3.32,0,0,0,.62-.16,16.26,16.26,0,0,1,2.15-.58A.5.5,0,0,0,280.91,195.36Z"/><path class="cls-7" d="M270.11,204.14a5,5,0,0,1-1.89-1.43c-.24-.29-.44-.61-.68-.91a8,8,0,0,1-.64-.89c-.18-.33-.34-.67-.54-1a9.7,9.7,0,0,0-.82-1.09,5.09,5.09,0,0,0-1.63-1.57c-.26-.11-.69.08-.55.42s.22.72.37,1.06a5.56,5.56,0,0,0,.69,1.11c.27.38.59.73.89,1.09s.49.64.76.94a11.58,11.58,0,0,0,1.87,1.55,9.17,9.17,0,0,0,2,1.23C270.3,204.81,270.44,204.28,270.11,204.14Z"/><path class="cls-7" d="M274.35,203.28A28,28,0,0,1,272,201.7a7.45,7.45,0,0,1-1.76-1.39,10.17,10.17,0,0,0-.82-.92c-.28-.32-.55-.66-.81-1a5,5,0,0,0-.87-.91c-.13-.1-.29-.19-.41-.3a1.43,1.43,0,0,0-.32-.33.42.42,0,0,0-.51.06c-.31.27-.23.77-.1,1.12a4.52,4.52,0,0,0,.74,1.1,7.19,7.19,0,0,0,1,1c.36.3.81.52,1.14.85a5.59,5.59,0,0,0,1,.8c.36.22.73.41,1.09.63.87.52,1.7,1.11,2.59,1.62A.44.44,0,0,0,274.35,203.28Z"/><path class="cls-7" d="M277.33,202.18a32.81,32.81,0,0,1-3.23-1.53,9.93,9.93,0,0,1-2.51-1.63c-.22-.22-.53.06-.41.32a5.14,5.14,0,0,0,2.47,2,32.07,32.07,0,0,0,3.47,1.61C277.58,203.1,277.78,202.36,277.33,202.18Z"/><path class="cls-7" d="M282.26,201.21l-1-.52-1-.51a.31.31,0,0,0-.37.48,8.22,8.22,0,0,0,1,.7,10.17,10.17,0,0,0,1,.55.4.4,0,0,0,.4-.7Z"/><path class="cls-9" d="M129,248.4a.5.5,0,0,0,.08-.27.54.54,0,0,0,0-.28.73.73,0,0,0-.33-.42.71.71,0,0,0-1,.25l0,.08h-.12a.65.65,0,0,0-.47.47.8.8,0,0,0,0,.23,1.1,1.1,0,0,0,0,.18s0,.08,0,.11a.83.83,0,0,0,.07.18,1.42,1.42,0,0,1,.07.22v.07a.57.57,0,0,0,.07.29.58.58,0,0,0,.15.25l.16.12a.66.66,0,0,0,.28.09.67.67,0,0,0,.2,0,.71.71,0,0,0,.28-.09.81.81,0,0,0,.35-.46,1.68,1.68,0,0,0,.06-.45v-.12a.31.31,0,0,1,0-.09,1.15,1.15,0,0,1,.06-.17Z"/><path class="cls-9" d="M133.75,256.78a.77.77,0,0,0-.22-.38l-.18-.14a.88.88,0,0,0-.44-.12h-.28a1,1,0,0,0-.45.12.81.81,0,0,0-.3.31.86.86,0,0,0-.12.44.82.82,0,0,0,.12.43.81.81,0,0,0,.3.31l.21.09.23,0h.29a.62.62,0,0,0,.33-.07.75.75,0,0,0,.47-.47.62.62,0,0,0,.07-.33Z"/><path class="cls-9" d="M135.85,247.63a.66.66,0,0,0-.21-.23.59.59,0,0,0-.27-.14.82.82,0,0,0-.44,0,.84.84,0,0,0-.35.21l-.27.22-.06.05a.79.79,0,0,0-.17.19l-.07.14a.51.51,0,0,0-.08.29.33.33,0,0,0,0,.22.35.35,0,0,0,.12.19.64.64,0,0,0,.25.15h.08l.24,0h0l-.27.29a.1.1,0,1,0,.14.14l.33-.31a.12.12,0,0,0,0-.15l.09,0,.36-.09a.79.79,0,0,0,.56-.56l0-.22A.84.84,0,0,0,135.85,247.63Z"/><path class="cls-9" d="M132.79,239.15a.88.88,0,0,0-.4-.52,1.84,1.84,0,0,1-.4-.26.9.9,0,0,0-.26-.17,1.83,1.83,0,0,0-.32-.14l-.24,0h0a.74.74,0,0,0-.26,0,.51.51,0,0,0-.26.14.58.58,0,0,0-.2.21l-.07.18a.72.72,0,0,0,0,.41,1.29,1.29,0,0,0,.28.48l.07.07a1.55,1.55,0,0,0,.23.21l-.17-.14a4.7,4.7,0,0,0,.74.52.65.65,0,0,0,.33.11.7.7,0,0,0,.35,0,.73.73,0,0,0,.3-.16.64.64,0,0,0,.22-.24A.9.9,0,0,0,132.79,239.15Z"/><path class="cls-10" d="M122,235.54h0"/><path class="cls-9" d="M125.1,262.23a.86.86,0,0,0-.23-.39c-.08-.08-.17-.16-.25-.25l-.13-.12-.12-.09a.34.34,0,0,0-.12-.09l-.07-.05-.13-.06-.1,0-.22,0h0l-.22,0,0,0a.73.73,0,0,0-.33.19l-.06.07a.51.51,0,0,0-.09.16l0,.11v0a1.66,1.66,0,0,0,0,.22h0l0,.22,0,.1a.37.37,0,0,0,0,.11v0l0,0,0,.08a2.11,2.11,0,0,0,.19.23l.06.06.29.3a.75.75,0,0,0,.28.18.86.86,0,0,0,.68,0,.75.75,0,0,0,.28-.18l.14-.18a.88.88,0,0,0,.12-.44Z"/><path class="cls-10" d="M129.38,268.24h0"/><polygon class="cls-9" points="128.56 266.62 128.56 266.62 128.56 266.62 128.56 266.62"/><path class="cls-9" d="M128.57,266.65v0h0Z"/><path class="cls-9" d="M130.24,266.58a.51.51,0,0,0-.12-.23.5.5,0,0,0-.15-.14v-.06l-.07-.18c0-.08-.12-.15-.18-.23l-.15-.11a.62.62,0,0,0-.27-.09.31.31,0,0,0-.19,0,.62.62,0,0,0-.27.09.81.81,0,0,0-.26.26.51.51,0,0,0-.09.27.57.57,0,0,0,0,.29.67.67,0,0,0,.08.17l-.06-.14.06.14h0l.05.1.07.22c0,.09.06.19.09.28l.07.16.1.14.14.11a.57.57,0,0,0,.25.08h.18a.34.34,0,0,0,.17-.05.38.38,0,0,0,.15-.09.45.45,0,0,0,.17-.19,2.61,2.61,0,0,0,.17-.28.58.58,0,0,0,.09-.25A.54.54,0,0,0,130.24,266.58Z"/><path class="cls-9" d="M128.64,276a2.4,2.4,0,0,0-1-1.58,1,1,0,0,0-1.1.14,1.53,1.53,0,0,0-.39.83,7.19,7.19,0,0,0,0,2,4.92,4.92,0,0,0,.21,1.08,1.3,1.3,0,0,0,.55.73,1.6,1.6,0,0,0,.78.22.34.34,0,0,0,.34-.34c0-.46-.5-.54-.65-.85a2.27,2.27,0,0,1-.13-.61s0,.08,0,.12c.11.27.24.61.57.66a.72.72,0,0,0,.66-.16.83.83,0,0,0,.23-.52,1.21,1.21,0,0,0-.05-.42A2.67,2.67,0,0,0,128.64,276Z"/><path class="cls-9" d="M133.89,272.53a.58.58,0,0,0-.06-.26.46.46,0,0,0-.13-.21l-.14-.1a.63.63,0,0,0-.33-.09l-.18,0h0l-.1,0h0a.6.6,0,0,0-.27.06.68.68,0,0,0-.23.14l-.11.15a.68.68,0,0,0-.09.35c0-.06,0-.11,0-.17h0a1.77,1.77,0,0,0,0,.21.59.59,0,0,0,.07.29.18.18,0,0,0,0,.09h0l0,.11s0,.06,0,.09h0a.49.49,0,0,0,.05.16l.11.14a.48.48,0,0,0,.22.15.33.33,0,0,0,.17,0,.44.44,0,0,0,.28,0l.17-.07a.64.64,0,0,0,.24-.25.93.93,0,0,0,.05-.1h0a.72.72,0,0,0,.1-.38.09.09,0,0,0,0,0,.43.43,0,0,0,0-.07A.54.54,0,0,0,133.89,272.53Z"/><path class="cls-9" d="M141.25,265.83a.28.28,0,0,0,0-.09v0a.35.35,0,0,0-.06-.14v0a1,1,0,0,0-.09-.13l0,0-.13-.09,0,0-.16-.06h0a1.52,1.52,0,0,0-.21,0l.15,0a.62.62,0,0,0-.53.07.68.68,0,0,0-.27.26.78.78,0,0,0-.06.58,1.57,1.57,0,0,0,.1.28,1.53,1.53,0,0,0,.11.16s0,0,.05.05a.22.22,0,0,0,.13.08.26.26,0,0,0,.15,0,.41.41,0,0,0,.18-.05h.15a.82.82,0,0,0,.33-.18l0,0,.09-.12s0,0,0,0l-.07.08.08-.1a.47.47,0,0,1,.05-.1l0,.09a1,1,0,0,0,.07-.15l0-.08h0a.77.77,0,0,0,0-.15S141.26,265.84,141.25,265.83Z"/><path class="cls-9" d="M141.12,266.32h0v0h0Z"/><polygon class="cls-9" points="141.13 266.31 141.13 266.31 141.13 266.31 141.13 266.31"/><path class="cls-9" d="M123.37,253a1.37,1.37,0,0,0-.27-.57,1.52,1.52,0,0,0-.61-.54,3.29,3.29,0,0,0-.44-.16,1.35,1.35,0,0,0-.49,0,.58.58,0,0,0-.32.07.65.65,0,0,0-.27.17l-.13.17a.56.56,0,0,0-.09.31.41.41,0,0,0,0,.22.57.57,0,0,0,.08.24.47.47,0,0,0,0,.17,1.46,1.46,0,0,0,.12.33,1.38,1.38,0,0,0,.2.33,2.48,2.48,0,0,0,.37.43,1.7,1.7,0,0,0,.57.33,1.07,1.07,0,0,0,.31.06,1,1,0,0,0,.33-.07.92.92,0,0,0,.36-.2,1.14,1.14,0,0,0,.24-.43,1.34,1.34,0,0,0,.07-.4A2.12,2.12,0,0,0,123.37,253Z"/><path class="cls-9" d="M124.64,233.49a.08.08,0,0,0-.11,0,.08.08,0,0,0,0,0,.08.08,0,0,0,0,.06l.2.18a.06.06,0,1,0,.09-.09Z"/><path class="cls-9" d="M123.59,237.76a.17.17,0,0,0,0-.07l-.09-.22-.06-.08-.13-.11,0,0h0l-.06,0s0,0-.07-.06l-.15-.07s0,0,0,0a.9.9,0,0,0-.4,0,.77.77,0,0,0-.52.53,1.17,1.17,0,0,0,0,.26v0a1,1,0,0,0-.09.13.6.6,0,0,0-.06.3.58.58,0,0,0,.06.29.72.72,0,0,0,.16.25l.16.12a.76.76,0,0,0,.39.1l.2,0a.9.9,0,0,0,.34-.2,1.61,1.61,0,0,0,.24-.28l0-.07.1-.24v0a.85.85,0,0,0,0-.23A.8.8,0,0,0,123.59,237.76Z"/><path class="cls-9" d="M147.55,254.4l-.17-.21,0,0h0l-.18-.15-.06,0a.63.63,0,0,0-.3-.1.62.62,0,0,0-.33,0l-.19.08a.52.52,0,0,0-.23.21.42.42,0,0,0-.11.18.71.71,0,0,0-.07.32l0,.22a.92.92,0,0,0,.15.25v0l0-.05.06.11v0a.89.89,0,0,0,.3.31,1,1,0,0,0,.43.11h0a.76.76,0,0,0,.41-.08l.05-.06a.58.58,0,0,0,.2-.18.54.54,0,0,0,.15-.29l0-.23A1,1,0,0,0,147.55,254.4Z"/><path class="cls-9" d="M147.81,238.82a.37.37,0,0,0-.1-.17,1,1,0,0,0-.35-.22h-.05l-.15,0s0,0-.07,0a.28.28,0,0,0-.13,0h0l-.1.08a.15.15,0,0,0-.06.09.36.36,0,0,0,0,.11.3.3,0,0,0,.08.2l0,0a.29.29,0,0,0,.15.09l0,0,0,0h0a.4.4,0,0,0,.22.16.34.34,0,0,0,.2,0,.5.5,0,0,0,.23-.17.44.44,0,0,0,0-.15A.26.26,0,0,0,147.81,238.82Z"/><path class="cls-9" d="M215,297a.14.14,0,0,0-.08-.07l-.08,0-.06,0,0,0s0,0,0-.05h0a.47.47,0,0,0-.05-.1.24.24,0,0,0-.11-.06h-.13a.14.14,0,0,0-.08.05.12.12,0,0,0-.06.06.27.27,0,0,0,0,.12.28.28,0,0,0,0,.13.24.24,0,0,0,.09.08.47.47,0,0,0,.12.07,1.15,1.15,0,0,0,.17.06h.13l.12,0s.05,0,.07-.05a.11.11,0,0,0,0-.08A.14.14,0,0,0,215,297Z"/><path class="cls-9" d="M214.48,297.2h0Z"/><path class="cls-9" d="M218.57,292.54a.69.69,0,0,0,0-.35.64.64,0,0,0-.1-.33.93.93,0,0,0-.53-.4.88.88,0,0,0-.67.09l-.18.14a.93.93,0,0,0-.23.38v0a6.44,6.44,0,0,0-.3.72,2,2,0,0,0-.09.54,1.37,1.37,0,0,0,0,.19.85.85,0,0,0,0,.17,1.43,1.43,0,0,0,.26.45.88.88,0,0,0,.36.21.7.7,0,0,0,.32,0,.63.63,0,0,0,.3-.1.81.81,0,0,0,.29-.29.89.89,0,0,0,.08-.17,1.59,1.59,0,0,0,.14-.58v-.06l0-.1C218.41,292.91,218.5,292.73,218.57,292.54Z"/><path class="cls-9" d="M218.21,293.69l-.06.14s0,0,0,.05Z"/><path class="cls-9" d="M216.72,302.45a.28.28,0,0,0,0-.19l0-.07a.44.44,0,0,1-.08-.11l0,0-.11-.07h0a.43.43,0,0,0-.09-.1.4.4,0,0,0-.18-.1.55.55,0,0,0-.22,0,.48.48,0,0,0-.2.07l-.11.08a.56.56,0,0,0-.13.24l0,.14a.5.5,0,0,0,.07.27l.08.15,0,.07.13.17a.62.62,0,0,0,.17.11.45.45,0,0,0,.2,0l.14,0a.48.48,0,0,0,.23-.13l0,0a.76.76,0,0,0,.08-.11l0,0a.69.69,0,0,0,.05-.13h0a.44.44,0,0,0,0-.16v0Z"/><path class="cls-9" d="M220.38,299.06l0,0a.2.2,0,0,0-.11,0l-.09,0a.18.18,0,0,0-.07.05.21.21,0,0,0-.06.1.24.24,0,0,0,0,.12l0,.18v.05l0,.05.05,0a.08.08,0,0,0,.07,0h.05l0,0a.13.13,0,0,0,.06,0l0-.07,0-.18a.24.24,0,0,0,0-.12A.21.21,0,0,0,220.38,299.06Z"/><path class="cls-10" d="M210,303.45h0"/><path class="cls-9" d="M206.13,308.91a.46.46,0,0,0-.15-.16.56.56,0,0,0-.2-.11.6.6,0,0,0-.23,0,.57.57,0,0,0-.22.07.53.53,0,0,0-.21.21l-.05.08,0,0a.71.71,0,0,0-.08.18.76.76,0,0,0,0,.3.64.64,0,0,0,.15.25.57.57,0,0,0,.54.14h0a.75.75,0,0,0,.12-.07v0l.08-.07,0,0v0h0l0,0,.07-.07a.55.55,0,0,0,.14-.26l0-.16A.6.6,0,0,0,206.13,308.91Z"/><path class="cls-10" d="M210.81,312.09h0"/><path class="cls-9" d="M207,301.46l0-.07-.06-.16,0-.07a.12.12,0,0,0,0-.12l0,0-.06-.05-.06,0h-.11a.17.17,0,0,0-.1.07.18.18,0,0,0,0,.21v0a.18.18,0,0,0,.05.07l0,0a1.4,1.4,0,0,1,.1.16l0,.09s0,0,.06.08v0h0l0,0a.18.18,0,0,0,.23,0A.17.17,0,0,0,207,301.46Z"/><path class="cls-9" d="M211.79,295a.86.86,0,0,0-.19-.19h0l0-.06s0-.09-.07-.12a1,1,0,0,0-.17-.12l-.14-.06a.6.6,0,0,0-.23,0,.33.33,0,0,0-.14,0,.47.47,0,0,0-.19.12,1.46,1.46,0,0,0-.16.19v0l-.07.16s0,.06,0,.09a.62.62,0,0,0,0,.27h0s0,0,0,0,.05.12.07.17h0v0l.13.18,0,0,.18.14a.62.62,0,0,0,.26.09.54.54,0,0,0,.28,0,.51.51,0,0,0,.23-.12.66.66,0,0,0,.18-.19l.07-.17a.73.73,0,0,0,0-.36Z"/><path class="cls-10" d="M236.73,234.32s0,0,0,0"/><path class="cls-10" d="M236,237.58s0,0,0,0"/><path class="cls-9" d="M237.26,233.15a.62.62,0,0,0-.34-.43s0,0,0,0a.64.64,0,0,0-.9-.24.69.69,0,0,0-.3.39,1.4,1.4,0,0,0,0,.61.67.67,0,0,0,.07.18V234l0,.15.06.16a.7.7,0,0,0,.21.21.64.64,0,0,0,.58,0,.67.67,0,0,0,.2-.21.36.36,0,0,0,0-.09.18.18,0,0,0,0-.1.66.66,0,0,0,.22-.22l.07-.12A.78.78,0,0,0,237.26,233.15Z"/><path class="cls-9" d="M235.19,236.75a.78.78,0,0,0-.23-.25.61.61,0,0,0-.3-.15.94.94,0,0,0-.47,0,.85.85,0,0,0-.36.14,1.18,1.18,0,0,0-.28.22,1.38,1.38,0,0,0-.33.66,2.86,2.86,0,0,0-.06.58,1.35,1.35,0,0,0,.15.74.86.86,0,0,0,.73.42.84.84,0,0,0,.73-.42,1,1,0,0,0,.14-.54c0-.05,0-.1,0-.15s0-.05,0-.08l.14-.11a.81.81,0,0,0,.22-.38.6.6,0,0,0,0-.35A.64.64,0,0,0,235.19,236.75Z"/><path class="cls-10" d="M236,240.08s0,0,0,0"/><path class="cls-10" d="M235.77,241.23s0,0,0,0"/><path class="cls-9" d="M236.2,241.74a.75.75,0,0,0-.18-.28l-.18-.14a.75.75,0,0,0-.33-.1.45.45,0,0,0-.23,0,.75.75,0,0,0-.32.1l-.18.14a1,1,0,0,0-.23.39,2.25,2.25,0,0,1-.13.42,1,1,0,0,0,.07.81c0,.08.11.15.16.22l.06,0a.49.49,0,0,0,.21.14.63.63,0,0,0,.27.06.77.77,0,0,0,.36-.12h.07a.86.86,0,0,0,.39-.23.94.94,0,0,0,.26-.62,4,4,0,0,1,0-.49A.67.67,0,0,0,236.2,241.74Z"/><path class="cls-9" d="M224.28,269.41a.76.76,0,0,0,0-.68.57.57,0,0,0-.18-.28.88.88,0,0,0-.62-.26l-.23,0a1.15,1.15,0,0,0-.65.57,1.09,1.09,0,0,0-.15.39,1.53,1.53,0,0,0,0,.43s0,.07,0,.11a.67.67,0,0,0,0,.24.82.82,0,0,0,.21.36l-.1-.12.05.08a.78.78,0,0,0,.67.38.76.76,0,0,0,.39-.1.81.81,0,0,0,.27-.28,1.77,1.77,0,0,0,.16-.34,1.36,1.36,0,0,0,0-.29s0,0,0,0A.44.44,0,0,0,224.28,269.41Z"/><path class="cls-9" d="M226.59,267a.54.54,0,0,0-.15-.29.52.52,0,0,0-.23-.21l-.2-.09a.74.74,0,0,0-.33,0,.42.42,0,0,0-.21.06.65.65,0,0,0-.27.17.94.94,0,0,0-.23.48l0,.1a1.4,1.4,0,0,0-.13.34,1.29,1.29,0,0,0,.13,1l.09.16a.81.81,0,0,0,.25.27.58.58,0,0,0,.54,0,.6.6,0,0,0,.32-.27l.05-.09a2.92,2.92,0,0,0,.14-.31.46.46,0,0,0,.07-.16l0-.1h0l.06-.1v0a.42.42,0,0,0,0-.16l0-.1A1.34,1.34,0,0,0,226.59,267Z"/><path class="cls-9" d="M226.35,268.25a.05.05,0,0,1,0,0l-.06.15Z"/><path class="cls-9" d="M225.71,273.79c0-.1,0-.2,0-.3a.65.65,0,0,0-.07-.34.75.75,0,0,0-.18-.28.7.7,0,0,0-.29-.19.62.62,0,0,0-.33-.07l-.24,0a.83.83,0,0,0-.38.23l-.14.17a.89.89,0,0,0-.12.45,2.28,2.28,0,0,0,0,.26v.07a1.08,1.08,0,0,0,.1.41.55.55,0,0,0,0,.18.84.84,0,0,0,.06.14l0,0a.65.65,0,0,0,.4.31l0,0a.53.53,0,0,0,.28,0,.57.57,0,0,0,.25-.08l.16-.13,0,0,.16-.2.07-.12a1.83,1.83,0,0,0,.11-.26l0-.23v-.06Z"/><path class="cls-10" d="M149.55,295.77s0,0,0,0"/><path class="cls-10" d="M152.43,292.12s0,0,0,0"/><path class="cls-9" d="M152.11,296.06a.14.14,0,0,1,0-.06.7.7,0,0,0,0-.35.64.64,0,0,0-.1-.33.78.78,0,0,0-.23-.25.61.61,0,0,0-.3-.15.92.92,0,0,0-.67.08.94.94,0,0,0-.41.53c0,.09-.05.19-.08.28v0s0,.07,0,.1,0,.11-.05.18,0,.24,0,.36a.75.75,0,0,0,0,.15,2.39,2.39,0,0,0,0,.36,3.09,3.09,0,0,0,.14.32.72.72,0,0,0,.3.3.6.6,0,0,0,.31.1.65.65,0,0,0,.34,0,.87.87,0,0,0,.37-.22,1.28,1.28,0,0,0,.26-.35,1.75,1.75,0,0,0,.12-.32,2.25,2.25,0,0,0,.06-.36A1.28,1.28,0,0,0,152.11,296.06Z"/><path class="cls-9" d="M153.38,291.48a1.22,1.22,0,0,0-.15-.17.76.76,0,0,0,0-.16,3.18,3.18,0,0,0-.21-.54l-.14-.18a.75.75,0,0,0-.28-.18.43.43,0,0,0-.22-.06.69.69,0,0,0-.35,0,.94.94,0,0,0-.39.22.91.91,0,0,0-.26.62c0,.21,0,.41,0,.62v.53l0,.23a.08.08,0,0,0,0,.05l.08.21a.8.8,0,0,0,.22.23l0,0a.8.8,0,0,0,.45.32,1.24,1.24,0,0,0,.47,0,.73.73,0,0,0,.3-.16.6.6,0,0,0,.22-.25c.11-.23.21-.46.3-.7a.7.7,0,0,0,0-.35A.65.65,0,0,0,153.38,291.48Z"/><path class="cls-9" d="M155.62,300.38a.43.43,0,0,1,0-.05c0-.1,0-.2,0-.31a1.85,1.85,0,0,0,0,.23c0-.12,0-.24-.05-.36l0,.23a6.76,6.76,0,0,1,0-.9.87.87,0,0,0-.87-.88.92.92,0,0,0-.63.26.93.93,0,0,0-.25.62c0,.23,0,.46,0,.69a1.09,1.09,0,0,0,0,.18,1.76,1.76,0,0,0,.06.39,1.47,1.47,0,0,0,.29.48.48.48,0,0,0,.11.09.72.72,0,0,0,.29.15h.06a.68.68,0,0,0,.4,0,.58.58,0,0,0,.26-.13.7.7,0,0,0,.2-.22,1.08,1.08,0,0,0,.08-.19.09.09,0,0,1,0-.05A1.75,1.75,0,0,0,155.62,300.38Z"/><path class="cls-9" d="M182.5,287.54c0-.21.07-.43.08-.64l0-.22a.69.69,0,0,0-.1-.19.9.9,0,0,0-.08-.21,1.06,1.06,0,0,0-.37-.39.78.78,0,0,0-.58-.07.74.74,0,0,0-.45.34.81.81,0,0,0-.08.59l0,.06-.09.4a2.12,2.12,0,0,0-.06.44,1.65,1.65,0,0,0,0,.31.29.29,0,0,0,0,.09l.09.2a.61.61,0,0,0,.21.24.4.4,0,0,0,.19.11.66.66,0,0,0,.32.07.84.84,0,0,0,.83-.84.62.62,0,0,1,0-.13,1.85,1.85,0,0,0,0,.23C182.47,287.8,182.48,287.67,182.5,287.54Z"/><path class="cls-9" d="M184.75,283.78a.54.54,0,0,0-.15-.22.46.46,0,0,0-.22-.14.58.58,0,0,0-.26-.06l-.19,0a.92.92,0,0,0-.3.18l-.11.14a.7.7,0,0,0-.09.35v.24s0,.06,0,.09l0,.08a.69.69,0,0,0,.17.3l0,0a.41.41,0,0,0,.2.12.36.36,0,0,0,.23.05l.15,0a.56.56,0,0,0,.27-.15l0,0h0l.09-.12a.36.36,0,0,0,0-.09l0-.08,0-.08a1.9,1.9,0,0,0,0-.25v-.08A.5.5,0,0,0,184.75,283.78Z"/><path class="cls-10" d="M185.84,289.43s0,0,0,0"/><path class="cls-9" d="M186.41,287.45a.88.88,0,0,0-.52-.41.89.89,0,0,0-.68.09.93.93,0,0,0-.4.53c-.14.49-.26,1-.36,1.5a.89.89,0,0,0,.15.76.86.86,0,0,0,.69.35,1,1,0,0,0,.81-.44.83.83,0,0,0,.09-.44c.09-.43.19-.85.31-1.27A.92.92,0,0,0,186.41,287.45Z"/><path class="cls-9" d="M199.57,289.23a.83.83,0,0,0,0-.15,1.6,1.6,0,0,0-.1-.23,1.49,1.49,0,0,0-.15-.2,1.64,1.64,0,0,0-.25-.21l-.1-.06a1,1,0,0,0-.22-.09,1,1,0,0,0-.45,0l.21,0-.21,0-.19.08h0a.56.56,0,0,0-.18.14,1.41,1.41,0,0,0-.14.18,1.19,1.19,0,0,0-.08.2h0a2.7,2.7,0,0,0,0,.28v.1c0,.14,0,.28,0,.41a1.18,1.18,0,0,0,0,.2l.08.2a.66.66,0,0,0,.21.23.51.51,0,0,0,.16.09l.07.09,0,.05a.75.75,0,0,0,.18.13.92.92,0,0,0,.42.12l.17,0a.51.51,0,0,0,.22-.11.69.69,0,0,0,.23-.33,3.53,3.53,0,0,0,.13-.78A1.86,1.86,0,0,0,199.57,289.23Z"/><path class="cls-10" d="M198.52,290.2h0"/><path class="cls-9" d="M202.49,285.68a1.49,1.49,0,0,0-.15-.2l0,0-.09-.09a.57.57,0,0,0-.28-.18.76.76,0,0,0-.68,0,.57.57,0,0,0-.28.18l-.14.18a.83.83,0,0,0-.12.44l0,.23a1,1,0,0,0,.23.39l.09.08,0,.05a1.49,1.49,0,0,0,.2.15.79.79,0,0,0,.45.11.62.62,0,0,0,.33-.07.57.57,0,0,0,.28-.18l.13-.17a.82.82,0,0,0,.12-.43A.87.87,0,0,0,202.49,285.68Z"/><path class="cls-10" d="M189.88,299.22h0"/><path class="cls-9" d="M190.19,302.17s0-.05-.05-.05l0-.06,0,0a.43.43,0,0,0,0,0h0s0,0,0-.06h0a.41.41,0,0,0,.08-.24,4.85,4.85,0,0,1,0-.66.49.49,0,0,0-.29-.41,5,5,0,0,0-.11-.53.46.46,0,0,0-.55-.31.45.45,0,0,0-.3.55c.13.44.17.89.33,1.32l0,.2a1.34,1.34,0,0,0,.39,1,.44.44,0,0,0,.62,0A.46.46,0,0,0,190.19,302.17Z"/><polygon class="cls-9" points="193.01 303.96 193 303.96 193 303.97 193.01 303.96"/><path class="cls-9" d="M193,304l0,0a.08.08,0,0,0,0,0Z"/><path class="cls-9" d="M193.31,303.06l0-.2a.5.5,0,0,0-.13-.25.33.33,0,0,0-.13-.13.66.66,0,0,0-.26-.14l-.19,0a.72.72,0,0,0-.38.1l-.22.17a1.73,1.73,0,0,0-.17.21s-.05.09-.08.14a1.22,1.22,0,0,0-.1.24.7.7,0,0,0,0,.29v.08a.77.77,0,0,0,.11.39l0,.05,0,.06.1.14.15.11h0l.08,0a.43.43,0,0,0,.25,0l.17,0,.16-.06h0c.15-.11.11-.07.2-.18A.71.71,0,0,0,193,304l0,0s.05-.09.08-.14l0,.07s0,0,0-.05h0v0h0s0,0,.05-.08,0-.1,0-.15h0v-.09a.91.91,0,0,0,.11-.16A.72.72,0,0,0,193.31,303.06Z"/><path class="cls-9" d="M180.84,305.31a.6.6,0,0,0-.22-.25.73.73,0,0,0-.3-.16l-.24,0a.88.88,0,0,0-.44.12l-.18.14a.72.72,0,0,0-.14.2c-.07.15-.15.31-.22.47a3.2,3.2,0,0,0-.17.43.76.76,0,0,0,0,.11,1,1,0,0,0,0,.29,2.48,2.48,0,0,0,0,.27l.09.21a.64.64,0,0,0,.22.24.52.52,0,0,0,.19.11.62.62,0,0,0,.33.07h0l.23,0a.62.62,0,0,0,.29-.15.54.54,0,0,0,.15-.15s0-.07.05-.1h0s0-.05,0-.07a.33.33,0,0,0,.07-.13v-.06l0,0a.43.43,0,0,1,0-.11l0-.12a1,1,0,0,1,.07-.15c.07-.15.13-.3.2-.46a.69.69,0,0,0,0-.35A.62.62,0,0,0,180.84,305.31Z"/><path class="cls-9" d="M151.89,245.5a.79.79,0,0,0-.18-.29l-.18-.13a.86.86,0,0,0-.44-.12l-.24,0a.91.91,0,0,0-.38.22l-.17.17-.09.09-.17.22,0,.05-.08.2a.66.66,0,0,0,0,.34.43.43,0,0,0,.06.22.5.5,0,0,0,.18.27l.17.14.2.08a.6.6,0,0,0,.35,0,.71.71,0,0,0,.31-.1l0,0,.22-.17.09-.08a1.37,1.37,0,0,1,.17-.17.79.79,0,0,0,.18-.29.63.63,0,0,0,.07-.34A.62.62,0,0,0,151.89,245.5Z"/><path class="cls-9" d="M156.18,235.25l-.09,0,.08,0h0Z"/><path class="cls-9" d="M157.34,235.45a.61.61,0,0,0-.2-.22.76.76,0,0,0-.59-.16.63.63,0,0,0-.29.1s0,.05-.08.08h0a.78.78,0,0,0-.39.31l-.07.18a.66.66,0,0,0,0,.31.33.33,0,0,0,.06.19.61.61,0,0,0,.15.24l.16.12,0,0a.84.84,0,0,0,.41.11.91.91,0,0,0,.23,0h0a.91.91,0,0,0,.25-.11l.16-.13h0l0,0a.94.94,0,0,0,.2-.35l0-.21A.8.8,0,0,0,157.34,235.45Z"/><path class="cls-9" d="M171.6,258.81a1,1,0,0,0,0-.1.13.13,0,0,1,0-.06v.06h0a1,1,0,0,0,0-.17c0-.13,0-.27,0-.41a.62.62,0,0,0-.07-.33.7.7,0,0,0-.19-.29.68.68,0,0,0-.28-.18.65.65,0,0,0-.34-.07l-.23,0a.94.94,0,0,0-.39.22.9.9,0,0,0-.25.62,4.56,4.56,0,0,0,0,.52,1.35,1.35,0,0,0,.18.65,1.69,1.69,0,0,0,.2.25l.21.16,0,0,.19.08.22,0a.84.84,0,0,0,.41-.11.56.56,0,0,0,.22-.21.72.72,0,0,0,.15-.27A1,1,0,0,0,171.6,258.81Z"/><path class="cls-9" d="M175.8,263.45c-.05-.1-.11-.19-.16-.28s0,0,0-.05a1.34,1.34,0,0,0-.07-.18.84.84,0,0,0-.21-.21.56.56,0,0,0-.4-.05l-.14.06a.6.6,0,0,0-.24.28.88.88,0,0,0,0,.15,1,1,0,0,0,0,.34.91.91,0,0,0,.06.32l.08.18.1.14a.36.36,0,0,0,0,.25.31.31,0,0,0,.21.16.32.32,0,0,0,.27,0s0,0,0-.06a.35.35,0,0,0,.11,0,.55.55,0,0,0,.36-.15.54.54,0,0,0,.15-.45A1.41,1.41,0,0,0,175.8,263.45Z"/><path class="cls-9" d="M166.07,278l0-.06s0-.05,0-.08a.76.76,0,0,0,0-.68.75.75,0,0,0-.18-.28.91.91,0,0,0-.62-.26l-.24,0a1,1,0,0,0-.38.23,1.48,1.48,0,0,0-.28.33,1,1,0,0,0-.15.34,1.18,1.18,0,0,0,.14.9l0,.06c0,.06.1.14.15.19a1.49,1.49,0,0,0,.2.15l.12.09a.87.87,0,0,0,.31.1l.1,0-.06,0a.53.53,0,0,0,.37,0l.13-.05a.64.64,0,0,0,.2-.2l0-.05a1.19,1.19,0,0,0,.08-.2,1.88,1.88,0,0,0,.05-.33v0a.83.83,0,0,0,0-.22S166.08,278,166.07,278Z"/><path class="cls-10" d="M168.75,277.91s0,0,0,0"/><path class="cls-10" d="M167,284.82h0"/><path class="cls-11" d="M125.7,242.67l0,0a0,0,0,0,1,0,0Z"/><polygon class="cls-11" points="125.66 242.72 125.66 242.72 125.65 242.73 125.66 242.72"/><path class="cls-11" d="M125.77,242.57l-.07.1,0,0Z"/><path class="cls-11" d="M126,241.75a.59.59,0,0,0-.14-.27.79.79,0,0,0-.53-.3.7.7,0,0,0-.32,0,.84.84,0,0,0-.35.21l-.06.06-.08.1-.07.09s0,0,0,0v0l-.09.21h0l0,.21s0,.09,0,.12a.59.59,0,0,0,0,.13,0,0,0,0,0,0,0l.07.19.12.15.16.12a.49.49,0,0,0,.28.09.38.38,0,0,0,.21,0,.32.32,0,0,0,.19,0,.37.37,0,0,0,.17-.1.44.44,0,0,0,.13-.14.41.41,0,0,0,.07-.11l0,0,0,0,0,0,0,.05-.11.08a.69.69,0,0,0,.17-.17l0,0h0l0,0,0,0a.43.43,0,0,1,0-.07s.07-.05.09-.09,0-.12.08-.19A.79.79,0,0,0,126,241.75Z"/><path class="cls-11" d="M125.8,242.49l0,0,0,0h0Z"/><path class="cls-11" d="M126,235.31a.57.57,0,0,0-.15-.16.38.38,0,0,0-.2-.1.36.36,0,0,0-.23,0,.33.33,0,0,0-.21.07.58.58,0,0,0-.21.2l0,.06,0,0v0h0a.37.37,0,0,0-.06.21.19.19,0,0,0,0,.15.25.25,0,0,0,0,.08l0,.13a.46.46,0,0,0,.15.16.24.24,0,0,0,.12.07.42.42,0,0,0,.22,0h0l.15,0a.39.39,0,0,0,.19-.1l.06,0h0l0,0,0-.05a.58.58,0,0,0,.15-.25l0-.16A.6.6,0,0,0,126,235.31Z"/><path class="cls-11" d="M137.79,252.32a.41.41,0,0,0-.14-.2l-.13-.11a.72.72,0,0,0-.32-.08l-.18,0a.62.62,0,0,0-.28.17l-.06,0,0,0h0l-.07.06a.18.18,0,0,0-.07.05h0a.43.43,0,0,0-.11.12.39.39,0,0,0-.07.23.46.46,0,0,0,0,.26l.06.15a.72.72,0,0,0,.23.23l.15.06a.65.65,0,0,0,.34,0h0l.16-.06h0l0,0,.07,0,.06,0,.19-.15a.49.49,0,0,0,.14-.21.42.42,0,0,0,.05-.25A.43.43,0,0,0,137.79,252.32Z"/><path class="cls-12" d="M137.2,260.76h0"/><path class="cls-12" d="M134.47,249.09h0"/><path class="cls-11" d="M135.39,248.92l-.07-.15a.57.57,0,0,0-.23-.23l-.15-.07a.65.65,0,0,0-.34,0l-.22.08h0l-.15.06,0,0h0l-.07.05-.06,0a.18.18,0,0,0-.05.07.22.22,0,0,0-.08.13.69.69,0,0,1,0,.08h0a.34.34,0,0,0,0,.17l0,.16a.65.65,0,0,0,.15.27h0l.12.1.15.06h0l.17,0h0a.14.14,0,0,0,.09,0,.28.28,0,0,0,.15,0l-.06,0,.23-.06a.46.46,0,0,0,.22-.11.55.55,0,0,0,.16-.18.49.49,0,0,0,.08-.24A.53.53,0,0,0,135.39,248.92Z"/><path class="cls-11" d="M147.76,241.44a.37.37,0,0,0-.07-.12,1.77,1.77,0,0,0-.17-.12l-.07,0h0s0,0-.07,0h-.1l-.06,0h0l-.05,0a.1.1,0,0,0,0,.07.07.07,0,0,0,0,.06.14.14,0,0,0,0,.09l0,.08h0s0,0,0,0,0,0,0,0l.05,0h0l0,0,.08.07.08,0a.23.23,0,0,0,.11,0,.17.17,0,0,0,.1,0,.19.19,0,0,0,.09,0l0-.06a.23.23,0,0,0,0-.14Z"/><path class="cls-11" d="M152.17,234.49a.62.62,0,0,0-.14-.25.51.51,0,0,0-.21-.2l-.18-.07a.68.68,0,0,0-.4,0l-.08,0h0l-.19,0h0a.77.77,0,0,0-.34.19.9.9,0,0,0-.21.81.79.79,0,0,0,.54.54H151l.21,0h.11l.11,0h0l.2-.08-.18.08.23-.1h0l.17-.14s0,0,0,0a1.49,1.49,0,0,0,.15-.2.49.49,0,0,0,.09-.28A.65.65,0,0,0,152.17,234.49Z"/><path class="cls-12" d="M156,240s0,0,0,0"/><path class="cls-11" d="M151.93,284.19c0-.07,0-.13,0-.19l0-.1a.71.71,0,0,0-.18-.3s-.06,0-.09-.06v-.06a.46.46,0,0,0-.46-.45.46.46,0,0,0-.45.45,3.64,3.64,0,0,0,0,.66,1.48,1.48,0,0,0,.13.51,1.28,1.28,0,0,0,.26.35.48.48,0,0,0,.75-.1A.89.89,0,0,0,151.93,284.19Z"/><path class="cls-12" d="M154.62,285.76h0"/><path class="cls-11" d="M129.31,279.12a1.85,1.85,0,0,0,0-.23s0,0,0-.06l-.09-.2,0-.05-.15-.18a1.3,1.3,0,0,0-.18-.15l-.05,0a1,1,0,0,0-.21-.09h-.05a.69.69,0,0,0-.2,0h-.14l-.11,0h0l-.18.08h0l-.15.12h0l-.14.18,0,0a1.8,1.8,0,0,0-.08.21l0,0a2.7,2.7,0,0,0,0,.28v.11a1.54,1.54,0,0,0,0,.3.36.36,0,0,0,0,.11,1.19,1.19,0,0,0,.11.26l0,.07.12.12.08,0,0,0,.14.06a.29.29,0,0,0,.13,0,.56.56,0,0,0,.17.09.66.66,0,0,0,.5-.06,1.28,1.28,0,0,0,.38-.39,1,1,0,0,0,.11-.25.58.58,0,0,0,0-.19,1.49,1.49,0,0,0,0-.21Z"/><path class="cls-12" d="M127.8,283.49s0,0,0,0"/><path class="cls-11" d="M127.29,283.4a1,1,0,0,0-.23-.39l-.18-.13a.86.86,0,0,0-.44-.12.67.67,0,0,0-.34.07.75.75,0,0,0-.28.18.86.86,0,0,0-.23.39.94.94,0,0,0,0,.47,2.14,2.14,0,0,0,.1.22v0l0,0,.15.2,0,0a1.25,1.25,0,0,0,.19.15h0l.09,0a.66.66,0,0,0,.3.07l.21,0,.19-.08a.61.61,0,0,0,.16-.12l.12-.16a.36.36,0,0,0,0-.09.37.37,0,0,0,0-.2.52.52,0,0,0,0-.17A.9.9,0,0,0,127.29,283.4Z"/><path class="cls-11" d="M146.86,300.18l0,.11s0-.08,0-.13a1.13,1.13,0,0,0,0-.25l-.09-.21a.92.92,0,0,0-.31-.31.64.64,0,0,0-.33-.1.6.6,0,0,0-.35,0,.73.73,0,0,0-.3.16.64.64,0,0,0-.22.24.89.89,0,0,0-.12.45.49.49,0,0,0,0,.12v0a2.34,2.34,0,0,0,0,.26.43.43,0,0,1,0,.05v0a2.14,2.14,0,0,0,.1.22l0,.05a1.63,1.63,0,0,0,.17.22h0l.17.13h0l.2.09a.66.66,0,0,0,.34,0,.43.43,0,0,0,.22-.06.65.65,0,0,0,.27-.17l.13-.17.09-.21a.65.65,0,0,0,0-.34A.62.62,0,0,0,146.86,300.18Z"/><path class="cls-12" d="M149.62,302h0"/><path class="cls-11" d="M148.85,303.07a.28.28,0,0,1,0-.09.2.2,0,0,1,0-.07Z"/><path class="cls-11" d="M150.47,302.7a1.69,1.69,0,0,0-.08-.24.88.88,0,0,0-.19-.34l-.06-.07a.46.46,0,0,0-.16-.11.56.56,0,0,0-.31-.42.53.53,0,0,0-.57.11,1.14,1.14,0,0,0-.28.75,2,2,0,0,0,0,.6,1.51,1.51,0,0,0,.15.54.91.91,0,0,0,.57.46.69.69,0,0,0,.45,0,.72.72,0,0,0,.33-.29,1.86,1.86,0,0,0,.1-.25,1.36,1.36,0,0,0,.06-.29A2,2,0,0,0,150.47,302.7Z"/><path class="cls-11" d="M165.64,299.76v-.07a.51.51,0,0,0-.06-.27.57.57,0,0,0-.15-.23.44.44,0,0,0-.22-.14.55.55,0,0,0-.28-.07l-.09,0h0l-.19,0a.5.5,0,0,0-.25.13.4.4,0,0,0-.13.13.42.42,0,0,0-.09.16.41.41,0,0,0,0,.18.57.57,0,0,0,0,.29,1.21,1.21,0,0,0,.09.2l0,0,0,.06,0,.06,0,.06a.72.72,0,0,0,.26.26.71.71,0,0,0,.37.1.66.66,0,0,0,.37-.1.46.46,0,0,0,.21-.18.67.67,0,0,0,.13-.25A.65.65,0,0,0,165.64,299.76Z"/><path class="cls-12" d="M165.68,293.64h0"/><path class="cls-12" d="M165.53,294.55h0"/><path class="cls-12" d="M165.68,295.45h0"/><path class="cls-11" d="M167.89,296.43a.86.86,0,0,0-.23-.39l-.17-.13a.31.31,0,0,0-.12-.05.22.22,0,0,0-.07-.09l-.07-.1-.18-.13a.65.65,0,0,0-.32-.11.49.49,0,0,0-.24,0,.65.65,0,0,0-.32.11l-.18.13-.14.18a.64.64,0,0,0-.1.33.7.7,0,0,0,0,.35h0a1.89,1.89,0,0,0,.09.21h0l0,0v0a.43.43,0,0,1,0,.07l.18.23.06.06a2.11,2.11,0,0,0,.23.19l.06,0,.24.1h0a1,1,0,0,0,.3,0,.65.65,0,0,0,.34-.07.9.9,0,0,0,.47-.47.65.65,0,0,0,.07-.34Z"/><path class="cls-11" d="M200.29,298.82a.71.71,0,0,0-.1-.31l-.13-.17a.91.91,0,0,0-.37-.21l-.22,0a.92.92,0,0,0-.43.11l-.06,0a2.31,2.31,0,0,0-.24.2,1.87,1.87,0,0,0-.29.34l-.07.11a2.44,2.44,0,0,0-.1.24.14.14,0,0,0,0,.06v0l0,.24v.05s0,.11,0,.12,0,.08,0,.12v0l0,.11,0,.1a.62.62,0,0,0,.14.18l0,0h0l.17.14a1.73,1.73,0,0,0,.24.1,1,1,0,0,0,.51,0,.89.89,0,0,0,.26-.09A1,1,0,0,0,200,300a1.21,1.21,0,0,0,.15-.54l0,.21a2,2,0,0,0,0-.36.51.51,0,0,0,.09-.18A.65.65,0,0,0,200.29,298.82Z"/><path class="cls-11" d="M199.46,300.45h0l-.19,0Z"/><path class="cls-11" d="M198,295.69a.61.61,0,0,0-.14-.29.54.54,0,0,0-.15-.15.61.61,0,0,0-.29-.14l-.09,0a.42.42,0,0,0-.19-.06H197a.57.57,0,0,0-.25.08l-.23.18a.56.56,0,0,0-.17.27.34.34,0,0,0-.05.11l0,.25a.67.67,0,0,0,.05.31.82.82,0,0,0,.21.36.78.78,0,0,0,.37.22.82.82,0,0,0,.44,0,.83.83,0,0,0,.37-.22l.12-.1a.56.56,0,0,0,.17-.26.6.6,0,0,0,.07-.32Z"/><path class="cls-11" d="M214.45,304.24a.3.3,0,0,0,0-.1,1,1,0,0,0-.11-.24.77.77,0,0,0-.55-.36.71.71,0,0,0-.63.21,1.49,1.49,0,0,0-.3.44,5.77,5.77,0,0,0-.22.58,1.83,1.83,0,0,0,.1,1.36.76.76,0,0,0,.29.3.71.71,0,0,0,.31.1.62.62,0,0,0,.33,0,.85.85,0,0,0,.37-.21l0-.06s.05-.08.08-.12a1.15,1.15,0,0,0,.27-.45,2.94,2.94,0,0,0,.1-.58,2.36,2.36,0,0,0,0-.46A2.44,2.44,0,0,0,214.45,304.24Z"/><path class="cls-11" d="M213.38,300.3h0v-.05l-.08-.18a.63.63,0,0,0-.19-.21.51.51,0,0,0-.16-.09.59.59,0,0,0-.29-.07l-.2,0-.18.08a.48.48,0,0,0-.21.19.5.5,0,0,0-.13.25.88.88,0,0,0,0,.27s0,.06,0,.08l0,.16a.64.64,0,0,0,.06.28.63.63,0,0,0,.39.39.64.64,0,0,0,.28.06l.19,0a.68.68,0,0,0,.32-.18l.12-.15a.75.75,0,0,0,.09-.37l0-.16v-.09Z"/><path class="cls-11" d="M228.36,276.51a.72.72,0,0,0-.07-.33.75.75,0,0,0-.18-.28l-.18-.13a.82.82,0,0,0-.43-.12l-.23,0a.84.84,0,0,0-.39.22l-.06.07-.16.21a1.28,1.28,0,0,0-.11.24.29.29,0,0,0,0,.09c0,.09,0,.18,0,.26v.05a.62.62,0,0,0,.07.33.56.56,0,0,0,.18.27l.17.14a.71.71,0,0,0,.31.1.45.45,0,0,0,.23,0,.75.75,0,0,0,.32-.1l.17-.14a.87.87,0,0,0,.22-.37h0v0h0a1.88,1.88,0,0,0,.12-.18A.8.8,0,0,0,228.36,276.51Z"/><path class="cls-11" d="M228.53,271.92h0a.27.27,0,0,0,0-.09.2.2,0,0,0,0-.09v-.05h0a.49.49,0,0,0-.11-.2.24.24,0,0,0-.1-.1.44.44,0,0,0-.19-.1.89.89,0,0,0-.22,0h0l-.18,0-.16.07a1.09,1.09,0,0,0-.17.13l0,0-.12.15v0l0,0v0l-.09.2a.9.9,0,0,0,0,.4.7.7,0,0,0,.2.33l.15.12a.72.72,0,0,0,.38.1.58.58,0,0,0,.29-.06.54.54,0,0,0,.24-.16.7.7,0,0,0,.2-.33A.9.9,0,0,0,228.53,271.92Z"/><path class="cls-12" d="M220.22,268.79s0,0,0,0"/><path class="cls-11" d="M221.54,266.33a.59.59,0,0,0,0-.35.54.54,0,0,0-.15-.3.69.69,0,0,0-.25-.23l-.21-.09a.94.94,0,0,0-.47,0l-.21.09a.87.87,0,0,0-.31.32,1.11,1.11,0,0,0-.18.36.9.9,0,0,0,0,.46.94.94,0,0,0,.22.39l.08.07.17.13a.63.63,0,0,0,.32.1.41.41,0,0,0,.22,0,.63.63,0,0,0,.32-.1l.17-.13.13-.17a.71.71,0,0,0,.1-.32h0A.57.57,0,0,0,221.54,266.33Z"/><path class="cls-11" d="M232.39,242l0-.14,0,0a.27.27,0,0,0,0-.09.49.49,0,0,0-.09-.28.88.88,0,0,0-.46-.36,1.32,1.32,0,0,0-.28,0h-.06a.71.71,0,0,0-.32.07.68.68,0,0,0-.27.18.85.85,0,0,0-.24.59l0,.22s0,.05,0,.08a2,2,0,0,0,0,.34,1.55,1.55,0,0,0,0,.31s0,0,0,0a.94.94,0,0,0,.1.23l.12.16a.56.56,0,0,0,.24.16.45.45,0,0,0,.19,0,.54.54,0,0,0,.31,0,.92.92,0,0,0,.6-.47,1.45,1.45,0,0,0,.16-.65C232.43,242.22,232.4,242.09,232.39,242Z"/><path class="cls-11" d="M235.05,245.19v-.07a1.88,1.88,0,0,0-.05-.33.91.91,0,0,0-.1-.29,1,1,0,0,0-.3-.29l-.14-.06a.55.55,0,0,0-.22,0,.33.33,0,0,0-.14,0,.44.44,0,0,0-.18.12.94.94,0,0,0-.18.21.44.44,0,0,1-.08.11l.12-.14-.26.33-.06.1c-.05.1-.09.21-.13.31a.9.9,0,0,0,0,.46l.09.21a.84.84,0,0,0,.31.31.6.6,0,0,0,.32.1.65.65,0,0,0,.34,0,1,1,0,0,0,.52-.4.86.86,0,0,0,.12-.44,1.21,1.21,0,0,1,0-.19l0,.22A1.45,1.45,0,0,0,235.05,245.19Z"/><path class="cls-12" d="M236.28,238.64s0,0,0,0"/><path class="cls-11" d="M237,232.62a.51.51,0,0,0-.28-.22h0l0,0-.08-.06a.24.24,0,0,0-.14,0,.21.21,0,0,0-.11,0,.3.3,0,0,0-.15,0,.61.61,0,0,0-.19.2.33.33,0,0,1,0,.06.24.24,0,0,0,0,.12s0,.05,0,.08v.05a.78.78,0,0,1,0,.14v0h0a.61.61,0,0,0,0,.12l.08.1.09.07h0l.1,0a.46.46,0,0,0,.26.07.48.48,0,0,0,.26-.07l.1-.08a.41.41,0,0,0,.13-.23.27.27,0,0,0,0-.2A.33.33,0,0,0,237,232.62Z"/><path class="cls-11" d="M182.3,272.37h0a1.72,1.72,0,0,0,0-.24h0s0,0,0-.06v0a1.6,1.6,0,0,0-.1-.23l0-.05a.6.6,0,0,0-.22-.25.73.73,0,0,0-.3-.16l-.23,0a.83.83,0,0,0-.44.12l-.2.15a.8.8,0,0,0-.31.32l-.09.21a.9.9,0,0,0,0,.46.62.62,0,0,0,.16.3.66.66,0,0,0,.24.23.55.55,0,0,0,.3.09l.08,0a.42.42,0,0,0,.21.06.67.67,0,0,0,.34,0l.2-.08.17-.14.13-.17h0v0a1.47,1.47,0,0,0,.1-.22v0l0-.23Z"/><path class="cls-11" d="M187.25,269.41a.87.87,0,0,0-.59-.59.83.83,0,0,0-.82.22,3.15,3.15,0,0,0-.66,1.2,1.82,1.82,0,0,0-.07.73c0,.07,0,.13,0,.19a1.91,1.91,0,0,0,.28,1,.82.82,0,0,0,1.4,0,4.11,4.11,0,0,0,.55-1.25A3.13,3.13,0,0,0,187.25,269.41Z"/><path class="cls-12" d="M186.25,275.35s0,0,0,0"/><path class="cls-11" d="M186.84,277.26a.57.57,0,0,0-.18-.28l-.18-.14a.75.75,0,0,0-.32-.1.49.49,0,0,0-.24,0,.75.75,0,0,0-.32.1l-.18.14a1,1,0,0,0-.23.39.32.32,0,0,1,0,.09.88.88,0,0,1-.12.21l.1-.12v0a.55.55,0,0,0-.14.22.62.62,0,0,0-.08.33.66.66,0,0,0,.08.34.59.59,0,0,0,.18.28l.18.14.1,0a.63.63,0,0,0,.24.16.62.62,0,0,0,.33.07l.23,0a.84.84,0,0,0,.39-.22l.13-.18a.83.83,0,0,0,.12-.44c0-.22,0-.45,0-.68A.68.68,0,0,0,186.84,277.26Z"/></g></g></svg>