<svg xmlns="http://www.w3.org/2000/svg" viewBox="0 0 351 351"><defs><style>.cls-1{fill:#98c487;}.cls-2{fill:#2b7b54;}.cls-3{fill:#ffd4c9;}.cls-4{fill:#ffa8af;}.cls-5{fill:#874d65;}.cls-6{fill:#7c5b00;}.cls-7{fill:#736b5c;}.cls-8{fill:#673024;}.cls-9{fill:#7bb382;}.cls-10{fill:#488552;}.cls-11{fill:#1d6946;}.cls-12{fill:#79384c;}.cls-13{fill:#964961;}.cls-14{fill:#004e31;}.cls-15,.cls-18,.cls-19{fill:none;stroke-linecap:round;stroke-linejoin:round;stroke-width:0;}.cls-15{stroke:#ffd4c9;}.cls-16{fill:#a19885;}.cls-17{fill:#967000;}.cls-18{stroke:#ffa8af;}.cls-19{stroke:#7bb382;}</style></defs><g id="Capa_2" data-name="Capa 2"><g id="OBJECTS"><circle class="cls-1" cx="175.5" cy="175.5" r="175.5"/><path class="cls-2" d="M189.52,116.16c13.77-12.75,34.32-17.32,52.5-12.66,8.32,2.13,16.65,6.06,25.11,4.57-8,8.06-17.89,14.55-28.92,17.39-15.8,4.06-32.73.33-47.58-6.47C189.55,118.5,188,117.56,189.52,116.16Z"/><path class="cls-3" d="M188.94,116.65a52.55,52.55,0,0,1,34.39-14.92,52.53,52.53,0,0,0-9.7,7.34,2.71,2.71,0,0,0,3,.49,10.43,10.43,0,0,0,2.66-1.83,24.35,24.35,0,0,1,24.58-3.44,49.94,49.94,0,0,0-9.85,6c1.48,1.41,3.89.6,5.73-.28l5.47-2.63a13.78,13.78,0,0,1,3.91-1.41c2.42-.35,4.8.59,7.17,1.18a25.36,25.36,0,0,0,10.55.34c-11.3,7-25.28,7.88-38.57,7.71s-26.9-1.17-39.62,2.71C188.35,117.43,188.56,116.71,188.94,116.65Z"/><path class="cls-4" d="M267.93,106.64c-4,1.62-8.08,3-12.16,4.29a82.56,82.56,0,0,1-12.56,3.19c-1,.15-1.91.28-2.87.37h-.53a22.3,22.3,0,0,0,3.27-.89,14.32,14.32,0,0,0,2.72-1.34c1-.61,1.88-1.33,2.87-1.91a15.29,15.29,0,0,1,6.44-2h0a.55.55,0,0,0,.25-1.06c-5.45-1.45-10.09,2.37-14.77,4.46-4.95,2.22-10.46,2.62-15.81,2.77-1.54,0-3.09.06-4.63.09a43.7,43.7,0,0,0,6.77-3.19c2.14-1.17,4.21-2.47,6.37-3.61a29.9,29.9,0,0,1,5.08-2.21c.77-.19,1.56-.35,2.36-.48h0c.2-.07.19-.41-.05-.39-4,.29-7.85,2.26-11.38,4.08-3.89,2-7.71,4.2-12,5.36-.88.24-1.77.44-2.66.6a26.56,26.56,0,0,0,4-1.33,56.19,56.19,0,0,0,7.6-4.65,43.26,43.26,0,0,1,9.51-4.29c.28-.09.26-.59-.07-.55h-.08a44.65,44.65,0,0,0-15.74,5.3c-.25.13-.49.27-.72.41a21.06,21.06,0,0,0-4.28,2.46l-1.67,1c-.27.16-.54.32-.82.47l-.22.09a.27.27,0,0,0-.18,0c-3.94.5-7.9.94-11.83,1.53.31-.1.61-.2.91-.32a27.67,27.67,0,0,0,6.55-3.49c2.1-1.55,4.09-3.22,6.33-4.58a74.82,74.82,0,0,1,6.9-3.69c.19-.09.06-.38-.13-.33-4.19,1.06-8.33,2.2-12.06,4.46-3.25,2-6.14,4.45-9.33,6.49l-.94.43a.32.32,0,0,0-.21.27,24.09,24.09,0,0,1-3.43,1.66c-.89.16-1.78.32-2.66.52-.56.12-1.12.23-1.67.37a4.37,4.37,0,0,0-1.54.51l0,0-.11,0a.3.3,0,0,0,.07.58,29.53,29.53,0,0,0,3.12,0l1.2-.09.16,0c.18.2.38.38.58.57a.25.25,0,0,0,.11.12l.05,0a21.55,21.55,0,0,0,8.68,5l.68.26a.15.15,0,0,0,.08.08l.62.27h0l.07,0c.16.07.29-.06.32-.21a.18.18,0,0,0,.08-.34l-6.26-3.5c-1-.58-2-1.15-3.08-1.72-.42-.24-.83-.48-1.26-.68l1.35-.17.73,0,4.09-.23c5.87,4.47,12.16,9.11,19.67,10,.49.06.53-.61.22-.84-1.85-1.4-3.65-2.85-5.6-4.13a60.66,60.66,0,0,0-5.78-3.39c-.41-.21-.83-.42-1.26-.62s-1-.61-1.58-.89c-.3-.16-.62-.31-.94-.46l6.6-.44c1.87,1.38,3.89,2.61,5.83,3.87,2.35,1.54,4.67,3.16,7.09,4.6,4.38,2.61,9.91,2.18,14.4.07.27-.13.07-.51-.19-.46-4.14.85-8.43-.21-12.26-1.84l-.15-.06c-.91-.44-1.79-.89-2.65-1.3l-.93-.44c-2.5-1.35-4.91-2.86-7.35-4.32l-1-.57,3.64-.41a.44.44,0,0,0,.32-.17c2.05-.06,4.1-.08,6.15-.13h.09a93.85,93.85,0,0,1,11.57,2.07c2.51.56,5,1.05,7.56,1.36,1.3.16,2.61.26,3.91.29s2.61-.12,3.93-.2a.33.33,0,0,0,.09-.64,59.8,59.8,0,0,0-15.83-3.47l.21,0c8.76.36,18-.24,26.12-3.7a16.73,16.73,0,0,0,6.2-4.15C268.44,107,268.26,106.51,267.93,106.64Zm-22.67,4c-.73.39-1.46.79-2.18,1.16a1.24,1.24,0,0,0-.2.1Zm-15.59,5-.39-.06c.48,0,1,0,1.45,0a.56.56,0,0,0,0,.12Z"/><path class="cls-5" d="M172,143.25a40,40,0,0,1,2.44-6.24c1-2,2-4,3.17-5.88a66.61,66.61,0,0,1,3.72-5.57,47.87,47.87,0,0,1,4.32-5.13l1.23-1.17c.43-.37.88-.72,1.31-1.08a7.1,7.1,0,0,1,1.63-.78l.81-.28.81-.23c2.17-.61,4.35-1.06,6.54-1.46a98.65,98.65,0,0,1,13.29-1.51c2.25-.06,4.45,0,6.67,0h19.95a55.49,55.49,0,0,0,13.15-1A94.88,94.88,0,0,0,263.7,109a.26.26,0,0,1,.33.15.27.27,0,0,1-.15.34,95.82,95.82,0,0,1-12.67,4.17,41.39,41.39,0,0,1-6.64,1c-1.12.07-2.23.12-3.34.15l-3.33,0c-8.86.09-17.77.08-26.6.19a98.34,98.34,0,0,0-13.14,1.45c-2.17.38-4.34.82-6.45,1.41l-.79.22-.76.26a6.77,6.77,0,0,0-1.38.63c-.42.34-.84.67-1.26,1l-1.2,1.11a48.77,48.77,0,0,0-4.3,5c-1.33,1.75-2.57,3.58-3.73,5.46S176,135.33,175,137.3a38.88,38.88,0,0,0-2.52,6.09h0a.27.27,0,0,1-.33.17A.26.26,0,0,1,172,143.25Z"/><path class="cls-6" d="M191.88,236.26l-.06-33.15q0-9.35,0-18.68a1.09,1.09,0,0,0-2.17,0l.06,33.28q0,16.57.05,33.14,0,9.34,0,18.69a1.09,1.09,0,0,0,2.18,0Z"/><path class="cls-6" d="M229.43,277.13q-3.1-19.14-6.22-38.29T217,200.56L213.47,179a1.09,1.09,0,0,0-1.34-.77,1.13,1.13,0,0,0-.76,1.35q3.12,19.14,6.23,38.28t6.22,38.29l3.51,21.57a1.09,1.09,0,0,0,1.34.76A1.11,1.11,0,0,0,229.43,277.13Z"/><path class="cls-6" d="M149,181.84a1.09,1.09,0,0,0-1.34.76q-2.34,15.47-4.67,30.92t-4.64,30.78Q137,253,135.68,261.72a1.12,1.12,0,0,0,.76,1.34,1.1,1.1,0,0,0,1.34-.76q2.33-15.47,4.67-30.92t4.64-30.78q1.32-8.72,2.63-17.42A1.13,1.13,0,0,0,149,181.84Z"/><path class="cls-6" d="M133,178.2a1.12,1.12,0,0,0-1.09,1.09q-2.4,19-5.07,38t-5.62,37.9q-1.65,10.61-3.38,21.2a1.11,1.11,0,0,0,.76,1.33,1.07,1.07,0,0,0,1.33-.76q3.12-19,6-38.11t5.38-37.93q1.46-10.78,2.82-21.58A1.11,1.11,0,0,0,133,178.2Z"/><path class="cls-2" d="M128.47,78.9c-5.32-3.27-11.81-4-18-3.89-7.78.17-15.64,1.67-22.49,5.34-7.66,4.1-13.7,10.67-19.07,17.5S58.6,111.94,52.44,118.07c14.71-4.46,30.43-6.22,44-13.54,9.44-5.11,17.28-12.67,25.19-19.93A59.24,59.24,0,0,1,128.47,78.9Z"/><path class="cls-3" d="M127.91,79.49a.55.55,0,0,0-.47-.12.36.36,0,0,0-.23-.11,10.13,10.13,0,0,0-2.69-.13c-1.08.16-2.16.15-3.23.28a50.51,50.51,0,0,0-5.85,1.06,96.58,96.58,0,0,0-11.83,3.84,47,47,0,0,0-5.18,2.56c-1.75.93-3.45,1.92-5.12,3-.84.53-1.67,1.06-2.47,1.65s-1.59.83-2.3,1.38S87,94,86.18,94.52a14.72,14.72,0,0,0-2,1.83,21.43,21.43,0,0,0-3.23,5.36c-.5,1-.92,1.92-1.33,2.91-.26.66-.56,1.29-.87,1.92a13.18,13.18,0,0,0-.49-2.29,4.47,4.47,0,0,1-.17-1.7,1.19,1.19,0,0,0-.2-1c-.69-.68-1.52.37-2,.77-1.08,1-2.23,1.76-3.37,2.62-1,.74-2,1.32-3,2.06-.52.41-1.08.74-1.59,1.14s-1.07.87-1.64,1.26a79,79,0,0,1-6.76,4.1c-1.33.71-2.64,1.36-3.91,2.16-.61.39-1.23.79-1.87,1.12a10.13,10.13,0,0,1-1.15.45c-.28.1-.52.28-.79.38a.34.34,0,0,0-.08.62c.3.22.5.15.84.07.54-.12,1.1-.13,1.64-.27,1.06-.26,2-.93,3.07-1.09,19.26-2.93,28.95-7.87,29.49-8,1-.3,2-.71,3-1.1s2-.69,3-1.16,2-1,3-1.58a13.14,13.14,0,0,0,4.61-3.75,16.38,16.38,0,0,0,1.74-3.18c.5-1.24,1.19-2.35,1.78-3.54s1.14-2.13,1.78-3.19c.15-.24.27-.48.4-.73-.11.39-.24.77-.37,1.16-.22.68-.3,1.4-.52,2.07a18.44,18.44,0,0,0-.59,2.21,4.19,4.19,0,0,0,.11,1.65c.08.43.14.94.56,1.19a.85.85,0,0,0,1.07-.19c.47-.47.87-1,1.32-1.5,2-2.16,4.51-3.74,6.67-5.73s4.52-3.66,6.77-5.51c.31-.25.64-.48.93-.75s.41-.52.64-.76a10,10,0,0,1,1.75-1.43c.62-.38,1.14-.92,1.73-1.35s1-.66,1.46-1A.67.67,0,0,0,127.91,79.49Z"/><path class="cls-4" d="M127,79.39H127a11.38,11.38,0,0,0-1.31-.11.31.31,0,0,0-.3-.17c-.43,0-.87,0-1.3.07a44.24,44.24,0,0,0-5.39.62.25.25,0,0,0-.17-.22c-1.78-.46-3.52-1-5.33-1.41s-3.53-.68-5.32-.87a32.94,32.94,0,0,0-10.71.53c-.55.12-.38.91.13.94l2.11.18c3,.56,6,1.13,9,1.68a24.46,24.46,0,0,0,4.1.42,27.14,27.14,0,0,0-4.64,1.62.3.3,0,0,0-.23-.2c-3-.86-6.22.06-9.26.13a45.58,45.58,0,0,1-9.66-1.18.23.23,0,0,0-.12.44c1.5.45,3,1,4.5,1.33a20.51,20.51,0,0,0,4.49.48c3,0,6-.85,9-.38q-.85.47-1.68,1c-4.67,3.18-7.13,8.38-10.21,12.94a34.17,34.17,0,0,1-7,7.64c-.24.19.07.51.31.4,2.31-1,4.1-3.18,5.74-5s3.28-3.89,4.86-5.88c3.15-4,6.49-7.91,10.88-10.55.49-.28,1-.54,1.5-.79,1.48-.6,3-1.14,4.5-1.64l1.23-.31c.72-.16,1.45-.31,2.17-.43A34.9,34.9,0,0,0,114,83c-3.67,2.09-6.94,5.09-8.47,9.11A11.74,11.74,0,0,0,105,99c.06.25.47.33.58.08.18-.42.36-.85.53-1.27,0,0,.05,0,.06-.09.46-1.05.9-2.1,1.34-3.15s.84-1.81,1.32-2.68a23.4,23.4,0,0,1,4.83-5.8,41.88,41.88,0,0,1,3.78-3.19c.58-.37,1.17-.73,1.77-1.06a.3.3,0,0,0,.14-.18,14.92,14.92,0,0,1,1.88-.93,21.34,21.34,0,0,1,5.74-.76C127.26,79.93,127.35,79.44,127,79.39Zm-22.26,5.9-.43.29A17.77,17.77,0,0,1,106.64,84,13.88,13.88,0,0,0,104.78,85.29ZM116.61,80a.37.37,0,0,0-.06-.25l.68.12Z"/><path class="cls-4" d="M125,82.78a.65.65,0,0,0-.19-.21.16.16,0,0,0-.19-.23l-.28.11a3.92,3.92,0,0,0-1.6.67,25.93,25.93,0,0,0-10.5,9.48c-.13.19.13.47.33.33a146.67,146.67,0,0,0,12.39-9.82A.27.27,0,0,0,125,82.78Z"/><path class="cls-4" d="M96.1,87.33c-3.35.94-6.48,3.29-10.08,2.88-3.24-.36-7.09-2.06-9.94.38a.41.41,0,0,0,.28.7l1.1-.07,5.3,1.14a13.4,13.4,0,0,0,4.87.53,8.08,8.08,0,0,0,1.29-.31,22.48,22.48,0,0,0-4.15,3,18.12,18.12,0,0,0-3.46,5.19c-1.88,3.85-3.31,7.94-5.69,11.52a.23.23,0,0,0,0,.17c-.17.32.2.7.5.41,3-2.89,4.87-6.59,6.73-10.22s3.85-7.48,7.11-10.07a.24.24,0,0,0,0-.39,15.32,15.32,0,0,0,2-1.15c1.5-1,3-2,4.43-3.07C96.68,87.76,96.52,87.21,96.1,87.33Z"/><path class="cls-4" d="M77.19,101.19a29.62,29.62,0,0,0-3.83,2.7,21.22,21.22,0,0,0-2.6,2.33,21.76,21.76,0,0,0-2.29,3A28,28,0,0,1,66,112.88a.35.35,0,0,0,.5.49l6-5.89c.94-.92,1.9-1.84,2.83-2.78a14.3,14.3,0,0,0,2.44-2.94A.42.42,0,0,0,77.19,101.19Z"/><path class="cls-4" d="M69.38,98.93c.27-.3-.09-.86-.47-.6a31.16,31.16,0,0,0-8,8.85c-2.09,3.2-4.1,6.48-6.94,9.08-.73.39-1.47.79-2.19,1.2a.43.43,0,0,0-.09.67c.52.49,1.36.27,2,.08a12,12,0,0,0,5-1.8,13.91,13.91,0,0,0,3.81-3.48l.11-.07a.54.54,0,0,0,.23-.38c.11-.17.23-.34.34-.52a.28.28,0,0,0-.24-.42,6.77,6.77,0,0,0-2.45,1.14l-2.94,1.63-.09,0q2.49-3.54,5.12-7C64.83,104.51,67,101.6,69.38,98.93Z"/><path class="cls-5" d="M60.93,112.41c5.3-4,10.48-8.15,15.78-12.16,2.66-2,5.33-4,8.09-5.84s5.54-3.69,8.44-5.35c1.43-.86,2.91-1.61,4.38-2.41s3-1.5,4.52-2.15a67.9,67.9,0,0,1,9.4-3.48,54.13,54.13,0,0,1,9.88-1.85,26,26,0,0,1,10.07.85,20.29,20.29,0,0,1,8.27,5.84,47.48,47.48,0,0,1,5.71,8.28,165.19,165.19,0,0,1,8.82,17.91A130.25,130.25,0,0,1,160.6,131a106.87,106.87,0,0,1,3,19.73.27.27,0,0,1-.25.27.26.26,0,0,1-.27-.24h0a106.77,106.77,0,0,0-3.23-19.56,130.63,130.63,0,0,0-6.42-18.77,176,176,0,0,0-8.84-17.77,46.9,46.9,0,0,0-5.6-8.08,19.34,19.34,0,0,0-7.83-5.52,25.13,25.13,0,0,0-9.64-.81A53.36,53.36,0,0,0,111.82,82a67.35,67.35,0,0,0-9.27,3.41c-1.52.64-3,1.4-4.47,2.11s-2.94,1.52-4.36,2.36c-2.88,1.62-5.68,3.39-8.43,5.24s-5.43,3.79-8.1,5.75c-5.34,3.93-10.59,8-15.95,11.94a.26.26,0,0,1-.36-.06A.27.27,0,0,1,60.93,112.41Z"/><ellipse class="cls-7" cx="174.87" cy="130.37" rx="50.32" ry="6.29"/><path class="cls-8" d="M127.46,134.13c-.73.18,2-.73,3.88-2a17.75,17.75,0,0,1,10.23-3c3.31,0,6.56,1,9.86.87,4-.21,7.67-2.05,11.59-2.69a19.45,19.45,0,0,1,9.39.8,8.26,8.26,0,0,0,2.28.6,7.13,7.13,0,0,0,2.6-.52c3.64-1.2,7.5-2.26,11.28-1.6,2.65.46,5.1,1.74,7.74,2.31,6.18,1.33,12.52-1.4,18.83-1.11a7.88,7.88,0,0,1,4.72,1.48,7,7,0,0,0,1.78,1.36,8.51,8.51,0,0,0,2.37.15,4,4,0,0,1,3,5.51c-1.11,2.09-3.8,2.66-6.15,3a209.75,209.75,0,0,1-39.44,1.68c-4.21-.24-8.41-.65-12.61-1l-14.77-1.43C144.56,137.5,125.54,133.83,127.46,134.13Z"/><path class="cls-2" d="M173.71,87.3c.86-14.29,4.84-29.18,15.12-39.15a45.11,45.11,0,0,1,23.52-11.56c13-2.3,26.78.28,39.32-3.85-5.61,6-9.12,13.77-15,19.56a54.24,54.24,0,0,1-10,7.47,92.38,92.38,0,0,1-17.51,8.61C202.52,70.73,195.5,72,189,74.75S176.2,81.92,173.71,87.3Z"/><path class="cls-3" d="M173.62,87.87c0-13.54,3.57-27.69,12.91-37.5a54.11,54.11,0,0,0-.23,12.2,1.77,1.77,0,0,0,.34,1c.26.27.79.29.94,0a58,58,0,0,1,3.2-15.85,7.11,7.11,0,0,1,1.43-2.67,31.51,31.51,0,0,1,6.48-3.87q-.91,7-1.85,13.91,2.11-6.51,4.24-13a6.49,6.49,0,0,1,1.19-2.43c.9-1,6.72-3.17,14.45-3.71-2.28,4.82-5.11,9.63-7.4,14.45a11,11,0,0,1-1.49,2.52A11.44,11.44,0,0,1,205.18,55,99.12,99.12,0,0,0,173.62,87.87Z"/><path class="cls-3" d="M239.4,45c-5.58,5.27-15.15,8.87-22.68,10.35a28.35,28.35,0,0,0,13.89.91A12.35,12.35,0,0,0,233.52,55c8.59-6,11.54-14.82,18.1-22.16C251.13,32.52,243.6,41,239.4,45Z"/><path class="cls-9" d="M174.66,86c1.74-3.14,1.38-7,1.85-10.5a22.22,22.22,0,0,1,6.17-12.65c.37,2.06.75,4.13,1.12,6.19,2,0,3.76-1.66,4.63-3.51a22.36,22.36,0,0,0,1.42-5.92,42.84,42.84,0,0,1,3-10.09c.7-1.58,1.77-3.33,3.49-3.49a92.82,92.82,0,0,0-1.48,11.64c0,.61.06,1.41.65,1.56s1.11-.59,1.34-1.22q2-5.52,4-11.06c.51-1.41,1.53-3.12,3-2.8a89.25,89.25,0,0,0-.78,10.2,21.15,21.15,0,0,0,4.59-1.08,5.09,5.09,0,0,0,1.59-.81,6.13,6.13,0,0,0,1.37-2.08,47.86,47.86,0,0,1,4.22-7.09A10.34,10.34,0,0,1,218,40.16a11.48,11.48,0,0,1,3.47-1.07c8.15-1.61,13.08,0,26.38-5.26C245.17,37.68,244,40.19,233.47,46c-3.17,1.76-7.07,1.37-10.68,1.06a6.72,6.72,0,0,0,2.48,3c-2.91,1.16-5.5,3-8.29,4.4s-5.91,2.51-9,2a27.14,27.14,0,0,0,12.28,3.84,13.07,13.07,0,0,1-4.34,4.12,31.89,31.89,0,0,1-24.88,4,15.44,15.44,0,0,0,5.91,3.18A35,35,0,0,0,174.66,86Z"/><path class="cls-10" d="M214.31,64.71l-.11,0a.22.22,0,0,0-.07-.23,2,2,0,0,0-.95-.29c-.56-.07-1.1-.18-1.66-.27-1.12-.19-2.23-.42-3.35-.65s-2.14-.34-3.2-.56S203,62.2,202,62s-2-.42-3.06-.64a7.4,7.4,0,0,0-2.8-.29,5.09,5.09,0,0,0-1.52.53,2.42,2.42,0,0,0,0-.64,43.44,43.44,0,0,1,.44-6.24c.13-1,.22-2.07.41-3.09s.45-1.82.61-2.75.28-1.82.52-2.73a3.78,3.78,0,0,0,.29-1.87.26.26,0,0,0-.44-.11c-.3.23-.31.76-.37,1.16,0,.2-.09.39-.14.59-.18.71-.34,1.41-.47,2.14-.08.42-.16.84-.26,1.26l0,.08c-.05.24-.11.48-.17.72-.37,1.47-.81,2.92-1.21,4.39s-.86,3.08-1.23,4.64c-.19.79-.36,1.58-.51,2.38-.07.38,0,.77-.1,1.15,0,.14,0,.27-.05.39l0,0a.42.42,0,0,0-.13.5,2.55,2.55,0,0,0-.44.43.3.3,0,0,0,.34.44l.64-.22a.24.24,0,0,0,.16,0l0,0c3.27-1,6.91-.58,10.24-.25,2,.2,3.94.47,5.91.69s3.67.63,5.52.75C214.59,65.36,214.65,64.8,214.31,64.71Z"/><path class="cls-10" d="M206,68.43a14.81,14.81,0,0,1-1.63.07l-1.46-.09c-1.27-.09-2.54-.35-3.8-.54a35.76,35.76,0,0,1-3.54-.58,14.48,14.48,0,0,0-3.13-.56,7.51,7.51,0,0,0-3.26.69l0,0c-.84.32-2,.6-2.55,1.4a.36.36,0,0,0-.07.26c-.8.59-1.63,1.14-2.39,1.77-.15.13-.28.27-.42.4a12.54,12.54,0,0,0-.2-2.36,19,19,0,0,1-.2-3.29,31.17,31.17,0,0,1,.35-3.35c.06-.42.11-.84.16-1.26a18.73,18.73,0,0,1,.92-3.26.28.28,0,0,0,0-.24l.14-.3a4.48,4.48,0,0,1,.37-.94c.16-.24-.12-.46-.34-.39a.29.29,0,0,0-.29.06,2,2,0,0,0-.53.77,6.74,6.74,0,0,0-.6,1.09,10.84,10.84,0,0,0-.86,2.05,35.12,35.12,0,0,0-1,5.2c-.23,1.84-.43,3.69-.66,5.53-.14,1.14-.21,2.29-.38,3.43,0,.16-.07.33-.11.49a20.05,20.05,0,0,0-.63,2.23.28.28,0,0,0,.42.24,6.31,6.31,0,0,0,1.22-1.49,1,1,0,0,0,.3-.4,12.67,12.67,0,0,0,1-1.68c.15-.24.3-.46.43-.68l.63-.63a24.6,24.6,0,0,1,3.24-2.33.29.29,0,0,0,.28-.05,4.6,4.6,0,0,1,.6-.37l.52-.2c2-.67,4.15,0,6.22.19a35.36,35.36,0,0,0,5.91.27c.9-.06,1.81-.09,2.7-.18a7,7,0,0,0,1.73-.13.18.18,0,0,0,.14-.21,8.39,8.39,0,0,0,.85-.27A.19.19,0,0,0,206,68.43Z"/><path class="cls-10" d="M220.05,60.64a.2.2,0,0,0-.06-.15c-.33-.35-1.1-.27-1.53-.34a21.64,21.64,0,0,1-2.53-.6c-.8-.23-1.6-.45-2.38-.76s-1.76-.61-2.59-1-1.38-.71-2.09-1a15.23,15.23,0,0,0-2.22-1,6.23,6.23,0,0,0-2-.24,6.93,6.93,0,0,0-1.26.22,4.23,4.23,0,0,0,.51-2c.13-1.5.24-3,.51-4.5s.54-3.06.95-4.56,1-3,1.58-4.48a.25.25,0,0,0,0-.12c0-.33-.41-.57-.6-.23a4.34,4.34,0,0,0-.25.54c-.09.11-.19.2-.27.31a3.48,3.48,0,0,0-.38.64c-.32.57-.66,1.13-1,1.72a16.06,16.06,0,0,0-1.16,3.78,31.6,31.6,0,0,0-.6,4c-.12,1.53-.16,3.07-.42,4.59a.38.38,0,0,0,.06.28.91.91,0,0,0,0,.17h-.07a.41.41,0,0,0-.12.79.24.24,0,0,0,.17.07c1.65,0,3.37,1,4.82,1.73.7.35,1.38.74,2.1,1s1.57.55,2.36.8c.59.18,1.18.34,1.77.49a1.83,1.83,0,0,0,1.09.25c.64.13,1.29.25,1.94.34a7.24,7.24,0,0,0,2.08-.11,4.81,4.81,0,0,0,.72-.14A2.35,2.35,0,0,0,220,61,.2.2,0,0,0,220.05,60.64Z"/><path class="cls-10" d="M232.11,50c0-.2-.07-.44-.31-.41h-.34c-.31,0-.64-.08-1-.11-.48,0-.95-.06-1.43-.12a26.12,26.12,0,0,1-2.65-.43,17,17,0,0,1-2.61-.78c-.33-.13-.68-.21-1-.35a6.22,6.22,0,0,0-1.17-.47l-.36,0a5.72,5.72,0,0,0,2-1.72c1-1.5,1.85-3.15,2.85-4.68a22.47,22.47,0,0,1,1.67-2.33c.3-.35.63-.69.94-1a2.77,2.77,0,0,1,1-.82h0l.12,0c.55-.26.07-1.06-.48-.81s-1.56.18-2.16.65-1.49.91-2.17,1.5a36,36,0,0,0-4.22,4.68c-.65.79-1.17,1.67-1.84,2.46s-1.26,1.66-2,2.4A14.14,14.14,0,0,1,213.6,50a6.2,6.2,0,0,0-.73.24c.7-1.25,1.2-2.6,1.83-3.89.38-.76.7-1.56,1.13-2.3a17,17,0,0,1,1.31-2c.46-.59,1-1.11,1.45-1.67a8,8,0,0,1,1.57-1.62.39.39,0,0,0-.4-.68,17.39,17.39,0,0,0-3.36,2.27,13.9,13.9,0,0,0-2.5,3.39c-.73,1.36-1.45,2.7-2.09,4.11-.39.87-.82,1.76-1.3,2.61l-.37.54a13,13,0,0,1-1,1.39.31.31,0,0,0,0,.46,6.84,6.84,0,0,0-.85.11,9.68,9.68,0,0,0-2.49.81,1.62,1.62,0,0,0-.37.19.41.41,0,0,0,.41.71l.43-.2a4.29,4.29,0,0,1,1.13,0l.27,0h0a1.3,1.3,0,0,0,.48,0l1,.17a23.86,23.86,0,0,1,3,.92,42.12,42.12,0,0,0,6,1.84,20.09,20.09,0,0,0,6.56.32c1.11-.17,2.2-.46,3.31-.67s2.22-.43,3.31-.71a.25.25,0,0,0,.18-.24l.11,0c.24,0,.14-.41-.1-.36a18,18,0,0,1-2.19.31c-.58,0-1.15,0-1.74,0-1.2,0-2.4.06-3.6,0a37.89,37.89,0,0,1-7.21-1,21.85,21.85,0,0,1-3.42-1,24.1,24.1,0,0,0-3-1.14,3.66,3.66,0,0,0-.79-.11,5.5,5.5,0,0,1,.9-.54,7.83,7.83,0,0,0,.92-.45,5.23,5.23,0,0,0,.52-.35l.07,0a.29.29,0,0,0,.28.1,1.46,1.46,0,0,0,.51-.18.31.31,0,0,0,.28,0,20,20,0,0,1,4.6-1.65,6,6,0,0,1,2.27-.28c.84.07,1.68.21,2.52.32,1,.13,2,.26,3,.37.71.11,1.41.21,2.12.28s1.58.14,2.38.16,1.33-.28,2-.3A.24.24,0,0,0,232.11,50Z"/><path class="cls-10" d="M231.51,36.64a8.77,8.77,0,0,0-1.87,1.88,23.22,23.22,0,0,0-1.53,2c-.49.72-.9,1.48-1.34,2.21a15.21,15.21,0,0,0-1.22,2.33c-.1.26.34.45.45.19a14.81,14.81,0,0,1,1.24-2.15c.48-.72.9-1.47,1.37-2.19s1-1.34,1.46-2,1.16-1.38,1.63-2.13A.14.14,0,0,0,231.51,36.64Z"/><path class="cls-10" d="M243.68,35.24a5.72,5.72,0,0,0-1.88.55c-.66.27-1.37.39-2,.71a10.41,10.41,0,0,0-3.22,3c-.43.53-.72,1.15-1.17,1.66-.09.1-.67.69-.81.59s.11-.46.13-.53c.23-.66.41-1.33.58-2l0-.08a8.34,8.34,0,0,0,.44-1.24h0l0-.16a.61.61,0,0,0-1.19-.16,1.27,1.27,0,0,1-.06.18,63,63,0,0,0-4,5.58c-.24.35.32.66.55.33l.06-.08a.34.34,0,0,0,.43.23c.55-.18,1.09-.39,1.65-.55a12,12,0,0,0,1.56-.44c.39-.17.79-.28,1.18-.44a2.68,2.68,0,0,0,.69-.48A.31.31,0,0,0,237,42a4.78,4.78,0,0,0,1.41-1.12c.61-.61,1.2-1.23,1.8-1.85A23.8,23.8,0,0,1,242,37.41c.28-.23.56-.46.85-.68s.59-.64.79-.65A.42.42,0,0,0,243.68,35.24Z"/><path class="cls-5" d="M238.49,41.32c-5.74,1.81-11.44,3.76-17,6a122,122,0,0,0-16.21,7.8,87,87,0,0,0-14.54,10.51,65.22,65.22,0,0,0-11.57,13.62,59.24,59.24,0,0,0-7.09,16.38,131.46,131.46,0,0,0-3.37,17.67q-1.2,8.94-1.88,18t-.91,18a.25.25,0,0,1-.26.25.26.26,0,0,1-.26-.26q.06-9,.63-18.08t1.73-18a127.44,127.44,0,0,1,3.31-17.83,60.61,60.61,0,0,1,7.18-16.68A66.08,66.08,0,0,1,190,64.87a84.8,84.8,0,0,1,14.76-10.56,121.8,121.8,0,0,1,16.39-7.72c5.64-2.18,11.38-4.05,17.16-5.77a.26.26,0,0,1,.32.17A.27.27,0,0,1,238.49,41.32Z"/><path class="cls-11" d="M187.53,95.66A63.93,63.93,0,0,1,217.9,72c14.46-5.33,30.42-5.25,45.08-10a26.38,26.38,0,0,0,6-2.65c-.4,3.31-2,6.33-3.64,9.25-2.79,5-5.69,10.11-9.88,14.06A46.43,46.43,0,0,1,244.3,90a86.21,86.21,0,0,1-28,9C206.57,100.21,196.46,99.31,187.53,95.66Z"/><path class="cls-9" d="M267.52,61.51a.33.33,0,0,0-.56-.23c-1.59,1.34-3.84,1.74-5.71,2.57-.94.41-1.88.76-2.82,1.15a11.51,11.51,0,0,0-1.17.57,5,5,0,0,0-1,1,26.28,26.28,0,0,1-2.38,2.34c-.89.73-1.79,1.45-2.71,2.14a24,24,0,0,1-2.44,1.68,20,20,0,0,0,1.42-1.63,25.54,25.54,0,0,0,1.73-2.52,24.6,24.6,0,0,0,1.34-2.33c.13-.3-.24-.61-.52-.52-1.38.44-2.84.71-4.26,1s-2.93.74-4.41,1.07a40.06,40.06,0,0,0-4.42,1.32,16.57,16.57,0,0,0-1.82.55c-.66.33-1.31.71-2,1.1a20.76,20.76,0,0,0-1.89,1.2c-.64.48-1.22,1-1.87,1.48s-1,.69-1.52,1.07-1.14,1-1.79,1.43c-1.18.8-2.36,1.61-3.55,2.4-.62.42-1.23.84-1.87,1.23-.07,0-.25.2-.34.2-.24,0-.26-.29-.26-.43a2.84,2.84,0,0,1,.45-1.18,25.71,25.71,0,0,1,3.26-4.24c.57-.65,1.16-1.29,1.74-1.94.23-.26.45-.53.66-.8s.67-.67,1-1a.41.41,0,0,0-.18-.68,4.16,4.16,0,0,0-1.81.26c-.8.25-1.58.53-2.38.76-1.55.47-3.07,1-4.6,1.58a42.44,42.44,0,0,0-4.39,1.9,27.34,27.34,0,0,0-3.71,2.31,15.22,15.22,0,0,0-3.17,3.09c-1,1.22-1.83,2.51-2.75,3.76a42.3,42.3,0,0,1-2.9,3.63,11.54,11.54,0,0,1-1.71,1.57c-.1.08-.7.55-.87.35a3.12,3.12,0,0,1,.23-.87c.54-1.65,2-3.09,3-4.48s2.2-2.72,3.09-4.21a.42.42,0,0,0-.47-.61A10.2,10.2,0,0,0,204.82,80c-.87.61-1.86,1-2.73,1.61s-1.64,1-2.43,1.55-1.72,1.33-2.56,2A15.32,15.32,0,0,0,195,87.37a16.57,16.57,0,0,0-1.89,2.54,21.77,21.77,0,0,0-2.39,5.9.91.91,0,0,0,.72,1.09c.71.57,1.88.13,2.77-.13a13.79,13.79,0,0,1,1.94-.33c.81-.12,1.62-.19,2.42-.34a36.21,36.21,0,0,0,4.34-1.2c1.39-.44,2.81-.76,4.21-1.21a80.45,80.45,0,0,1,9.06-2.25c3-.59,6-1.4,9-1.73A80,80,0,0,0,234,88.13c3-.68,6-1.34,8.95-2.2a22.74,22.74,0,0,0,3.91-1.47c1.27-.63,2.56-1.28,3.77-2a35.91,35.91,0,0,0,6.61-5.5c1.13-1.15,2.15-2.4,3.26-3.57a32.21,32.21,0,0,0,2.84-3.44,44.07,44.07,0,0,0,2.57-4.28,13.19,13.19,0,0,0,1.12-2A6.19,6.19,0,0,0,267.52,61.51Z"/><path class="cls-10" d="M206.87,80.46a3.78,3.78,0,0,0,1.34-2.23.31.31,0,0,0-.3-.3c-.79.1-1.28,1.7-1.63,2.27l-.06.1c-.34.39-.67.77-1,1.14A12.77,12.77,0,0,0,204,83c-.43.6-.95,1.11-1.33,1.73-.21.33-.4.67-.59,1l-.33.41c-.3.39-.58.79-.85,1.2a13.62,13.62,0,0,0-3,6.44c0,.24.35.28.41.06l.06-.22a.26.26,0,0,0,.38-.11c.19-.37.34-.76.5-1.15,0-.11.09-.21.14-.32l.05-.11a5.55,5.55,0,0,0,.24-.56c.36-.8.74-1.59,1.16-2.37l.8-1.5c.25-.39.52-.78.8-1.15l1.26-1.51c.48-.58,1-1.15,1.41-1.75.23-.3.5-.57.72-.88a4.48,4.48,0,0,0,.31-.62A11.86,11.86,0,0,0,206.87,80.46Z"/><path class="cls-10" d="M229.89,69.55a.25.25,0,0,0-.35-.09,13.88,13.88,0,0,0-2.09,2.3l-.34.36c-1.25,1.15-2.66,2.17-4,3.17-1.62,1.22-3.21,2.49-4.7,3.86a18.72,18.72,0,0,0-2.26,2.28c-.34.38-.66.76-1,1.16a15.6,15.6,0,0,0-1.1,1.21,21.8,21.8,0,0,0-1.74,2.8,16.91,16.91,0,0,0-.87,1.76,8.09,8.09,0,0,0-.63,1.56.39.39,0,0,0,.08.3v.16c0,.22.35.38.47.13a41.23,41.23,0,0,1,3.39-5.05,34.64,34.64,0,0,1,4-4.84c2.85-2.82,6.44-4.8,9.05-7.87.55-.64,1.05-1.3,1.58-2C229.66,70.47,230.09,70,229.89,69.55Z"/><path class="cls-10" d="M223.72,70.94l-.14.12a1.35,1.35,0,0,0-.4.35l-.19.2-.56.46c-.51.33-1.05.63-1.52.92a.39.39,0,0,0-.33,0,22.19,22.19,0,0,0-4,2.92c-.46.41-.89.82-1.31,1.25-.65.57-1.28,1.15-1.88,1.73a15.29,15.29,0,0,0-1.48,1.74A26.66,26.66,0,0,0,209,84.89a27.61,27.61,0,0,0-1.45,3l-.24.61a.08.08,0,0,1,0,0v0c-.14.34-.28.69-.45,1a1.24,1.24,0,0,0-.19,1,.28.28,0,0,0,.32.18c.55-.21,1-1.09,1.32-1.56.62-1,1.07-2.06,1.65-3.06a33.28,33.28,0,0,1,4.13-5.72c.75-.81,1.53-1.58,2.27-2.4a22.89,22.89,0,0,1,2.44-2.18c.87-.71,1.77-1.36,2.62-2.1.47-.4.94-.8,1.4-1.22a5.33,5.33,0,0,0,.46-.49,3.93,3.93,0,0,0,.62-.6.24.24,0,0,0,0-.18l0,0A.17.17,0,0,0,223.72,70.94ZM207.28,89.79a9,9,0,0,1,.39-.82.32.32,0,0,0,.2-.1l0-.06c-.1.16-.19.32-.3.47S207.42,89.6,207.28,89.79Z"/><path class="cls-10" d="M252.87,65.57a3.43,3.43,0,0,0-1.22.2l-1.77.45c-1.09.29-2.21.39-3.3.7-2.3.67-4.63,1.2-7,1.75a10.66,10.66,0,0,0-3.89,2l0,0a24.09,24.09,0,0,0-5.34,4.08,18.63,18.63,0,0,0-2.14,2.3c-.67.88-1.26,1.82-1.89,2.73A32.71,32.71,0,0,0,224.42,83c-.5.93-.85,1.9-1.28,2.85a2.31,2.31,0,0,0-.34.73.28.28,0,0,0,.51.21c.17-.3.31-.6.46-.9l.39-.54c.35-.53.71-1.06,1.05-1.59.7-1.08,1.46-2.11,2.23-3.13a30.8,30.8,0,0,1,2.44-2.91c.44-.45.9-.86,1.37-1.27s.88-.91,1.34-1.33a18.72,18.72,0,0,1,6.49-3.76c2.36-.84,4.72-1.67,7.12-2.36a11.89,11.89,0,0,0,1.76-.53c.66-.3,1.34-.56,2-.84s1.23-.51,1.83-.79c.43-.2,1.14-.29,1.39-.73A.37.37,0,0,0,252.87,65.57Z"/><path class="cls-10" d="M257.53,65.57c-.33-.13-.68.18-.91.38-.6.52-1.13,1.12-1.74,1.63s-1.36,1.13-2,1.75S251.52,70.4,250.9,71s-1,1-1.57,1.42l.46-.68.24-.34,1.32-1.86c.21-.27.42-.54.65-.8a.31.31,0,0,0,.05-.12c.16-.23.32-.48.5-.71a.52.52,0,0,0,.18-.53c0-.2-.28-.21-.4-.11a5.49,5.49,0,0,0-1.09,1.52l-.09.14-.26.26c-.58.57-1,1.24-1.56,1.84s-1.23,1.32-1.8,2-1.09,1.45-1.69,2.12c-1.2,1.35-2.32,2.74-3.53,4.09-.6.67-1.16,1.37-1.78,2-.25.27-.49.57-.72.86l-.21.22a.26.26,0,0,0-.08.13,4,4,0,0,0-.65.72h0s0,0,0,.06c-.19.28.22.58.46.35s.32-.33.47-.5a.26.26,0,0,0,.36,0,21.22,21.22,0,0,0,1.94-2.08q.34-.33.66-.69c.47-.56,1-1.11,1.45-1.65,1.26-1.22,2.54-2.42,3.83-3.62,2.68-2.49,5.53-4.81,8.1-7.4C256.3,67.49,258.56,66,257.53,65.57Z"/><path class="cls-10" d="M267.38,60.87c-.59.09-1.08.73-1.57,1l0,0a4.64,4.64,0,0,0-.59.29,12.27,12.27,0,0,1-2.27,1,.19.19,0,0,0-.13.24l-.06.08c-.26.54-.43,1.15-.66,1.71a22,22,0,0,1-1.17,2.2c-.61,1.08-1.24,2.16-1.9,3.22a24.29,24.29,0,0,1-1.75,1.91c-1.33,1.3-2.47,2.78-3.74,4.13-.65.7-1.34,1.37-2,2A6.53,6.53,0,0,0,250,80.58c-.06.13.06.29.19.2.39-.25.72-.6,1.11-.87s.84-.58,1.24-.9c.91-.72,1.78-1.5,2.66-2.25A57.32,57.32,0,0,0,260,72.14a47.18,47.18,0,0,0,4.12-5c.66-.95,1.32-1.85,1.89-2.85.05-.11.12-.2.18-.31a4.87,4.87,0,0,0,.69-.88c.2-.33.14-.72.45-1s.49-.27.58-.65A.45.45,0,0,0,267.38,60.87Z"/><path class="cls-12" d="M171.87,152c-1.13-15.48,6.09-48.33,16.47-56.58,4.59-3.65,15.51-4.44,25.14-5.13A101.18,101.18,0,0,0,225.13,89c26.77-5.76,36.55-19.44,43-28.49l.64-.9.45.32-.65.9c-6.52,9.12-16.37,22.9-43.34,28.7a98.67,98.67,0,0,1-11.73,1.25c-9.08.66-20.38,1.48-24.84,5C178.43,104,171.29,136.58,172.42,152Z"/><path class="cls-13" d="M187.67,95.61A16.66,16.66,0,0,0,197,94.05c6.71-3,13-7.31,20.15-9.24s14.7-1.43,22.1-1.65,15.21-1.34,21-5.93c-6.3,9.28-16.58,15.17-27.18,18.86-6.65,2.32-13.66,3.91-20.7,3.65-3.66-.13-9.72.34-13.33-.24C190.78,98.16,191.31,97.82,187.67,95.61Z"/><path class="cls-4" d="M171.56,119.21a.55.55,0,0,0-.75.2c-.42.87-.84,1.74-1.23,2.63s-.7,1.83-1.1,2.72a.56.56,0,0,0,.2.75.56.56,0,0,0,.75-.2c.4-.89.71-1.82,1.1-2.72s.8-1.76,1.22-2.63A.56.56,0,0,0,171.56,119.21Z"/><path class="cls-14" d="M169.64,125.31c-.88-11.63.24-23.68,5.34-34.17s14.63-19.23,26.09-21.41c-1.22,11.15-3.39,22.36-8.4,32.4S179.51,121,169.64,125.31Z"/><path class="cls-3" d="M169.63,124.66c-1.84-8,.17-16.3,2.16-24.25l3.56,1.4a11.06,11.06,0,0,0-.6-7.28,4.07,4.07,0,0,1-.5-1.57,3.31,3.31,0,0,1,.45-1.48A45,45,0,0,1,190,74.12a9.61,9.61,0,0,0,.43,4.26A16.75,16.75,0,0,1,193.9,73c1.92-1.76,4.53-2.51,7-3.22a37.32,37.32,0,0,1-.85,6.74,8.11,8.11,0,0,1-.71,2.15,9.21,9.21,0,0,1-2.18,2.4l-8.41,7.34a4.51,4.51,0,0,0-1.36,1.62,1.55,1.55,0,0,0,.47,1.9,2.27,2.27,0,0,0,1.39.17l5.4-.47a14.76,14.76,0,0,1-9.52,13.48c-1.59.57-3.38.93-4.49,2.2a1.2,1.2,0,0,0-.37,1.11c.17.5.79.65,1.31.71a36,36,0,0,0,5.87.15,18.34,18.34,0,0,1-6.83,9.51A47.09,47.09,0,0,1,169.63,124.66Z"/><path class="cls-4" d="M187.75,86.75c-.07-.13-.13-.26-.19-.39-.16-.37-.28-.78-.4-1.15s-.33-1-.47-1.52l-.12-.52c-.11-.54-.22-1.08-.32-1.63s-.05-.93,0-1.39a.18.18,0,0,0-.17-.2,2.13,2.13,0,0,0-.13-.43.2.2,0,0,0-.36,0,3.15,3.15,0,0,0,0,1.67c.08.61.14,1.21.23,1.82a10.18,10.18,0,0,0,.13,1.14c0,.22.09.42.14.63s0,.25.07.38c0,.31.08.62.13.94s.09.62.15.93a5.66,5.66,0,0,0,.27.79c0,.12.21.18.28.06a.6.6,0,0,0,.07-.2.26.26,0,0,0,.16-.09.56.56,0,0,0,.1-.24.3.3,0,0,0-.05-.46.6.6,0,0,0-.06-.19l.14.25C187.47,87.23,187.9,87,187.75,86.75Z"/><path class="cls-4" d="M193.24,92.57a10.14,10.14,0,0,0-1.56,1.05c-.72.52-1.47,1-2.2,1.49-1.36.92-2.73,1.84-4.15,2.66s-2.63,1.67-3.9,2.59a7.11,7.11,0,0,0-.6.49,18.85,18.85,0,0,0,.64-2.06l.18-.67c0-.08,0-.17.08-.25a3.73,3.73,0,0,1,.16-.35l.14-.38q.25-.6.48-1.2c.06-.17-.19-.3-.28-.14s0,0,0,0h0c-.08.16-.15.32-.22.47.06-.68.12-1.37.16-2.06a13.71,13.71,0,0,0-.27-2.55c-.24-1.81-.58-3.58-.77-5.4,0-.1-.11-.11-.19-.08s0-.19-.05-.29a.15.15,0,0,0-.07-.12v-.09c0-.16-.26-.11-.25.05v0a.21.21,0,0,0-.1.23c0,.18,0,.37.08.55a11.48,11.48,0,0,0,.09,1.44c.06.82.06,1.63.1,2.45,0,.25,0,.51,0,.76,0,.69,0,1.38,0,2.06,0,1.54,0,3.07-.06,4.61-.07.34-.14.68-.23,1s-.11.41-.18.62a12.29,12.29,0,0,0-.73,1.66,16.57,16.57,0,0,1-.9,2.13l-.15.18a.19.19,0,0,0,0,.11,9.38,9.38,0,0,0-.83,1.4,1.87,1.87,0,0,0-.26.53c-.3.66-.58,1.33-.87,2-.09.2.2.31.32.16s.3-.27.41-.43.2-.41.32-.6l.31-.44a.28.28,0,0,0,.33-.12,4.46,4.46,0,0,0,.28-.63l0,0a.26.26,0,0,0,.1-.07l.1-.15.35-.36c.49-.49,1-1,1.52-1.4a26,26,0,0,1,2.24-1.67c.81-.6,1.56-1.26,2.33-1.91,1.42-1.19,3-2.21,4.51-3.28A25.1,25.1,0,0,0,192,94.7a6.78,6.78,0,0,0,1.61-1.77A.25.25,0,0,0,193.24,92.57Z"/><path class="cls-4" d="M199.66,79.69a2.43,2.43,0,0,0,.32-1.17c0-.26-.36-.3-.52-.18a5.68,5.68,0,0,0-.9,1.06c-.21.25-.45.48-.67.72s-.16.21-.24.31a3.73,3.73,0,0,1-.3.26c-.46.36-.88.75-1.32,1.12-.88.75-1.75,1.49-2.65,2.2s-1.83,1.4-2.66,2.18A35.77,35.77,0,0,1,188,88.7c-.19.14,0,.49.21.41a14,14,0,0,0,1.69-.94,10.49,10.49,0,0,0,1.73-1c.6-.44,1.3-.69,1.91-1.11s1.15-.87,1.71-1.32c1.16-.94,2.12-2,3.19-3.08a4.21,4.21,0,0,0,.95-1.43,2,2,0,0,0,.26-.52S199.65,79.7,199.66,79.69Z"/><path class="cls-4" d="M172.26,118.09a.32.32,0,0,0,.06-.33.56.56,0,0,1,0-.12,11.39,11.39,0,0,0-.31-2.59c0-.43-.07-.86-.14-1.29,0-.23-.07-.46-.11-.69-.08-1-.14-2.06-.23-3.08l.06-1c.06-.79.1-1.58.15-2.37s.17-1.34.24-2a35.26,35.26,0,0,0,.73-4.06c.05-.34-.31-.49-.58-.39a.3.3,0,0,0-.37,0c-.38.36-.36.91-.48,1.39-.19.72-.21,1.46-.37,2.18a16.54,16.54,0,0,0-.28,1.89l-.06.3a20,20,0,0,0-.56,4.15,16.82,16.82,0,0,0,.59,3.92,18.52,18.52,0,0,0,.6,2.18c.11.34.2.68.31,1a.58.58,0,0,1,.05.14v.05a1.78,1.78,0,0,0,.23.67l0,0s0,0,0,.08c0,.27.37.3.43,0a.17.17,0,0,0,0-.1Z"/><path class="cls-4" d="M186.73,109.79l-.14-.05a.26.26,0,0,0-.2-.12,2.27,2.27,0,0,0-.89.13l-.59.17c-.6.15-1.21.32-1.81.5a33.78,33.78,0,0,0-3.32,1.2l-1.26.55a12.17,12.17,0,0,0-2.72,1.3,13.77,13.77,0,0,0-1.44,1.07c-.05,0-.1.1-.15.15l-.37.28a.25.25,0,0,0-.09.2l-.46.54c-.11.12.05.33.2.29a6,6,0,0,0,1.27-.69,10.41,10.41,0,0,1,1.7-.77c1.21-.44,2.47-.81,3.65-1.31s2.61-.88,3.91-1.34c1.09-.38,2.23-.53,2.9-1.54A.38.38,0,0,0,186.73,109.79Z"/><path class="cls-5" d="M192.71,77.88l-2.34,4.2-2.3,4.23-2.27,4.24-2.2,4.27c-2.91,5.71-5.67,11.49-8.16,17.39s-4.78,11.88-6.74,18a170.19,170.19,0,0,0-4.85,18.58.26.26,0,0,1-.31.2.27.27,0,0,1-.21-.3,142.48,142.48,0,0,1,4.46-18.76,190.55,190.55,0,0,1,6.64-18.12q3.81-8.86,8.31-17.41L185,90.13l2.35-4.21,2.42-4.17,2.47-4.13a.26.26,0,0,1,.46.26Z"/><path class="cls-4" d="M194,96.8c-.1.15-.18.31-.26.46a10.5,10.5,0,0,0-.89,1.39c-.33.35-.64.72-1,1.06s-.93.79-1.37,1.22a17.8,17.8,0,0,1-3.19,2.54,18.32,18.32,0,0,1-2.37,1.1,10.67,10.67,0,0,0-2.83,1.35l-.06.06a6.28,6.28,0,0,0-1.11.89.27.27,0,0,0-.06.1l-.11.11c-.32.28-.58.53-.52,1a.22.22,0,0,0,.3.15c.27-.15.47-.38.72-.55s.59-.36.9-.52a13.78,13.78,0,0,1,2.37-1.1c.74-.25,1.47-.54,2.2-.81s1.53-.42,2.26-.72a9.31,9.31,0,0,0,2.13-1,4.91,4.91,0,0,0,1.15-1.37c.45-.73.85-1.47,1.24-2.24a1.76,1.76,0,0,0,.09-.2,6.39,6.39,0,0,0,1-2.73A.32.32,0,0,0,194,96.8Z"/><path class="cls-3" d="M88.46,50.15c1,.56,2,1.25,3,1.81s2,1.08,3,1.68a33,33,0,0,0,3.27,1.6,18,18,0,0,0,3.06,1.31,15.66,15.66,0,0,1,1.76.45,9.09,9.09,0,0,0,1.7.46c.64.1,1.27.15,1.9.28a9,9,0,0,0,2.07.1.61.61,0,0,0,0-1.21,17.89,17.89,0,0,1-3.42-1,19.4,19.4,0,0,1-3.17-1.47c-2-1.06-3.85-2.36-5.8-3.48-1-.57-1.9-1.22-2.83-1.87s-1.84-1.19-2.71-1.86c-.39-.3-.81-.54-1.21-.83s-.88-.7-1.37-1a10.32,10.32,0,0,1-1.19-.9,13.2,13.2,0,0,0-1.53-1l-1.6-1a7.63,7.63,0,0,0-.75-.39l.62,0a18.83,18.83,0,0,0,2.6.09,18,18,0,0,0,2.51-.62c.88-.23,1.74-.47,2.6-.78.4-.14.79-.3,1.18-.43s.91-.18,1.36-.32c.82-.26,1.55-.68,2.4-.9s1.71-.35,2.53-.62,1.63-.76,2.47-1.06a9.35,9.35,0,0,1,2.56-.54,7.29,7.29,0,0,1,1.31.14,11.47,11.47,0,0,1,1.54.24,21.18,21.18,0,0,1,2.9.91A28.5,28.5,0,0,1,112,39.37c.41.22.79.44,1.18.7s.81.28,1.19.5.94-.36.55-.71C114,39,113,38.28,112.08,37.4a7.8,7.8,0,0,0-2.92-1.91l-.51-.19.28-.07a3.19,3.19,0,0,0,.68-.1,6.78,6.78,0,0,1,1.2-.11c.71-.05,1.39-.22,2.11-.2a7.93,7.93,0,0,1,2.54.56A16.83,16.83,0,0,1,118,36.51c.74.38,1.35.92,2.07,1.32.89.49,1.76,2,2.93,1.6a.58.58,0,0,0,.34-.84,8.22,8.22,0,0,0-1.41-1.66,8.12,8.12,0,0,0-1.76-1.6,14.23,14.23,0,0,0-5.08-2,13.31,13.31,0,0,0-2.51-.35,16,16,0,0,0-2.75.31l-1,.19c-.49,0-1,0-1.48,0a17.9,17.9,0,0,0-2.31.36,22.45,22.45,0,0,0-2.33.28c-.73.2-1.44.44-2.18.62-.34.09-.68.21-1,.31a6.55,6.55,0,0,1-1.32.12,4.67,4.67,0,0,0-1,.33,6.32,6.32,0,0,1-.76.11,14.34,14.34,0,0,0-2.49.68c-.74.27-1.49.45-2.23.74a22.87,22.87,0,0,1-2.3.75c-.89.25-1.82.32-2.72.49s-1.85.38-2.76.62c-1.17.31-2.33.72-3.51,1l-.75,0c-.31,0-.64.18-.94.17a.79.79,0,0,0-.77.57,1,1,0,0,0,.47,1.67c.19.1.39.17.59.27a9.24,9.24,0,0,1,1.64,1.23c1,.78,1.91,1.57,2.89,2.33"/><path class="cls-2" d="M162,63.74c-1.74-7.18-5-14.17-10.31-19.3a37.09,37.09,0,0,0-17.52-9,71.76,71.76,0,0,0-19.85-1.32A135.93,135.93,0,0,0,78.4,40.86a65.27,65.27,0,0,0,26.94,16.87c8.08,2.62,16.57,3.62,24.86,5.44s16.63,4.58,23.09,10.09c5,4.23,8.51,9.85,11.72,15.53C164.35,87.42,163.71,70.93,162,63.74Z"/><path class="cls-3" d="M165.13,86.9a4.3,4.3,0,0,0,.18-.79,24.45,24.45,0,0,0,0-2.57,18.72,18.72,0,0,0-.15-2.12c-.09-.76-.31-1.53-.34-2.29,0-1.61-.28-3.24-.47-4.85s-.28-3.12-.43-4.68a39.76,39.76,0,0,0-2-9.28c-.24-.69-.58-1.32-.84-2a16.27,16.27,0,0,0-.88-2.07,24.11,24.11,0,0,0-2.3-3.81,29,29,0,0,1-2.73-4.16,17.59,17.59,0,0,0-1.23-1.86c-.18-.26-.43-.47-.62-.73a10.5,10.5,0,0,0-.66-1,.55.55,0,0,0-.92.24c-.39,1,.23,2.26.45,3.25a26.64,26.64,0,0,0,1.27,4.1c.6,1.45,1,3,1.57,4.44s1.2,2.8,1.7,4.25.84,2.78,1.41,4.09a32.55,32.55,0,0,1,1.21,4.53c.15.59.49,1.1.61,1.69.15.76.28,1.5.49,2.24.14.48.28.95.41,1.43a18.48,18.48,0,0,0,.36,2.33c.24.85.5,1.72.71,2.59-.3-.51-.72-1-1-1.49a16.5,16.5,0,0,0-1.25-1.64c-.79-1.14-1.78-2.16-2.67-3.23-.22-.26-.38-.57-.63-.82s-.47-.33-.69-.51c-.61-.48-1.08-1.12-1.69-1.6a40,40,0,0,0-3.89-2.73,23.18,23.18,0,0,0-4.17-2.08c-.64-.24-1.22-.62-1.86-.85s-1.44-.37-2.14-.57l-1-.27a29.93,29.93,0,0,0-3.24-1.41,24,24,0,0,0-4.21-1.35,16.15,16.15,0,0,0-2.51-.22,2,2,0,0,0-.89-.13,1,1,0,0,0-.34.1h-.11a12.11,12.11,0,0,0-1.8.21,14.47,14.47,0,0,1-1.7.31c-.41,0-.39.58,0,.63a12.32,12.32,0,0,1,3.62,1.19,15.12,15.12,0,0,0,1.74.78l.27.08a5.39,5.39,0,0,0,.52.3c.55.3,1.17.46,1.74.73a19,19,0,0,0,2.24.75c2.88.92,5.69,2.13,8.47,3.32.61.25,1.12.64,1.71.92s1.32.7,2,1.08c1.24.71,2.53,1.35,3.7,2.17.83.57,1.69,1.13,2.54,1.72.41.44.76,1,1.21,1.35.23.21.53.35.74.58s.41.55.66.79c1.08,1.08,2,2.34,3,3.5a10.44,10.44,0,0,1,1.35,2.12c.38.73.89,1.37,1.29,2.08v0c.15.41.31.81.46,1.21.07.24.13.49.18.73a1.59,1.59,0,0,0,1,1.34.7.7,0,0,0,.85-.49A2.71,2.71,0,0,0,165.13,86.9Z"/><path class="cls-15" d="M131.52,62.07s0,0,0,0"/><path class="cls-3" d="M78.52,41.11a59.35,59.35,0,0,0,23.17,15.11c3,1.08,6.39,1.9,9.45.9a16.93,16.93,0,0,0,5.69-3.82c-1.76-1.82-4.74-1-7.24-.67a16.86,16.86,0,0,1-9.45-1.36,1.56,1.56,0,0,1-.79-.63c-.32-.69.44-1.37,1.09-1.75l6.32-3.72c-1.47-1.26-3.69-1.14-5.53-.53s-3.55,1.63-5.45,2c-3.73.69-7.39-1.24-10.69-3.1a138,138,0,0,1,17.85-2.76,8.4,8.4,0,0,1,2.83.07c1.87.46,3.61,2.13,5.43,1.5l-5-4.68a29.58,29.58,0,0,1,7.84-2,5.51,5.51,0,0,1,2.18.08A6,6,0,0,1,118.12,37l7,6a25.3,25.3,0,0,0-1.93-6.46,5,5,0,0,0-1.28-1.9,5.21,5.21,0,0,0-2.77-.89c-9.6-1.06-19.26.79-28.74,2.63a39.09,39.09,0,0,0-7.48,2A14.27,14.27,0,0,0,78.52,41.11Z"/><path class="cls-9" d="M159.9,65.36a87,87,0,0,0-5-13,45.36,45.36,0,0,1-2.61-7.59.51.51,0,0,0-1,.13,43.82,43.82,0,0,0,2.91,13.21c1.43,3.89,3.08,7.71,4.34,11.66a48.11,48.11,0,0,0-3.13-6c-2.88-4.63-6.2-8.9-7.91-14.15a43.29,43.29,0,0,1-1.3-5.13c0-.48,0-1,0-1.44a.39.39,0,0,0-.39-.41c-.13-.73-.25-1.47-.37-2.21-.06-.38-.61-.25-.64.09a43.83,43.83,0,0,0-.16,8.87,18.88,18.88,0,0,0,.46,2.38,29.19,29.19,0,0,0-5.28-3.35A32.34,32.34,0,0,0,138,45.73q-1.33-1.8-2.81-3.5A50.76,50.76,0,0,0,128.72,36a.66.66,0,0,0-1,.8c.48,1.13,1,2.23,1.56,3.34s1.08,2.21,1.7,3.27c.21.36.43.71.65,1.05-.66-.3-1.33-.59-2-.88a32,32,0,0,1-3.32-2,18.72,18.72,0,0,1-2.77-2.32c-.37-.59-.77-1.17-1.18-1.73l-.4-.56c-.09-.18-.17-.36-.25-.55a.66.66,0,0,0-.22-.27,6.17,6.17,0,0,0-2.1-2.26c-.35-.2-.92.14-.74.57.57,1.38,1.1,2.77,1.62,4.17a11.49,11.49,0,0,0,1.07,2.92c.11.32.23.64.35,1a.38.38,0,0,0,.45.23c.12.14.23.29.36.43a8.81,8.81,0,0,0,1.78,1.39c-1.21-.26-2.42-.5-3.65-.64a22.93,22.93,0,0,0-6.77.23,35.53,35.53,0,0,0-6.74,2c-1.22.33-2.43.68-3.62,1.08-1.93.64-3.72,1.51-5.59,2.28A.54.54,0,0,0,98,50.55,47.17,47.17,0,0,0,113.32,50c4.76-1.11,9.16-3.61,14.16-3.4a.64.64,0,0,0,.6-.39l.89.28c1.15.35,2.28.75,3.4,1.18,3.9,2.14,7.71,4.43,11.47,6.81.77.58,1.53,1.18,2.27,1.8.87.82,1.71,1.68,2.51,2.58,1.09,1.6,2.28,3.12,3.48,4.64a34.79,34.79,0,0,0-4-3.17A41.7,41.7,0,0,0,130,53.22a28.66,28.66,0,0,0-5.4-.16,12.9,12.9,0,0,0-2.84.34,24.4,24.4,0,0,0-2.78.66.49.49,0,0,0,.13,1c12.08,1.12,24.17,4.87,33.45,12.95.73.63,1.44,1.3,2.12,2-4.8-4.22-11.23-6.69-17.38-8.4a21.39,21.39,0,0,0-9-.89c-.4.06-.38.71,0,.79l2.44.54a.67.67,0,0,0,.56.36c.52,0,1.05.09,1.57.15C141.39,64.6,150,67.73,156,74a25.05,25.05,0,0,1,4.52,6.46c.23.49.89.12.79-.35.25.28.85.15.8-.29A109,109,0,0,0,159.9,65.36Z"/><path class="cls-5" d="M94.31,43.14a141,141,0,0,1,18-.12,70.38,70.38,0,0,1,17.75,3.4,50.74,50.74,0,0,1,8.31,3.65c1.33.72,2.61,1.54,3.87,2.38a42.09,42.09,0,0,1,9.81,9.44,78.29,78.29,0,0,1,5,7.53,66.09,66.09,0,0,1,7.43,16.5c1.57,5.88,1.94,12,2.32,17.93s.75,12,.89,18a164.36,164.36,0,0,1-.5,18,.26.26,0,1,1-.52,0,163.07,163.07,0,0,0,.22-18c-.2-6-.62-12-1.05-18s-.8-12-2.36-17.72A64.74,64.74,0,0,0,156.18,70c-3.05-5.11-6.46-10.09-11-14a41.78,41.78,0,0,0-3.51-2.73c-1.23-.83-2.48-1.64-3.78-2.34a52.46,52.46,0,0,0-8.14-3.63,69.81,69.81,0,0,0-17.49-3.51,139.59,139.59,0,0,0-18-.16.26.26,0,0,1-.27-.25A.25.25,0,0,1,94.31,43.14Z"/><path class="cls-2" d="M165.9,130c.42-12.22-.32-24.88-5.78-35.81A47.76,47.76,0,0,0,130,70a33.65,33.65,0,0,1,6.46,13.56c1.22,5.51,1,11.27,2.55,16.7,1.78,6.42,5.85,12,10.69,16.61S160.18,125.14,165.9,130Z"/><path class="cls-3" d="M165.61,129.53c-2-2.82-2.68-6.33-3.54-9.68a80.45,80.45,0,0,0-7.66-19.23,12.18,12.18,0,0,0,4-4.74,13.13,13.13,0,0,1-3.81,2.31,1.79,1.79,0,0,1-.82.16c-.67-.07-1-.78-1.31-1.4a51.57,51.57,0,0,0-11.83-16.83c-3.58-3.37-7.67-6.27-10.54-10.26,5.3.4,10,3.3,14.56,6.12a3,3,0,0,1,.92.76,3,3,0,0,1,.41,1.51l.4,4.7,2.5-3.5A51.82,51.82,0,0,1,162,98.26a10.52,10.52,0,0,1,1,4.84c-.17,1.86-1.23,3.62-1,5.47l2.75-1.2A138.64,138.64,0,0,1,165.61,129.53Z"/><path class="cls-10" d="M164.12,126.68a.22.22,0,0,0,0-.08,25,25,0,0,0-1.25-3.81.41.41,0,0,0,0-.27c-.1-.32-.2-.65-.28-1l0-.06a11.88,11.88,0,0,1,.41-1.86,15.49,15.49,0,0,1,.67-1.63,10,10,0,0,0,1.2-3.6.56.56,0,0,0-1-.28,7,7,0,0,1-.72,1.08c-.21.31-.41.62-.61.93.14-.45.27-.9.41-1.35.29-.91.64-1.8.91-2.71l0-.09a2.13,2.13,0,0,0,.11-.33,4.38,4.38,0,0,1,.29-.34.49.49,0,0,0-.22-.81c-1.24-.26-2.22.65-2.89,1.59a8.53,8.53,0,0,0-.7,1.2,26.88,26.88,0,0,1-.55-5.15,23.89,23.89,0,0,1,.25-3.87c.08-.58.19-1.16.3-1.73.07-.32.12-.69.2-1s.3-.74.42-1.12h0a.46.46,0,0,0-.84-.35,12.19,12.19,0,0,0-1.18,3,20.35,20.35,0,0,0-.69,3.28,17.23,17.23,0,0,0,0,3.93c-.08-.18-.17-.35-.25-.53a11.92,11.92,0,0,1-.58-6.4,25.4,25.4,0,0,1,.86-3.41c.06-.2.13-.41.19-.62a6.88,6.88,0,0,0,.47-1.24.57.57,0,0,0,0-.18,9.13,9.13,0,0,1,.75-1.61c.31-.5-.49-1-.79-.46a47.41,47.41,0,0,1-3.43,5.22c-.18.23-.44.49-.66.78-.37-.75-.76-1.48-1.19-2.2-.25-.43-.5-.86-.78-1.28A5.88,5.88,0,0,0,156.13,95a9.41,9.41,0,0,0,.11-6.2.44.44,0,0,0-.86.11,5.69,5.69,0,0,1-.2.91c-.06.32-.14.64-.22,1a16.43,16.43,0,0,1-.51,1.73,12.83,12.83,0,0,1-1.6,3.26c-.1.14-.29.5-.49.51S152,96.08,152,96a9.37,9.37,0,0,1-.85-1.67l-1-2.19c-.07-.23-.13-.45-.18-.68a.47.47,0,0,0-.08-.61l0,0a14,14,0,0,1,.14-3.92,43.25,43.25,0,0,0,.66-5.56.49.49,0,0,0-.91-.24c-.48,1-1,1.89-1.46,2.84a19,19,0,0,0-1.29,2.64.09.09,0,0,0,0,0l-.45-.77c-.19-.32-.36-.64-.53-1a21,21,0,0,1-.75-3.38c-.16-1.17-.26-2.35-.35-3.53a3.63,3.63,0,0,0-.82-2.42.51.51,0,0,0-.86.36,19.65,19.65,0,0,0,0,4.47,15.42,15.42,0,0,0,.36,2.07l-.36-.39a32.76,32.76,0,0,0-4.28-3.6,18.24,18.24,0,0,1-4.3-3.72c-.22-.3-.79-.14-.65.27.3.82.59,1.64.93,2.45a8.13,8.13,0,0,0,.9,1.88,6.2,6.2,0,0,0,1.59,1.24c.69.44,1.38.87,2.06,1.34l.44.32c.87.89,1.72,1.8,2.54,2.73s1.48,1.73,2.2,2.61l-.53-.25a19.71,19.71,0,0,0-6.45-1.59c-.49,0-.56.7-.11.83a44.15,44.15,0,0,1,6.12,2.55c1.32.62,2.6,1.3,3.85,2l.32.4a.34.34,0,0,0,.47.07l.09,0c.07.13.14.27.22.4a.4.4,0,0,0,.34.22c.22.49.43,1,.64,1.48a.19.19,0,0,0,.07.08c.26.61.52,1.21.76,1.83.05.11.09.21.13.32a11.48,11.48,0,0,0-1.15-.46c-1.13-.39-2.27-.76-3.4-1.14-2.39-.8-4.76-1.65-7.18-2.34a.36.36,0,0,0-.28.65c2.28,1.44,4.38,3.11,6.78,4.37,1.47.76,3,1.38,4.45,2.23a26.66,26.66,0,0,1,4.15,4.41c.28.53.55,1.06.8,1.6a24.11,24.11,0,0,0-3.48-2.74c-.45-.28-.91-.55-1.38-.8a40.68,40.68,0,0,0-3.92-2.88.66.66,0,0,0-.81.1,9.14,9.14,0,0,0-1.21,2,.69.69,0,0,0,.25.93,78.69,78.69,0,0,1,10,5.32c.22.23.43.47.64.71a62,62,0,0,0-8-3.75,26.14,26.14,0,0,1-2.65-1.32l-2.67-2c-.33-.25-.72.28-.43.56a17.13,17.13,0,0,0,3.22,2.45l8.29,6.3c1.41,1.06,2.87,2.1,4.23,3.24l1.64,1.51a14.57,14.57,0,0,1,2,2.7.41.41,0,0,0,.2.36c0,.09.11.18.16.28.15.5.29,1,.43,1.51a10.92,10.92,0,0,0-3-2.81c-4-2.55-8.3-4.71-12.39-7.15a.33.33,0,0,0-.4.52,50.84,50.84,0,0,0,9.74,8,29.94,29.94,0,0,1,5.1,3.43,14.54,14.54,0,0,1,3,5.08.42.42,0,0,0,.46.31h0c.16.34.66,0,.5-.29Z"/><path class="cls-5" d="M141.4,81.12a72,72,0,0,1,5.81,7.22c1.78,2.54,3.42,5.17,4.94,7.86A153.35,153.35,0,0,1,160.06,113a130.33,130.33,0,0,1,6,17.53,56.83,56.83,0,0,1,1.48,9.18,39,39,0,0,1-.4,9.28.26.26,0,1,1-.51-.07,48,48,0,0,0-1.5-18.16,135.29,135.29,0,0,0-6.1-17.35,159,159,0,0,0-7.74-16.7c-1.46-2.7-3-5.33-4.75-7.87A77.38,77.38,0,0,0,141,81.47a.26.26,0,0,1,0-.37A.28.28,0,0,1,141.4,81.12Z"/><path class="cls-16" d="M116.48,156.24a45.66,45.66,0,0,0,2,16.28,44.79,44.79,0,0,0,9.66,15.65A64.2,64.2,0,0,0,169,208.82a60.26,60.26,0,0,0,43.71-13.3A44.83,44.83,0,0,0,223,183.7a49.2,49.2,0,0,0,5.32-14.77c2.66-12.86,1.66-27-5.52-38a2.05,2.05,0,0,0-.73-.76,2.11,2.11,0,0,0-1.4,0c-29.87,7.52-65.57,1.89-96.12-2.07C122,127.81,116.86,146.79,116.48,156.24Z"/><path class="cls-17" d="M254.74,297.75q-6.59-23.61-12.36-47.44-5.94-24.48-11-49.18-2.85-13.92-5.41-27.9a.94.94,0,0,0-.29-.56,50.66,50.66,0,0,0,5.12-3.29c1.07-.79.09-2.58-1.07-1.83a90.47,90.47,0,0,1-9.43,5.49,77.85,77.85,0,0,1-10.08,4.08,95.42,95.42,0,0,1-21.15,4.34C173.09,183,157,181,141.27,178c-8.14-1.58-16.33-3.77-23.53-8a.78.78,0,0,0-.79,1.35c1.26.77,2.55,1.47,3.86,2.13a1.4,1.4,0,0,0-.28.7q-2.69,25.11-5.9,50.16t-6.95,50q-2.09,14-4.33,27.91a1.12,1.12,0,0,0,.76,1.34,1.21,1.21,0,0,0,.93-.18l.17,0,33.45-13.09,4.12-1.61,3.36,1.51q-1.2,12-2.41,24v.1c-.36.78.2,1.91,1.21,1.54q15.62-5.72,31-12.15l.52-.21q8.81,3.76,17.65,7.45,10.76,4.49,21.57,8.84a1.09,1.09,0,0,0,1.34-.76,1,1,0,0,0,0-.69.82.82,0,0,0,.21-.63q-2-15.42-3.85-30.85l0,0,13.74,4.4L253,299.41l.06.24a1.08,1.08,0,0,0,2.09-.56A1.11,1.11,0,0,0,254.74,297.75ZM161.67,183.24c13.09,1.39,26.46,1.31,39.35-1.4v0q2,26.56,4.52,53.09,2.36,24.36,5.21,48.68l-4.21-1.35-26.19-8.38,1.18-.46c3.13-1.22,5.89-1.24,10.08-3,1.08-.47,1.1-3.45-1.49-2.6-2.85.93-5.62,2.15-8.41,3.24l-4.64,1.82-18.17-5.81-8-2.56c.05-.51.11-1,.16-1.52l5.13-51.14q1.45-14.42,2.9-28.84v0Zm-11,83.46,23.19,7.42-.42.16-16.66,6.52L149,283.87Q149.81,275.27,150.67,266.7Zm-10.33,18.43q-10.62-4.8-21.18-9.75a1.12,1.12,0,0,0-1.49.39,1.1,1.1,0,0,0,.39,1.49q10.95,5.13,22,10.1l-16.56,6.48-17.69,6.93q3.86-24.07,7.24-48.21,3.49-25,6.48-50.1,1.68-14.06,3.18-28.15a80.05,80.05,0,0,0,15.2,5A186.89,186.89,0,0,0,157,182.69a1.59,1.59,0,0,0-.06.3l-5.14,51.14q-1.48,14.85-3,29.68a75.62,75.62,0,0,0-11.91-3,1.09,1.09,0,0,0-.58,2.1L148.56,266q-.94,9.36-1.88,18.72l-3.84,1.51Zm5.27,2.37.83-.32-.07.67ZM161.74,307q-7.83,3.11-15.72,6,1.09-11,2.21-22l7.65,3.41q8.87,3.92,17.76,7.73Q167.72,304.66,161.74,307Zm53.15,10q-17.94-7.24-35.72-14.83,13.62-5.79,27-12.11l5-2.38a1.37,1.37,0,0,1,0,.19Q213,302.5,214.89,317.05Zm-7.79-29.77q-7.46,3.54-15,6.93-7.8,3.51-15.7,6.83-14-6-28-12.26l.25-2.49,23.42-9.16,5-2,2.28.73,30.83,9.86C209.2,286.26,208.15,286.78,207.1,287.28Zm9.06-1.92c2.3-1.13,10.47-5.64,12.72-6.85,1.23-.66.15-2.43-1.08-1.85-3,1.41-11.79,6.24-14.74,7.7H213q-1.15-9.83-2.23-19.65-2.9-26.49-5.19-53-1.29-14.89-2.39-29.81a1.17,1.17,0,0,0-.13-.47c1.84-.43,3.66-.91,5.48-1.45a85.18,85.18,0,0,0,11.58-4.41q1.89-.87,3.75-1.86a.66.66,0,0,0,0,.14q4.55,24.78,10,49.4t11.75,49q3.19,12.38,6.63,24.69Z"/><path class="cls-2" d="M203.58,127.83a41.8,41.8,0,0,1,33,2c10.09,5.17,18.8,15.36,21.86,26.28-3,2.38-11.45-.37-16.19-2.7a53.46,53.46,0,0,1-13.63-9.59c-3.78-3.67-7-7.92-11.16-11.2S208,127.06,203.58,127.83Z"/><path class="cls-18" d="M247.87,145.05h0"/><path class="cls-18" d="M248.55,143.68h0"/><path class="cls-9" d="M258.36,155.7c-1.87-2.74-2.34-6.22-4.67-8.68a11.47,11.47,0,0,0-4.66-2.53c-1.6-.58-3.36-1.34-4.24-2.87a23.77,23.77,0,0,1,6.12.84c.33.08.72-.31.48-.62a49.59,49.59,0,0,0-9.24-9,10.07,10.07,0,0,0-5.27-2.34c-2-.19-4.07.15-6-.55a6,6,0,0,1,2.44-1c.33-.06.25-.5,0-.6a42.47,42.47,0,0,0-29.19-.66.27.27,0,0,0-.18.22c-.17.24,0,.71.32.67a13.08,13.08,0,0,1,5.88,1.19,40.39,40.39,0,0,1,5.26,2.64,6.67,6.67,0,0,0,2.39.9,9.75,9.75,0,0,0,2.64-.2,21.76,21.76,0,0,1,6.19,0,36.1,36.1,0,0,0-6.77,1.63.41.41,0,0,0-.17.68,8.09,8.09,0,0,0,3.24,2.24c1.48.5,3.18.05,4.68-.07a40.35,40.35,0,0,1,4.79-.15,9,9,0,0,1,3.57.72l-.26.06a.27.27,0,0,0-.12.09,11.36,11.36,0,0,0-5.11,1.3.53.53,0,0,0,.08.95c-1.31,0-2.62.11-3.94.18a.43.43,0,0,0-.36.63,11.1,11.1,0,0,0,7,5.05,13.08,13.08,0,0,0,4.71.06,14.59,14.59,0,0,1,5.05-.22,25.74,25.74,0,0,0-1.24,3.15c-.2.67-.4,1.35-.58,2a2.21,2.21,0,0,0-.14,1.45,2.11,2.11,0,0,0,1,.79c.56.29,1.12.56,1.7.8a20.89,20.89,0,0,0,3.78,1.16c.31.06.71-.15.68-.51a16.85,16.85,0,0,1,.29-4.55,20.07,20.07,0,0,0,9.3,5.88A.46.46,0,0,0,258.36,155.7Z"/><path class="cls-3" d="M204.49,127.65c2.86-1.07,6-.73,9-.12a56.86,56.86,0,0,1,23.81,11,19.58,19.58,0,0,0-6.17,1.41c1.4.69,3,.47,4.59.64,4.33.48,7.63,4,10.45,7.29s5.92,6.91,10.19,7.75A24.84,24.84,0,0,1,237,150.44l3.56-1.82c-3.54-.67-7.22-1.4-10.14-3.52a35.74,35.74,0,0,1-4.71-4.66A46.34,46.34,0,0,0,204.49,127.65Z"/><path class="cls-4" d="M258.24,155.7a15.49,15.49,0,0,1-2.86-.82,35.63,35.63,0,0,1-3.87-2l-.53-.35-.71-.54-.31-.3c.43.19.87.36,1.3.53s.85.34,1.27.52l.08,0,.73.4,2.15,1.16a.22.22,0,0,0,.32-.14l.77.35c.22.11.41-.22.19-.33-.89-.44-1.78-.87-2.68-1.29-.64-.37-1.31-.73-2-1.07-.34-.18-.69-.36-1-.52a14.92,14.92,0,0,0-3-1.65h0c-.75-.83-1.5-1.65-2.28-2.45l-.24-.37c2,.91,4.23,1.32,6.22,2.17a13.68,13.68,0,0,1,1.65,1.07.28.28,0,0,0,.3,0,7.21,7.21,0,0,1,1.35,1.25c.19.24.54-.06.4-.31a9.33,9.33,0,0,0-4.53-3.85,25.76,25.76,0,0,0-3.05-1.09c-1.22-.36-2.43-.77-3.64-1.11h0l-.11-.07c-.57-.72-1.15-1.44-1.78-2.11a30.82,30.82,0,0,0-4.44-4h0l-.26-.17a.3.3,0,0,0-.09-.15,39.84,39.84,0,0,0-4.42-3.43c2.7.66,5.46,1.06,8.17,1.68a23,23,0,0,1,4.21,1.36,18.73,18.73,0,0,1,3.75,2.35c.1.07.21-.09.13-.17-1.95-2.08-4.95-3.16-7.63-3.91-3.2-.88-6.53-1.19-9.73-2.06l-.46-.31,1.37.15c1.61.17,3.22.37,4.81.63a28,28,0,0,1,9.06,2.92c.27.15.57-.21.33-.42-4.89-4.56-11.91-4.28-18.16-4.89-.65-.38-1.32-.75-2-1.1a38.85,38.85,0,0,0-11.59-4c2.67,0,5.35,0,8,.2,1.92.21,3.83.47,5.75.79a.27.27,0,0,0,.18,0h.06c.19,0,.34-.25.14-.34h-.05l-.06,0a.2.2,0,0,0-.13-.08l-.14,0a28.37,28.37,0,0,0-11.5-1.6,71.72,71.72,0,0,0-12.92,1.19c-.19,0-.15.3,0,.34a.19.19,0,0,0,.21.13,32.08,32.08,0,0,1,5.54-.07,17.18,17.18,0,0,1,5.15,4.25,8.07,8.07,0,0,0,1.05,1.21l.05,0,0,0a7.16,7.16,0,0,0,1.61,1.26,8.65,8.65,0,0,0,2.88,1.9.5.5,0,0,0,.13,0l0,0a.26.26,0,0,0,.39-.22s0-.07,0-.1v0a.14.14,0,0,0,0-.07,11.45,11.45,0,0,0-.25-1.5.56.56,0,0,0,0-.42c-.09-.23-.2-.44-.29-.66a9.44,9.44,0,0,0-2-3.48c-.15-.23-.31-.45-.47-.68,1,.3,2,.64,2.95,1a18.42,18.42,0,0,1,2.18,2.32,11.79,11.79,0,0,1,2.06,3.5c.14.44.87.39.85-.12a6.85,6.85,0,0,0-1.68-3.52c-.32-.42-.66-.81-1-1.2a61.27,61.27,0,0,1,6.56,3.35c1.27.74,2.61,1.5,3.88,2.35l.4.31a18.77,18.77,0,0,0-7.63.29,7.68,7.68,0,0,0-2.54.89.15.15,0,0,0,.11.27,7.13,7.13,0,0,0,1.26-.41c.43-.13.85-.25,1.28-.36a19.76,19.76,0,0,1,2.66-.48,18.75,18.75,0,0,1,5.34.23h.07l.56.43s0,0,0,.06A14.07,14.07,0,0,0,227,141c-.23.16-.1.63.21.5a48,48,0,0,1,5.17-1.81,18.29,18.29,0,0,1,2.75-.53,17.22,17.22,0,0,1,2-.07,34.55,34.55,0,0,1,4.19,3.83,1.39,1.39,0,0,0-.21-.11,4.77,4.77,0,0,0-1.3-.69,12.41,12.41,0,0,0-3.56-.74,13.41,13.41,0,0,0-7,1.47c-.28.14-.07.52.19.47a23.22,23.22,0,0,1,6.71-.17,24,24,0,0,1,3.25.57,14.7,14.7,0,0,1,2.94.91,19.11,19.11,0,0,0-3,0,27.92,27.92,0,0,0-3,.25c-.73.1-1.79.13-2.28.78-.07.1,0,.21.16.19h0l.1,0a3.63,3.63,0,0,1,1.18-.13l1.12,0c.75,0,1.5,0,2.25,0,1.22,0,2.45.05,3.68.06h0a3,3,0,0,1,1.35.6l.55.57q.21.43.39.9a8,8,0,0,1,.52,2.57,8.28,8.28,0,0,1-1.46,3.23l-.06,0a.36.36,0,0,0-.12.19l-.24.34c-.17.22.11.54.36.46a4.29,4.29,0,0,0,2.82-3.43c.62,1.3,1.24,2.6,1.88,3.88a2.22,2.22,0,0,0,1.71,1.27c.38.09.78.16,1.17.23a7.65,7.65,0,0,0,1.74.32l.23,0a.35.35,0,0,0,.25,0l1.55.07a.38.38,0,0,0,.1-.75,9.31,9.31,0,0,1-.94-.28l-1.28-.58-.56-.62,0,0c.34.18.69.34,1.05.49a9.58,9.58,0,0,0,2.67.85q.89.25,1.77.42a.27.27,0,0,0,.33-.28C258.48,156.16,258.53,155.75,258.24,155.7ZM213.4,129.25c.38.27.76.55,1.12.85v0l.18.3C214.29,130,213.85,129.62,213.4,129.25Z"/><path class="cls-5" d="M189.55,132.47a14.27,14.27,0,0,1,3.66-2.49,23.67,23.67,0,0,1,4.13-1.56,36.72,36.72,0,0,1,8.71-1.26A47.73,47.73,0,0,1,223.33,130a41.84,41.84,0,0,1,15,9,113.9,113.9,0,0,1,11.73,12.94.25.25,0,0,1,0,.36.25.25,0,0,1-.36,0,130.56,130.56,0,0,0-11.94-12.59,46.56,46.56,0,0,0-6.94-5.1A43.4,43.4,0,0,0,223,131a48.74,48.74,0,0,0-16.91-2.85,35.8,35.8,0,0,0-8.51,1.06,18.49,18.49,0,0,0-7.66,3.64h0a.26.26,0,0,1-.35-.39Z"/><path class="cls-2" d="M143.34,119.6a32.2,32.2,0,0,0-22.92,3.67c-6.83,4-11.93,10.47-15.86,17.35-5.08,8.88-8.5,18.94-8.16,29.16,1.18-2.95,3.88-5,6.57-6.67,6.55-4.12,13.74-7.1,20.43-11a86.82,86.82,0,0,0,10.18-6.92C139,141,144,135.73,145.74,129.09,146.59,125.75,146.94,120.39,143.34,119.6Z"/><path class="cls-3" d="M145.08,119.56c-9.43-2.61-20.57,0-28.37,6-2.95,2.24-5.58,5.12-6.63,8.67q4.32-3.76,9-7.13a.9.9,0,0,1,.63-.23c.45.09.44.74.32,1.19l-.84,3.06c3.34-1.44,5.36-5,8.6-6.61a16.79,16.79,0,0,1,5.38-1.42q5.07-.7,10.19-1c-1.79,1.27-3,3.13-4.51,4.75a23.62,23.62,0,0,1-8.25,5.91l8.69-.39c-.84,3.41-3.74,5.93-6.77,7.7s-6.39,3-9.16,5.2a24.94,24.94,0,0,0,5.36.91,62.17,62.17,0,0,1-10,8.49q5.34-2.82,10.52-6a58,58,0,0,0,10.05-7.3A23.94,23.94,0,0,0,146,131C147.06,127.25,148.24,122.94,145.08,119.56Z"/><path class="cls-4" d="M122.76,133.56c-.41-.29-1.3.05-1.74.11-.71.09-1.43.16-2.14.28a20.17,20.17,0,0,0-2.61.71,21.55,21.55,0,0,0-4.17,1.92,33.86,33.86,0,0,0-3.23,2l-.11.06c-.69.45-1.41.87-2.07,1.36a14.78,14.78,0,0,0-3.23,3.42.32.32,0,0,0,.18.51c0,.06-.09.13-.14.2s0,.17.12.16.21-.12.33-.23a5.73,5.73,0,0,1,.89-.74c.71-.48,1.45-.91,2.17-1.37a18.24,18.24,0,0,1,1.94-1.18c.73-.35,1.47-.68,2.19-1.07a27.23,27.23,0,0,1,4.62-1.95,18.1,18.1,0,0,1,1.95-.54,9,9,0,0,0,1.91-.45l-.13.12-.14.11a21.83,21.83,0,0,0-2.27.79c-1.43.62-2.83,1.32-4.24,2-.61.29-1.24.51-1.85.79a13.19,13.19,0,0,0-1.75,1.1c-1.31.89-2.74,1.58-4.06,2.44-.26.17,0,.58.24.41,1.25-.83,2.58-1.54,3.84-2.35a16,16,0,0,1,1.76-1.08c.64-.31,1.33-.51,2-.8l4.2-1.83c.27-.12.54-.23.82-.33l-.36.34-1.79,1.81a5.42,5.42,0,0,0-.75.91c-.41.34-.81.7-1.19,1.08s-.77.5-1.14.77c-.78.55-1.64,1-2.41,1.56s-1.44.78-2.14,1.24a23.63,23.63,0,0,0-2.3,1.54,33.21,33.21,0,0,0-4.22,4.08c-1,1.14-2.23,2.57-2.43,4.11h0s0,0,0,0c0,.23.32.26.39.05a5.59,5.59,0,0,1,1-1.43,4.46,4.46,0,0,1,.34-.42l.52-.4c.44-.37.88-.76,1.33-1.13a31.08,31.08,0,0,1,3.05-2.16,28.23,28.23,0,0,0,2.57-1.8c-.13.25-.23.51-.35.77a11,11,0,0,0-.65,1.64c-.13.56-.39,1.07-.55,1.62a11.05,11.05,0,0,0-.3,1.72c-.36,1.75-.91,3.55-.51,5.33a.15.15,0,0,0,.27,0,2.53,2.53,0,0,0,.21-.86l0-.07a2.1,2.1,0,0,0,.11-.79c.1-.45.2-.91.31-1.37.33-1.3.7-2.62,1.13-3.9a26.88,26.88,0,0,1,1.57-3.76c.52-1,1.11-1.95,1.6-2.95a9.49,9.49,0,0,1,.79-.75c.67-.57,1.28-1.19,1.89-1.82a1.08,1.08,0,0,1-.08.19,14.22,14.22,0,0,0-.51,2c-.13.7-.38,1.35-.45,2.07-.15,1.44-.47,2.89-.52,4.34,0,.73-.06,1.46-.07,2.19a3.17,3.17,0,0,0,.1,1.47.24.24,0,0,0,.44-.06c.22-.85.25-1.74.49-2.6s.64-1.78.94-2.69l.3-.9a.18.18,0,0,0,0-.07,8.58,8.58,0,0,0,.53-1.6.56.56,0,0,1,0-.12c.32-.88.77-1.66,1.15-2.51.74-1.62,1.58-3.19,2.43-4.75.41-.74.82-1.49,1.27-2.2.24-.38.69-.72.85-1.15l.08-.06a.15.15,0,0,0,0-.26.3.3,0,0,0-.14-.26.7.7,0,0,0-.31-.05c.26-.18.52-.37.76-.56a6.65,6.65,0,0,0,1.39-1.31C123,134.09,123.08,133.78,122.76,133.56Z"/><path class="cls-4" d="M138.39,123.82a1.66,1.66,0,0,0-.46.15c-.26-.3-.71-.07-1,.1a16.05,16.05,0,0,1-2.63,1,53.64,53.64,0,0,1-6.4,2c-2.19.44-4.36,1-6.55,1.35a22.08,22.08,0,0,0-3.12.62,19.63,19.63,0,0,0-2.6,1.19,20,20,0,0,0-3,1.92,7.58,7.58,0,0,0-.65.62l0,0a2.76,2.76,0,0,0-.8.83.58.58,0,0,0-.08.23,5.07,5.07,0,0,1-.36.45c-.2.25.06.65.37.47s.38-.22.58-.33a.5.5,0,0,0,.24-.06c.63-.37,1.35-.67,2-1l.22-.11c1-.42,2-.81,3-1.22l1.42-.56c.54-.13,1.09-.25,1.64-.35,1.2-.23,2.4-.49,3.62-.67s2.26-.23,3.39-.41a14.84,14.84,0,0,0,1.5-.34c-.67.45-1.33.9-2,1.39a10,10,0,0,0-1.62,1.57.17.17,0,0,0-.18.09,36,36,0,0,0-2.4,3.94,11.62,11.62,0,0,0-.78,1.86c-.19.67-.45,1.29-.67,1.94a16.18,16.18,0,0,0-.78,4c0,.52-.09,1-.15,1.53a6.28,6.28,0,0,0-.23.85,11.16,11.16,0,0,0-.09,2.16.14.14,0,0,0,.25.07.5.5,0,0,0,.08-.26s0,0,0,0,0-.05,0-.08a.21.21,0,0,0,.19,0,1,1,0,0,0,.33-.64c.07-.32.16-.62.25-.93a.19.19,0,0,0,.17-.1s0,0,0-.06h0s0,0,0-.06a1.11,1.11,0,0,0,.08-.3,11.66,11.66,0,0,0,.24-1.57c.16-.55.46-1,.66-1.54a15.84,15.84,0,0,1,.63-1.53c.24-.46.56-.86.81-1.32s.48-1,.8-1.55.55-.91.85-1.35a38.89,38.89,0,0,1,4.87-5.62c.85-.86,1.75-1.69,2.54-2.61a7.61,7.61,0,0,0,.55-.72c.62-.56,1.22-1.14,1.85-1.68a16,16,0,0,1,1.37-1.09l.45-.33a1.7,1.7,0,0,1,.63-.28.54.54,0,0,0,.4-.61,1.81,1.81,0,0,1,.68-.37C138.92,124.31,138.75,123.77,138.39,123.82Zm-17,17.7c0,.23-.07.47-.09.7s-.15.67-.21,1c0-.26.06-.51.11-.76.08-.47.16-1,.29-1.46C121.44,141.18,121.41,141.35,121.37,141.52Z"/><path class="cls-5" d="M100.44,159.42a96.8,96.8,0,0,1,5.9-8.87,88.88,88.88,0,0,1,6.89-8.13,94.22,94.22,0,0,1,16.33-13.68,83.29,83.29,0,0,1,9.26-5.34,29.74,29.74,0,0,1,5.05-1.89,18.07,18.07,0,0,1,10.73.33,19.21,19.21,0,0,1,4.8,2.49,23.53,23.53,0,0,1,7,8.09.25.25,0,0,1-.11.35.26.26,0,0,1-.35-.1v0a22.88,22.88,0,0,0-7-7.68,21.77,21.77,0,0,0-2.23-1.32,19.23,19.23,0,0,0-2.4-1,17.24,17.24,0,0,0-5.08-.86,22.51,22.51,0,0,0-10,2.54,81.55,81.55,0,0,0-9.11,5.31,96.12,96.12,0,0,0-8.48,6.27,103.1,103.1,0,0,0-7.75,7.17,89.19,89.19,0,0,0-7,8,96.7,96.7,0,0,0-6.1,8.64.26.26,0,0,1-.35.09A.27.27,0,0,1,100.44,159.42Z"/><path class="cls-2" d="M179.49,126.22A37.09,37.09,0,0,1,205.84,133a44.51,44.51,0,0,1,16,22.27c1.88,5.72,2.86,12.06,6.9,16.52-9.27-.89-17.33-6.93-23.4-14s-10.62-15.3-16.34-22.67C186,131.31,182.6,127.61,179.49,126.22Z"/><path class="cls-3" d="M186.16,126.26a35.6,35.6,0,0,1,27,13.8,13.34,13.34,0,0,0-5.15.28c2.24,2.25,6.33,1.49,8.62,3.68a8.11,8.11,0,0,1,1.41,2,58.64,58.64,0,0,1,5.36,13.58,37,37,0,0,0-5.82-1.72c-.35.44.1,1.07.54,1.43a14.72,14.72,0,0,0,4.23,2.38,4.36,4.36,0,0,1,1.48.73,4.18,4.18,0,0,1,1,2.05,22.21,22.21,0,0,0,3.84,7.29c-4.5-1.59-7.88-5.3-10.83-9a124.32,124.32,0,0,1-7.78-11,63.36,63.36,0,0,0,7.78.84,3.24,3.24,0,0,0-2.68-2.32c-1.23-.28-2.53-.22-3.72-.61-2.27-.75-3.69-2.93-5-4.91-5.59-8.23-13.3-15.53-22.9-18.15C184.76,125.91,186.29,125.81,186.16,126.26Z"/><path class="cls-19" d="M208.9,131.11h0"/><path class="cls-9" d="M223.23,168.47c-.4-.32-.8-.65-1.18-1a.55.55,0,0,0-.16-.37,49.25,49.25,0,0,1-5.78-6.87c-.39-.58-.76-1.16-1.13-1.74-.17-.26-.33-.53-.5-.8a23.49,23.49,0,0,0-1.64-2.82c-1.37-2.45-2.66-4.93-4.16-7.3-.08-.13-.18-.26-.27-.4a10.31,10.31,0,0,0-2-2.83c-.42-.53-.87-1-1.33-1.53a31.31,31.31,0,0,0-8.23-8.79,18.45,18.45,0,0,0-3.1-2.76,25.05,25.05,0,0,0-5.05-2.9l-.52-.2a35.5,35.5,0,0,0-6.39-1.91.33.33,0,0,0-.26.61,36.8,36.8,0,0,1,8.4,7.59c.4.56.79,1.14,1.17,1.71a.56.56,0,0,0,.32.24c.13.19.27.37.39.56a.34.34,0,0,0,.62-.26l-.66-3.36c2.23,1.62,3.4,4.31,4.26,6.87a46.46,46.46,0,0,0,2,5.43l.06.2a.5.5,0,0,0,.17.24,13.45,13.45,0,0,0,1.61,2.45c.27.31.66,0,.61-.36-.35-2.29-.71-4.58-1.13-6.87-.21-1.14-.46-2.27-.73-3.4-.07-.29-.14-.58-.22-.87.28.3.55.62.81.95,0,0,0,.05,0,.07.48,1,1.25,1.94,1.83,2.93a28,28,0,0,1,1.45,2.9l.2.51a57.48,57.48,0,0,1,1.51,6.61,20.93,20.93,0,0,0,3.14,8.34c.22.31.84.13.67-.28-1-2.5-.6-5.19-.63-7.82a16.72,16.72,0,0,0-.84-5c.25.38.51.76.75,1.14a17.11,17.11,0,0,1,1.81,6.19c.16,1.46.09,2.94.23,4.4a3.8,3.8,0,0,0,1.6,3.11.46.46,0,0,0,.68-.39,4.35,4.35,0,0,1,.33-2.09c.38,1.28.77,2.56,1.15,3.85s.53,2.52,1.63,3.21a24.87,24.87,0,0,0,3.79,1.72c1.45.59,2.9,1.18,4.39,1.66C223.21,169.11,223.5,168.67,223.23,168.47Z"/><path class="cls-4" d="M218.56,148.46a18.73,18.73,0,0,0-5.57-2.81c-1-.33-2-.6-3.08-.84l-1.51-.34a4.16,4.16,0,0,0-1.39-.18,11.59,11.59,0,0,0-.79-.92l.14.07a13.73,13.73,0,0,0,3.24.67,17.43,17.43,0,0,1,7.2,2.45c.29.18.53-.21.34-.44-2.31-2.87-6.37-3.81-9.74-4.78a9,9,0,0,1-2.72-1.16,24.64,24.64,0,0,1-2.41-2c-1.26-1.16-2.52-2.3-3.8-3.44a14.49,14.49,0,0,0,3.28.53,32.84,32.84,0,0,0,5.34-.06c.35,0,.51-.61.09-.68-2.11-.31-4.21-.7-6.32-1.09a14.2,14.2,0,0,1-3.13-.84,18.4,18.4,0,0,1-2.54-1.47c-.48-.32-1-.62-1.45-.93h0a4.63,4.63,0,0,0-.46-.31l-.21-.12-.11,0a24.19,24.19,0,0,0-2.82-1.45,31.61,31.61,0,0,0-5.62-1.77.24.24,0,0,0-.13.46,28.91,28.91,0,0,1,5.05,1.92c.27.42.52.85.76,1.29a.69.69,0,0,0,.09.25l.06.1a5.69,5.69,0,0,0,.78,1.51c.91,2,1.63,4.14,2.44,6.18a36.13,36.13,0,0,0,2.59,5.3c.09.21.18.42.28.63a.39.39,0,0,0,.26.23,25.09,25.09,0,0,0,1.88,2.53c.18.21.51-.06.37-.28a28.79,28.79,0,0,1-2.35-4.88l0-.09a33.7,33.7,0,0,1-1.42-5.19,19.88,19.88,0,0,0-1.33-4.6l1,.86h0a69.82,69.82,0,0,1,6.92,12.22c.82,2.06,1.37,4.21,2,6.33a21.63,21.63,0,0,0,2.7,5.88.16.16,0,0,0,.27-.16,31.72,31.72,0,0,1-1.93-6.21c-.53-2-1-4-1.55-6a33.39,33.39,0,0,0-1.71-4.73c.8.83,1.66,1.61,2.54,2.36a.34.34,0,0,0,.06.12,34,34,0,0,1,2.28,3.3.27.27,0,0,0,.1.09,45.58,45.58,0,0,1,3.22,13.68.24.24,0,0,0,.47,0,67.93,67.93,0,0,0-.52-8.67,13.12,13.12,0,0,0-1.43-4.38.26.26,0,0,0,0-.27,12.85,12.85,0,0,0-.85-1.36c.27.06.55.1.82.15.51.09,1,.18,1.52.29,1,.2,2,.43,3,.72a17.9,17.9,0,0,1,5.66,2.61C218.56,148.72,218.67,148.54,218.56,148.46Zm-17.82-14.15.36.06a10.85,10.85,0,0,1-2.27-.52C199.44,134,200.08,134.18,200.74,134.31Z"/><path class="cls-4" d="M228.72,171.6a16.49,16.49,0,0,1-2.85-4.86,9.59,9.59,0,0,0-2.06-3.72c-2-1.81-5-1.39-7.19-2.84-.15-.15-.3-.31-.44-.47h0a.29.29,0,0,0-.22-.07l-.67-1.22a9.12,9.12,0,0,0-.41-.83,21.79,21.79,0,0,0,2.58.56c2,.44,3.86,1,5.78,1.58.38.12.52-.45.16-.58-1.32-.5-2.66-1-4-1.34l-1-.34c-1-.32-2-.56-3-.81l-1.07-.35h-.13l-.28-.44c0-.08-.08-.16-.13-.24a.33.33,0,0,0-.09-.11l-.92-1.45-.18-.27.36.16c1,.41,2.05.6,3.06.91a24.41,24.41,0,0,1,6.5,3.14c.27.19.63-.12.55-.42a8,8,0,0,0-1.25-2.86,5.78,5.78,0,0,0-2.53-1.77,20.29,20.29,0,0,0-6.14-1.1c-.64-.1-1.27-.2-1.89-.36a.37.37,0,0,0-.38.57.28.28,0,0,0,0,.15c.59,1,1.11,2.09,1.6,3.16s.82,2,1.23,3.06a27.38,27.38,0,0,1,1.24,7.32.42.42,0,0,0,.55.39.44.44,0,0,0,.61-.24,9.5,9.5,0,0,0,.18-2.44,14.41,14.41,0,0,0-.23-2.45c0-.16-.06-.33-.1-.5,1.61,2.11,4.58,2.66,6.18,4.82.93,1.26,1.58,2.68,2.63,3.86a10.13,10.13,0,0,0,3.7,2.79C228.72,172.08,228.87,171.76,228.72,171.6Zm-1.21-1a.58.58,0,0,0-.06-.15c-.39-.69-.81-1.36-1.24-2,0-.07,0-.13,0-.2.45.85,1,1.67,1.47,2.49Z"/><path class="cls-5" d="M167.59,132.13a16.44,16.44,0,0,1,3.36-3.51,11.66,11.66,0,0,1,4.41-2.09,18.55,18.55,0,0,1,2.41-.38c.76-.08,1.58-.24,2.4-.28a15.71,15.71,0,0,1,4.87.58,22.17,22.17,0,0,1,4.51,1.85,47.91,47.91,0,0,1,4.11,2.56,57.66,57.66,0,0,1,18.84,21.61c1.48,2.83,2.88,5.69,4.57,8.37a25.86,25.86,0,0,0,6.16,7.09.26.26,0,0,1,.05.37.25.25,0,0,1-.35,0,25.66,25.66,0,0,1-6.55-7.07c-1.76-2.7-3.22-5.56-4.75-8.35a63.41,63.41,0,0,0-5-8.05c-.94-1.28-2-2.5-3-3.69s-2.12-2.34-3.26-3.44a57.79,57.79,0,0,0-7.29-6.05c-1.31-.89-2.64-1.77-4-2.54a20.59,20.59,0,0,0-4.29-1.85,14.89,14.89,0,0,0-4.59-.64c-.77,0-1.53.14-2.35.22a17.66,17.66,0,0,0-2.33.32,11.13,11.13,0,0,0-4.2,1.91,16,16,0,0,0-3.31,3.32h0a.26.26,0,0,1-.42-.31Z"/></g></g></svg>