<svg xmlns="http://www.w3.org/2000/svg" viewBox="0 0 23.22 26.66"><defs><style>.cls-1{fill:#fff;}</style></defs><g id="Capa_2" data-name="Capa 2"><g id="Elementos_superiores" data-name="Elementos superiores"><g id="GPS"><path id="GPS-2" data-name="GPS" class="cls-1" d="M11.61,0A8.44,8.44,0,0,0,3.17,8.44a8.33,8.33,0,0,0,1.27,4.43L11,23.67a.67.67,0,0,0,.48.32.69.69,0,0,0,.71-.34l6.62-10.9a8.26,8.26,0,0,0,1.2-4.31A8.45,8.45,0,0,0,11.61,0Zm0,12.66a4.22,4.22,0,1,1,4.22-4.22A4.22,4.22,0,0,1,11.61,12.66Z"/><path class="cls-1" d="M16.35,19.08c0,.21,0,.65,0,.85,3.63.54,5.92,1.46,5.92,2.79,0,1.84-4.66,3.1-10.63,3.1s-10.5-1.36-10.5-3.2c0-1.31,2.18-2.19,5.72-2.74,0-.2-.1-.57-.11-.77-4,.63-6.72,2-6.72,3.59,0,2.19,5.2,4,11.61,4s11.61-1.77,11.61-4C23.22,21.09,20.39,19.7,16.35,19.08Z"/></g></g></g></svg>